<?xml version="1.0" encoding="UTF-8"?>
<svg width="41.045mm" height="16.12mm" version="1.1" viewBox="0 0 41.045 16.12" xmlns="http://www.w3.org/2000/svg" xmlns:cc="http://creativecommons.org/ns#" xmlns:dc="http://purl.org/dc/elements/1.1/" xmlns:rdf="http://www.w3.org/1999/02/22-rdf-syntax-ns#">
 <metadata>
  <rdf:RDF>
   <cc:Work rdf:about="">
    <dc:format>image/svg+xml</dc:format>
    <dc:type rdf:resource="http://purl.org/dc/dcmitype/StillImage"/>
    <dc:title/>
   </cc:Work>
  </rdf:RDF>
 </metadata>
 <g transform="translate(-16.751 -92.831)">
  <g style="font-variant-caps:normal;font-variant-east-asian:normal;font-variant-ligatures:normal;font-variant-numeric:normal;shape-inside:url(#rect90);white-space:pre" aria-label="ABOUT">
   <path d="m20.257 102.57c0.02679-0.0284 0.18076-0.0639 0.46158-0.10999 0.2926-0.06 0.63375-0.20559 1.0148-0.43868 0.01325-1e-3 0.0098-0.16085-0.04152-0.48156-0.08154-0.55103-0.2114-0.97833-0.29365-1.2104-0.1042-0.32072-0.21066-0.55992-0.28167-0.69061-0.0835-0.25498-0.37844-0.80078-1.017-1.6101 0.12878 0.59607 0.2101 1.2708 0.20702 1.976-0.0028 0.64804-0.07986 1.1556-0.07986 1.1556-0.04609 0.84812-0.13042 1.3536-0.08978 1.5365 0.04014-0.0421 0.08015-0.0844 0.12-0.12666zm-2.7449 0.67747c0.03832-0.27576 0.03174-0.87228 0.03174-0.87228-0.0267-0.17248-0.02964-0.34565-0.0073-0.52003-0.04795-0.22884-0.0018-0.56764 0.11311-1.0338-0.0083-0.027 8e-3 -0.20351 0.02857-0.53282-0.0097-0.0272 0.0076-0.42922-0.05664-1.221 0.02474-0.18801-8e-3 -0.60793-8e-3 -0.60793-0.02748-0.05531-0.04024-0.15958-0.04164-0.3147-0.0085-0.16867-0.03911-0.32982-0.09053-0.48314-0.04367-0.16798-0.07789-0.32903-0.10234-0.48419 0.0034-0.40161 0.0031-0.69419 0.0093-0.98491-0.01909-0.57073 0.37424-0.8614 1.1742-0.88855 0.25511 0.01077 0.68884-0.01055 0.68884-0.01055 0.48062 0.06402 0.8724 0.14363 1.1786 0.24323 0.39934 0.08733 0.70879 0.20109 0.92607 0.34298 0.20541 0.12653 0.42449 0.36355 0.62645 0.70398 0.03277 0.04527 0.74816 1.0237 1.2427 2.1783 0.54579 1.2745 0.56018 1.9009 0.56162 1.9146 0.08023 0.30766 0.13608 0.86755 0.13608 0.86755-0.0012 0.0814 0.18458 1.0352-0.11411 2.8653-0.0034 0.46597-0.07425 1.3858-0.07425 1.3858-0.02116 0.74557-0.0158 1.1558-0.01593 1.1972 0.01472 0.0265 0.02338 0.16986 0.03879 0.43581 0.01407 0.46361-0.13172 0.79263-0.46901 0.96563-0.29435 0.0699-0.50594 0.0417-0.6327-0.0811-0.05373 2e-3 -0.17075-0.057-0.34994-0.1751-0.01318-0.0694-0.06855-0.13658-0.16692-0.20108-0.08955-0.051-0.14739-0.0962-0.17349-0.1362-0.11313-0.0354-0.19184-0.24476-0.20804-0.61908-0.02728-0.0251-0.06476-0.13031-0.10863-0.31318-0.03266-0.1834-0.01526-0.33577 0.05105-0.45838-0.04741-0.11549-0.02014-0.35815 0.08555-0.73006-0.04856-0.19315-0.01236-0.49541 0.09844-0.9199 0.11062-0.42381 0.12352-0.7465 0.04455-0.9752-0.69012 0.35718-1.3987 0.56999-2.1276 0.6355-0.13831 8e-3 -0.21118 0.0369-0.21905 0.089-0.01784 0.11805-0.08812 0.3261-0.2156 0.62879-0.2218 0.73135-0.66758 2.1524-0.66758 2.1524-0.0021 0.96235-0.02367 1.4914-0.30491 1.5502-0.08309 2e-3 -0.22031 0.0312-0.40758 0.0881-0.17569 0.0563-0.34002 0.0127-0.48858-0.13199-0.26636-0.16886-0.46332-0.34477-0.58655-0.52745-0.11135-0.16961-0.16741-0.36563-0.15989-0.58697 0.0091-0.20403 0.03467-0.55074 0.12854-1.1656 0.02506-0.0256 0.04223-0.16815 0.05129-0.42541 0.02208-0.26972 0.05721-0.47769 0.10507-0.61892 0.14223-0.38681 0.37383-1.2055 0.37383-1.2055 0.04023-0.0264 0.10165-0.22135 0.16203-0.588-0.01421-0.0261-0.02216-0.091-0.02643-0.1959-0.01004-0.0784-0.02109-0.15686-0.0332-0.23547z" style="font-variant-caps:normal;font-variant-east-asian:normal;font-variant-ligatures:normal;font-variant-numeric:normal"/>
   <path d="m30.814 98.394c0.06674-0.24288 0.11148-0.76648 0.11148-0.76648 1.79e-4 -0.20891-0.03235-0.37235-0.08755-0.48717-0.02191-0.09462-0.11243-0.28469-0.11243-0.28469-0.03049-0.07291-0.07474-0.16048-0.13427-0.26178-0.06639-0.11609-0.16335-0.22175-0.28993-0.3165-0.12201-0.11088-0.23094-0.17706-0.32046-0.19779-0.08539-0.03684-0.24607-0.0891-0.48255-0.15488-0.11674 0.02347-0.41949 0.02928-0.41949 0.02928-0.42528-0.04128-0.7163 0.03918-0.88303 0.23605 0.17554 0.29852 0.51957 1.0307 0.65386 2.0247 0.11479 0.51128 0.12722 1.4804 0.12722 1.4804-3e-3 0.27081-0.08904 0.76814-0.08904 0.76814 0.08372-0.0104 0.30376-0.11387 0.653-0.31017 0.09864-0.0816 0.2529-0.28326 0.2529-0.28326 0.04754-0.0198 0.19967-0.19229 0.43084-0.5192 0.05742-0.03515 0.11904-0.11403 0.17998-0.23579 0.0664-0.07931 0.15076-0.2768 0.15076-0.2768 0.03755 0.01008 0.09557-0.0686 0.16637-0.23665 0.03167-0.06909 0.06245-0.13825 0.09234-0.20747zm-2.8785 5.8635c-0.04363 0.18153-0.1543 0.50726-0.1543 0.50726-0.0022 0.12423-0.07156 0.30929-0.20706 0.55855-0.13541 0.24909-0.20839 0.43793-0.22086 0.56662-0.0871 0.24745-0.13049 0.39606-0.13393 0.4388 0.10096-8e-3 0.27121-0.0782 0.51389-0.21217 0.25384-0.13483 0.41256-0.21207 0.47401-0.23129 0.06155-0.0192 0.15535-0.0841 0.28276-0.19482 0.35004-0.21413 0.72661-0.46012 1.1248-0.73454 0.19433-0.15056 0.56365-0.49351 0.56365-0.49351 0.52958-0.54777 0.87187-0.91469 1.0857-1.1652 0.08673-0.11884 0.23496-0.39584 0.23496-0.39584 0.28085-0.41257 0.25485-0.7786-0.08712-1.0895-0.04738-0.16057-0.21022-0.25489-0.48446-0.28118 0.0031 0.0143-0.01723 2e-3 -0.01723 2e-3 -0.37036-0.0987-0.59799-0.12778-0.67317-0.092-0.25886 0.11162-0.81062 0.29692-0.81062 0.29692-0.15791 0.1-0.296 0.1567-0.4126 0.17032-0.10538 0.0123-0.20726-0.0368-0.31109-0.1465-0.02402 0.20682-0.11758 0.58215-0.11758 0.58215-0.14999 0.27395-0.24827 0.53381-0.29298 0.78122-0.0336 0.24959-0.1471 0.61885-0.35688 1.133l2.5e-5 -4e-5zm-0.52339 3.9102c-0.04065 0.0185-0.14705 6e-3 -0.14705 6e-3 -0.11533 0.0366-0.32193 0.0213-0.62372-0.0426-0.53055-0.0996-0.93555-0.32423-1.1909-0.65882-0.07066-0.1127-0.14749-0.25983-0.22833-0.4396-0.06554-0.19448-0.08557-0.32632-0.0638-0.3977 0.03124-0.0644 0.08732-0.27835 0.08732-0.27835 0.04785-0.11473 0.07987-0.22774 0.09548-0.3388 0.02602-0.0425 0.05769-0.16919 0.05769-0.16919-0.0049-0.0816 0.05174-0.22942 0.17151-0.44327 0.12496-0.22827 0.20104-0.40936 0.22745-0.54622 0.0413-0.17884 0.09184-0.36899 0.15108-0.57525-0.0161-0.0519 0.05336-0.20422 0.20341-0.45978 0.69167-1.8657 0.72897-2.8878 0.73296-3.0675 0.04848-0.19972 0.08046-0.63585 0.08046-0.63585-0.08848-0.41048-0.13665-0.77338-0.11678-1.0956-0.01747-0.14049-0.11961-0.46529-0.11961-0.46529-0.07054-0.19621-0.16146-0.77316-0.57928-1.7558-0.14673-0.16563-0.45083-0.36573-0.92636-0.59752-0.11201-0.06325-0.24741-0.162-0.41267-0.29755-0.17681-0.15136-0.32226-0.39852-0.47335-0.75309-0.01609-0.13121 0.05556-0.35042 0.18588-0.67749-0.05334-0.09398 0.13733-0.31575 0.52705-0.67884 0.08729-0.0665 0.16923-0.2388 0.16923-0.2388 0.09372-0.10352 0.40039-0.193 0.92088-0.25984 0.32392 7.32e-4 0.61815 0.03486 0.88041 0.10118 1.0046 0.2899 1.9908 0.65224 2.906 1.08 0.23147 0.07317 0.43677 0.18322 0.6091 0.32825 0.35027 0.15725 0.76558 0.43487 1.1791 0.82091 0.41017 0.36397 0.63661 0.6124 0.70228 0.70701 0.27267 0.46836 0.40891 1.0369 0.35109 1.7013-0.02121 0.33017-0.29812 1.0717-1.0669 2.1633 0.11051 0.0302 0.29808 0.13108 0.54471 0.30263 0.02666 0.0536 0.13237 0.14043 0.31306 0.26382 0.01543 0.0404 0.03494 0.0873 0.05835 0.141 0.03473 0.0525 0.05893 0.0992 0.07292 0.1397 0.04715 0.0455 0.11372 0.0946 0.11372 0.0946 0.04268 0.11574 0.09637 0.30482 0.09637 0.30482 0.07056 0.0994 0.18304 0.25677 0.18304 0.25677 0.07475 0.13345 0.12058 0.28344 0.13669 0.44996 0.10865 0.18759 0.14556 0.34709 0.11455 0.47552-0.02639 0.14988-0.10445 0.40889-0.10445 0.40889-0.07268 0.17591-0.40831 0.67428-1.0851 1.6197-0.24671 0.33653-0.50072 0.60492-0.75845 0.79931-0.12839 0.15779-0.40174 0.42899-0.40174 0.42899-0.11119 0.12753-0.29386 0.28929-0.54721 0.48764-0.24184 0.19744-0.45026 0.38625-0.6256 0.56669-0.06489 0.0344-0.17642 0.11075-0.33033 0.22802-0.14339 0.11716-0.35251 0.26089-0.62525 0.43229-0.26194 0.17104-0.42974 0.27332-0.51465 0.30929-0.24121 0.10637-0.55067 0.19134-0.93038 0.25504l4.2e-5 -2.2e-4z" style="font-variant-caps:normal;font-variant-east-asian:normal;font-variant-ligatures:normal;font-variant-numeric:normal"/>
   <path d="m36.823 99.96c-0.03877 0.04298-0.09686 0.31888-0.22519 0.8291-0.12606 0.50117-0.23959 0.80475-0.27124 0.85329-0.09333 0.40831-0.348 1.2056-0.348 1.2056-0.08867 0.4393-0.14364 0.74303-0.15589 0.93987-0.01176 0.18873-0.02135 0.31214-0.02588 0.35434-0.0048 0.0445-0.01231 0.0966-0.02264 0.15643-0.0049 0.0447 0.01625 0.14082 0.06301 0.28995 0.04677 0.14909 0.07904 0.2922 0.09691 0.42893 0.01123-2.3e-4 0.03982 0.0449 0.0854 0.13584 0.11973 0.19711 0.25463 0.25713 0.40682 0.17778 0.01138-1.6e-4 0.08713-0.0398 0.22767-0.11835 0.0166-0.0462 0.10081-0.0932 0.25249-0.14051 0.01128-9e-5 0.06708-0.0618 0.16697-0.18421 0.02253-1.5e-4 0.0866-0.0539 0.19184-0.1603 0.01613-0.0454 0.07136-0.10608 0.16535-0.18154 0.02332-0.0212 0.22403-0.20377 0.24735-0.22502-7.85e-4 -0.03 0.1052-0.1719 0.31396-0.42232 0.04468 2.5e-4 0.27091-0.28965 0.64784-0.84806 0.43293-0.62987 0.63096-0.94697 0.63874-0.97521 0.01221-0.0443 0.07765-0.18072 0.19371-0.41946 0.11794-0.24926 0.19094-0.42491 0.22316-0.52086 0.04665-0.11085 0.08724-0.20018 0.12326-0.26896 0.03516-0.0672 0.0804-0.22971 0.12292-0.47829 0.02397-0.0128 0.1278-0.32298 0.2377-0.9318 0.03179-0.2215 0.03979-0.71113 0.03979-0.71113 0.01189-0.30647-0.05283-0.97174-0.05283-0.97174-0.03027-0.08661-0.05171-0.17958-0.06509-0.27918-0.01337-0.09954-0.03697-0.17901-0.0687-0.23769-0.02152-0.06033-0.04703-0.1493-0.08577-0.28187-0.17721-0.58984-0.43109-0.99477-0.63514-1.1782-0.02275-0.05767-0.16813-0.19984-0.45101-0.41992-0.04521-0.0021-0.19632-0.05608-0.19632-0.05608-0.20483-0.04228-0.44816 0.10415-0.77274 0.44329-0.02316-8.14e-4 -0.08254 0.08482-0.18773 0.25761-0.09432 0.17433-0.1519 0.2878-0.16717 0.34715-0.0299 0.01423-0.0701 0.07891-0.12619 0.19512-0.20486 0.37672-0.10662 1.5256-0.58735 3.3964l-2.4e-5 3e-5zm-0.11928-7.1293c0.16651 0.02659 0.41247 0.02869 0.41247 0.02869 0.27642 0.08842 0.73444 0.21444 0.73444 0.21444 0.16484 0.04369 0.37629 0.15088 0.61746 0.31829 1.3691 0.81378 2.0497 1.4155 2.2482 1.7338 0.14189 0.17991 0.24423 0.32114 0.2945 0.39196 0.05422 0.07642 0.10679 0.15256 0.15777 0.22844 0.02096 0.02433 0.0083 0.02189 0.0083 0.02189 0.01114 0.02935 0.03319 0.07353 0.06556 0.13339 0.16069 0.26777 0.36266 0.70779 0.51155 1.2911 0.17804 0.56161 0.21888 1.146 0.12886 1.7578-0.0086 0.20538-0.03189 0.36386-0.06231 0.47042-0.0022 0.15119-0.04022 0.37678-0.1247 0.67294 0.01666 0.11222-0.0403 0.28025-0.17715 0.50457-0.02861 0.1628-0.13092 0.45584-0.32442 0.87423 0.01297 0.0823-0.16378 0.47184-0.58221 1.1714-0.42474 0.7101-0.94785 1.4495-1.5911 2.2765-0.30854 0.42296-0.73183 0.89581-1.2897 1.4606-0.12206 0.14623-0.36461 0.36785-0.73759 0.68615-0.44232 0.44988-0.79833 0.74668-1.0709 0.87163-0.03893 0.0178-0.12135 0.0194-0.2476 5e-3 -0.13204 3e-3 -0.20598-0.0215-0.22187-0.0723-0.14335 3e-3 -0.23143-0.0122-0.26433-0.0455-0.02185-0.0335-0.03836-0.0501-0.04941-0.0499-0.04404-0.033-0.09924-0.0656-0.16564-0.0979-0.06091-0.0155-0.12182-0.0479-0.18298-0.0969-0.06113-0.049-0.10301-0.073-0.12519-0.0725-0.02222 5.4e-4 -0.0417-7e-3 -0.05847-0.0237-0.0056-0.0166-0.04748-0.0406-0.12562-0.072-0.06828-0.0322-0.2338-0.17732-0.50672-0.43149-0.01122 3.4e-4 -0.03723-0.0725-0.0781-0.2168-0.05404-0.0704-0.17957-0.25897-0.17957-0.25897-0.07848 3e-3 -0.10546-0.11637-0.07895-0.35329-0.03444-0.093-0.04641-0.20181-0.03575-0.3261-0.12589 5e-3 -0.0677-0.45079 0.16425-1.3216 0.08455-0.38417 0.19622-0.79715 0.33817-1.3016-0.0022-0.0572 0.02206-0.15814 0.07109-0.30326 0.05439-0.25847 0.1165-0.50296 0.18582-0.73179 0.01243-0.11402 0.04561-0.26238 0.0967-0.44842 0.05092-0.18542 0.06978-0.28461 0.06221-0.2982-0.0076-0.0136 0.02774-0.1838 0.08532-0.50963 0.06876-0.32646 0.09873-0.49684 0.11222-0.51166 0.01437-0.0264 0.05105-0.16695 0.0907-0.40619 0.06549-0.35524 0.09429-1.1116 0.09429-1.1116 0.01037-0.11409-0.01567-0.38624-0.01567-0.38624 0.0053-0.27275-0.07693-0.86619-0.07693-0.86619-0.0153-0.07959-0.02377-0.21121-0.04641-0.43871 0.01556-0.03033 4e-3 -0.24263-0.09253-0.64285-0.08701-0.50564-0.182-0.80911-0.19213-0.90061-0.0059-0.10684-0.02093-0.19122-0.04201-0.25176-0.0093-0.06121-0.01365-0.12281-0.01301-0.18478 6.5e-4 -0.05876-0.01871-0.20345-0.07266-0.41691-0.0027-0.1928-0.11224-0.63276-0.11224-0.63276-0.02349-0.03111-0.03396-0.09375-0.03484-0.18908 0.01122-0.09561 0.03278-0.15155 0.06878-0.1683-0.05205-0.09422-0.0503-0.15002 0.0096-0.16706 0.05814-0.03258 0.11443-0.12141 0.15962-0.26451 0.07842-0.06421 0.10299-0.11175 0.07417-0.14345 0.04779-0.19085 0.21065-0.28596 0.50823-0.28124 0.12917 0.02656 0.30022 0.02929 0.30022 0.02929 0.29216 0.10957 0.77439 0.27773 0.77439 0.27773 0.24754-0.2046 0.40848-0.3005 0.49625-0.29543-0.01947-0.04629 0.01629-0.08955 0.10805-0.12861l-4.63e-4 -4.45e-4z" style="font-variant-caps:normal;font-variant-east-asian:normal;font-variant-ligatures:normal;font-variant-numeric:normal"/>
   <path d="m42.297 104.04c0.01958-0.10019 0.061-0.25349 0.12214-0.46318 0.06491-0.22263 0.10079-0.43158 0.10934-0.62768 0.05564-0.1286 0.15321-0.52136 0.2464-1.1274 0.1066-0.61762 0.14877-1.0386 0.15808-1.2222 0.05138-0.14482 0.1193-0.4787 0.1193-0.4787-0.0088-0.0148 0.0058-0.18407 0.02636-0.50942 0.03108-0.32383 0.06071-0.59309 0.09837-0.80598 0.01561-0.16046 3.2e-4 -0.53203 3.2e-4 -0.53203 0.02139-0.2206 2.42e-4 -0.71562 2.42e-4 -0.71562 3.29e-4 -0.10081-0.04655-0.35455-0.04655-0.35455-0.05532-0.69492-0.19619-1.1945-0.23912-1.3425-0.09666-0.27363-0.17102-0.5082-0.20943-0.70309-0.14659-0.24055-0.30672-0.65201-0.62947-1.2504-0.04838-0.12717-0.0013-0.24967 0.14381-0.36205 0.03258 0.02652 0.01827 0.0229 0.01827 0.0229 0.01431-0.03555 0.14203-0.0297 0.38432 0.02085 0.25446 0.05309 0.43258 0.11121 0.53008 0.17004 0.10342 0.04881 0.29979 0.13362 0.60888 0.26758 0.33183 0.12573 1.0974 0.98016 1.3841 2.4337 0.02398 0.09658 0.0928 0.47336 0.10129 1.0312 0.0247 0.13427 0.04808 0.41791 0.03434 0.82393 0.01371 0.14368-1.43e-4 0.37925-1.43e-4 0.37925 0.01928 0.09703 0.01618 0.20288-0.0099 0.31766-0.01527 0.10507-0.02381 0.16045-0.02465 0.1751-0.0061 0.30007-0.07347 0.84627-0.07347 0.84627-0.02804 0.24704-0.06281 0.41729-0.09581 0.50388-0.03531 0.10089-0.1432 0.5334-0.38315 1.3088-0.07312 0.0976-0.14309 0.78142-0.36995 2.1074-0.08142 0.41011-0.08581 0.68451 6e-3 0.82003 0.11488 0.16456 0.34835 0.10632 0.68958-0.16771 0.03336-0.0377 0.10037-0.16422 0.19204-0.37343 0.05325 6e-3 0.14606-0.12175 0.2671-0.37878 0.10318-0.11726 0.27637-0.3899 0.27637-0.3899 0.03709-0.0617 0.08528-0.22924 0.08528-0.22924 0.02328-0.10361 0.09667-0.23989 0.21715-0.40718 0.1226-0.17934 0.20039-0.30586 0.23533-0.3784 0.13757-0.29536 0.36568-0.91569 0.36568-0.91569 0.0041-0.0257 0.03952-0.11573 0.10496-0.27226 0.02334-0.0466 0.04326-0.1862 0.04326-0.1862 0.01108-0.076 0.0673-0.21344 0.16603-0.41324 0.0085-0.0649 0.05485-0.2199 0.13577-0.47581-0.0115-0.0804-0.01038-0.18369 0.0023-0.31061 0.02396-0.137 0.03853-0.2443 0.04489-0.32046 0.0064-0.07664 0.03573-0.1861 0.08631-0.3298 0.05044-0.14334 0.07423-0.29972 0.06929-0.46933 0.0053-0.16722 0.05447-0.34939 0.14529-0.54552-0.0052-0.37706-0.0032-0.6511 0.03164-0.82207 0.04514-0.16592 0.06634-0.27718 0.06943-0.32601 0.01226-0.06067 0.02099-0.10182 0.02774-0.12586 0.0023-0.05019 4e-3 -0.1004 0.0052-0.15061-0.0013-0.06383-0.0011-0.11385 0.0017-0.15101 0.0028-0.03694-0.01432-0.09222-0.05278-0.16571-0.02723-0.07047-0.03784-0.15476-0.03381-0.25337 0.0117-0.1088 0.0068-0.2091-0.01357-0.30112-0.01329-0.1023-0.02365-0.25268-0.046-0.45198 0.12377-0.04892 0.30459-0.19633 0.30459-0.19633 0.06013-0.0056 0.15145 0.0101 0.27365 0.04721 0.02377-0.01622 0.23562 0.04172 0.63054 0.17698 0.1496 0.08128 0.33646 0.2628 0.51821 0.53316 0.21843 0.28348 0.32542 0.61605 0.30346 1.0041 0.0069 0.05143 0.01832 0.3557-0.04639 0.90118 0.02331 0.1703 0.0052 0.32865-0.05084 0.47574-0.07768 0.42768-0.18357 0.88473-0.2255 1.0716-0.04197 0.22641-0.0805 0.38304-0.10912 0.46176-0.01942 0.08293-0.02789 0.20031-0.02624 0.35144-0.04743 0.27084-0.17296 0.76358-0.17296 0.76358-0.0015 0.0846-0.05695 0.39411-0.1706 0.91334-0.16602 0.81788-0.23467 1.537-0.20795 2.1294-0.0025 0.0122-0.0035 0.0434-0.0035 0.0939 0.0026 0.038 0.0013 0.0948-0.0045 0.16947-0.0031 0.0626-0.0037 0.21374-0.01168 0.45409 0.0055 0.22969-0.01741 0.41779-0.06467 0.56658-0.04718 0.14855-0.06878 0.28848-0.06319 0.41873 0.01954 0.12384 0.02124 0.19688 0.02124 0.19688-0.0069 0.0456-0.03882 0.0938-0.03882 0.0938 0.01343 0.71239-0.38112 1.1225-0.94162 1.2282-0.26243 0.0545-0.43486 0.10231-0.5143 0.14014-0.07861 0.0519-0.19318 0.0473-0.34495-0.0145-0.14232-0.0619-0.23395-0.18478-0.2906-0.37093 0.0051-0.0273 0.01154-0.0773 0.01715-0.14668 0.02819-0.11075 0.09231-0.31058 0.1677-0.59603-0.0084-0.0618 0.05467-0.2888 0.14232-0.70966-0.0178-0.0429-0.0053-0.15009 0.03052-0.32299 0.0356-0.17183 0.03575-0.30017 0.0061-0.38372-0.1185 0.17414-0.20981 0.29591-0.26346 0.35778-0.13751 0.13935-0.29485 0.36448-0.51126 0.70033-0.17047 0.219-0.5713 0.64263-0.5713 0.64263-0.47889 0.55075-0.9318 0.81582-1.243 0.76321-0.0025-0.0151-0.106-0.0256-0.31116-0.0312-0.01084-0.0606-0.13866-0.10983-0.38401-0.14721-0.07146-0.0324-0.20568-0.0516-0.40194-0.0568 6.25e-4 -0.0458-0.04026-0.13153-0.12648-0.25636-0.13346-0.096-0.22085-0.17516-0.26049-0.23762-0.09923-0.0798-0.14707-0.2266-0.15056-0.43905-0.11186-4e-3 -0.14141-0.17287-0.10772-0.5016 0.01113-0.0294 0.0093-0.17209-0.01337-0.42513 0.03499-0.19181 0.07527-0.61299 0.07527-0.61299-0.01957-0.0462-0.0099-0.25485 0.01522-0.62876 0 0-4.7e-5 -5e-5 -4.7e-5 -5e-5z" style="font-variant-caps:normal;font-variant-east-asian:normal;font-variant-ligatures:normal;font-variant-numeric:normal"/>
   <path d="m52.444 102.03c0.04352-0.26343 0.06931-0.41702 0.06946-0.47754 0.01524-0.0351 0.01893-0.11564 0.01893-0.11564 0.04484-0.12962 0.11966-0.43526 0.11966-0.43526 0.03211-0.16648 0.04984-0.29578 0.05087-0.39092 0.0181-0.0417 0.04123-0.12923 0.07046-0.26316 0.02744-0.0388 0.04992-0.0974 0.06741-0.1756 0.02916-0.13047 0.10676-0.36505 0.28842-0.95546-0.21835-0.01373-0.36299-0.02015-0.43357-0.01969-0.18178-0.0367-0.578-0.15838-0.578-0.15838-0.27462 6e-3 -0.46925-0.0089-0.5861-0.04736-0.28495 0.0049-0.45043-0.0048-0.49836-0.03272-0.24769-0.05519-0.40807-0.13063-0.48167-0.22882-0.09665-0.19351-0.1365-0.43543-0.13242-0.73307-0.0381-0.27423-0.05338-0.44896-0.02557-0.52719 0.1077-0.14919 0.1738-0.23039 0.20427-0.24463 0.04024-0.02315 0.13497-0.02824 0.28454-0.01453 0.14954 0.01372 0.2902-0.02351 0.4197-0.11078 0.29626-0.01771 0.85488-0.09515 0.85488-0.09515 0.05492 0.02369 0.37666 0.06171 0.37666 0.06171 0.26093 0.03341 0.4553 0.03853 0.5825 0.01483 0.05581 0.01966 0.17644 0.04503 0.36242 0.07655 0.18582 0.0315 0.30136 0.06103 0.34584 0.08802 0.04404 0.01554 0.11938 0.0081 0.22622-0.02171 0.3663 0.10728 1.0452 0.26603 1.0452 0.26603 0.01046 0.01474 0.06932 0.04638 0.17522 0.09421 0.15856 0.07722 0.35418 0.11664 0.5925 0.12022 0.16554 0.07838 0.30344 0.13026 0.41787 0.1574 0.04802 0.03812 0.20602 0.05764 0.47464 0.05761 0.06078 0.01977 0.11717 0.03254 0.16953 0.03849 0.05507-0.0043 0.17572 0.0024 0.36483 0.01843 0.10962 0.03437 0.19312 0.08693 0.24704 0.15745 0.0514 0.0049 0.09714 0.051 0.131 0.13736 0.04339 0.08925 0.07394 0.20218 0.08525 0.3385 0.04066 0.27785 0.03867 0.43548 0.04222 0.48142-0.0044 0.23431-0.06781 0.46074-0.17034 0.68155-0.01794 0.08522-0.04452 0.14068-0.07737 0.16579-0.03293 0.02516-0.10018 0.0364-0.20193 0.03211-0.01413-0.04897-0.05113-0.07594-0.11056-0.08079-0.05583-0.01525-0.23059-0.03441-0.54566-0.06958-0.06138-0.01176-0.19774-0.07677-0.19774-0.07677-0.22524 0.0013-0.48891-0.04555-0.80462-0.14811-0.2581-0.06005-0.82468-0.23827-0.82468-0.23827-0.02647 0.02168-0.09643 0.02116-0.09643 0.02116-0.33501 0.83116-0.48142 1.2329-0.54094 1.5238-0.07178 0.41654-0.10241 0.6298-0.12314 0.6461-0.01725 0.11945-0.06441 0.3158-0.06441 0.3158-0.13087 0.91629-0.09775 1.7106-0.08034 2.1562 0.01898 0.48607 0.02911 0.74489 0.03246 0.78147 0.01458 0.0712 0.02107 0.22276 0.0059 0.4334 0.0094 0.43037-0.16037 1.2464-0.16037 1.2464 0.02633 0.0756 0.01138 0.19739-0.06708 0.35798-0.10618 0.21128-0.25748 0.33412-0.39523 0.36506-0.24631 0.0553-0.45688 0.10966-0.6307 0.16287-0.16489 0.0428-0.36174 0.0349-0.59149-0.027 0.02612-0.0318-0.03972-0.0928-0.20543-0.18594 0.0078-0.0108 0.0071-0.0961-0.02564-0.25924-0.0055-0.0579 0.01987-0.13547 0.07094-0.2331 0.08593-0.29313 0.18367-0.58936 0.28983-1.0482 0.013-0.31568 0.03126-0.53398 0.0895-0.68357-8e-3 -0.0124-0.01578-0.20074-0.04146-0.56792 0.02526-0.1864 0.04263-0.59978 0.04263-0.59978 0.0056-0.0865-0.01128-0.17795-0.05003-0.27481 0.01559-0.15495 0.02371-0.5081 0.02371-0.5081 0.02587-0.31941 0.05668-0.62766 0.09872-0.94931z" style="font-variant-caps:normal;font-variant-east-asian:normal;font-variant-ligatures:normal;font-variant-numeric:normal"/>
  </g>
 </g>
</svg>
