<?xml version="1.0" encoding="UTF-8"?>
<svg width="35.801mm" height="11.921mm" version="1.1" viewBox="0 0 35.801 11.921" xmlns="http://www.w3.org/2000/svg" xmlns:cc="http://creativecommons.org/ns#" xmlns:dc="http://purl.org/dc/elements/1.1/" xmlns:rdf="http://www.w3.org/1999/02/22-rdf-syntax-ns#">
 <metadata>
  <rdf:RDF>
   <cc:Work rdf:about="">
    <dc:format>image/svg+xml</dc:format>
    <dc:type rdf:resource="http://purl.org/dc/dcmitype/StillImage"/>
    <dc:title/>
   </cc:Work>
  </rdf:RDF>
 </metadata>
 <g transform="translate(-48.144 -103.94)">
  <g transform="matrix(.91052 0 0 .86027 5.9737 15.421)" style="shape-inside:url(#rect258);white-space:pre" aria-label="CONTACT">
   <path d="m50.634 106.54c0.10583-0.0661 0.30932-0.10411 0.61168-0.12033 0.3041-0.0258 0.51553-0.0169 0.63799 0.033 0.08893 0.0392 0.24303 0.0802 0.24303 0.0802 0.18546 0.17266 0.29188 0.25705 0.31958 0.2531 0.23913 0.26935 0.34206 0.65378 0.30833 1.1537 0.0097 0.20803-0.01252 0.40153-0.06632 0.57976-0.0087 0.0582-0.04146 0.1862-0.09818 0.38356-0.04359 0.12849-0.15361 0.34672-0.15361 0.34672-0.04608 0.0999-0.16104 0.26097-0.16104 0.26097-0.04275 0.0143-0.06763 0.0218-0.07449 0.0226-0.26338 0.0861-0.46161 0.11541-0.59374 0.0908-0.13082-0.0343-0.23598-0.12812-0.31539-0.28065-0.01217-0.0553-0.01469-0.10686-0.0075-0.15459 0.01406-0.0484 0.03086-0.0923 0.05041-0.13189 0.0365-0.0655 0.0862-0.2345 0.0862-0.2345 0.13574-0.31513 0.16736-0.57332 0.09483-0.77211 0.0043-0.0287-0.02252-0.0775-0.08044-0.14628-0.0579-0.0689-0.10487-0.12015-0.14078-0.1538-0.02902-0.0344-0.09412-0.0321-0.1955 6e-3 -0.18059 0.11202-0.36626 0.41494-0.55684 0.90723-0.1759 0.25737-0.32171 0.58535-0.43717 0.98549-0.19028 0.71357-0.29262 1.1163-0.30684 1.2106-0.01127 0.11689-0.05739 0.31189-0.05739 0.31189 0.0015 0.0554-0.0192 0.12745-0.0192 0.12745-0.01681 0.0195-0.07173 0.42933-0.16441 1.231-1.08e-4 0.047 0.0039 0.11257 0.01212 0.1969 0.0054 0.10315 0.01127 0.27231 0.01773 0.50746 0.03766 0.11571 0.08931 0.30838 0.08931 0.30838 0.0306 0.0275 0.06316 0.11143 0.0976 0.25224 0.0348-9.8e-4 0.05766 0.0315 0.06861 0.0975 0.03875 0.0652 0.05391 0.10274 0.04555 0.11246 0.0333 9e-3 0.08116 0.0357 0.14337 0.0815 0.16736 0.12837 0.33367 0.0956 0.49981-0.1013 0.0581-0.0689 0.13012-0.1624 0.21585-0.28067 0.09393-0.12809 0.16326-0.22739 0.2074-0.29635 0.05254-0.0791 0.12494-0.15456 0.21714-0.22659 0.26169-0.2537 0.45528-0.25778 0.58043-4e-3 0.02268 0.0761-0.0018 0.26653-0.07348 0.57132-0.06338 0.29447-0.20404 0.60837-0.42185 0.9358-0.02223 0.0589-0.08101 0.15821-0.17618 0.29646-0.09378 0.12858-0.18742 0.23226-0.28098 0.31128-0.02375 0.0682-0.29 0.12086-0.8046 0.15356-0.02765 2.2e-4 -0.08144-9e-3 -0.16172-0.0275-0.08052 0.0293-0.18233 0.0155-0.30608-0.0408-0.11679-0.0562-0.18248-0.0842-0.19646-0.0841-0.03535-5.2e-4 -0.13005-0.0417-0.13005-0.0417-0.05605 3.6e-4 -0.10863-0.023-0.15772-0.0698-0.04425-0.0422-0.2047-0.19639-0.24896-0.23863-0.10879-0.12181-0.1926-0.21926-0.25233-0.29418-0.17864-0.22408-0.29255-0.48065-0.34062-0.77057-0.01845-0.0654-0.02258-0.15426-0.01235-0.26658 0.01173-0.12169 0.0112-0.21055-0.0015-0.26657-0.0456-0.0746-0.05532-0.19603-0.02918-0.3645 0.03329-0.16854 0.05807-0.3744 0.07446-0.61756 0.01744-0.11231 0.03117-0.17786 0.0412-0.19665-0.02837-0.0464-0.03026-0.12586-0.0057-0.23824 0.02603-0.12175 0.05502-0.28553 0.08701-0.49143 0.03005-0.0564 0.06256-0.22027 0.09761-0.49162 0.04359-0.28074 0.08338-0.49148 0.11931-0.63209-0.01523-0.0838 1.5e-4 -0.20531 0.04605-0.36485 0.03328-0.1274 0.07595-0.42139 0.07595-0.42139 0.0332-0.16866 0.0925-0.34702 0.17776-0.5357 0.02002-0.0845 0.04928-0.18314 0.08771-0.29607 0.0401-0.12301 0.16784-0.36283 0.38354-0.72629 0.01154-0.0752 0.07832-0.17079 0.20023-0.28861 0.0057-0.0375 0.04225-0.0951 0.1095-0.17331 0.06721-0.0781 0.14428-0.17574 0.23099-0.29291 0.12172-0.16602 0.2473-0.29134 0.37676-0.37609 0.12946-0.0848 0.25402-0.18416 0.37358-0.29798l4.8e-5 -3.9e-4z" style="font-variant-caps:normal;font-variant-east-asian:normal;font-variant-ligatures:normal;font-variant-numeric:normal"/>
   <path d="m54.118 111.66c-0.05004 0.46249-0.17306 1.3626-0.17306 1.3626 0.02219 0.57087 0.11931 0.97464 0.29134 1.202 0.02577 0.0502 0.09435 0.10318 0.20558 0.1596 0.08637 0.0413 0.23711 0.0812 0.23711 0.0812 0.03353-2e-3 0.07362-0.0249 0.12032-0.0695 0.05019-0.0238 0.08779-0.0522 0.11277-0.0852 0.06154-0.0981 0.1215-0.18585 0.17989-0.26316 0.0584-0.0773 0.08423-0.11579 0.07751-0.11533 0.03337-0.0442 0.05399-0.11384 0.06174-0.2086 0.02505-0.0331 0.06246-0.10385 0.1123-0.21214 0.16421-0.59708 0.29616-0.97964 0.39675-1.1544 0.09784-0.46292 0.1563-0.75299 0.17568-0.87785 0.06745-0.43452 0.07527-0.95655 0.02172-1.5576-0.06018-0.13169-0.02989-0.57811 0.08937-1.3386-0.01772-0.14596-0.02064-0.27907-0.0087-0.39967 0.01355-0.13072 0.01044-0.2639-0.0094-0.39933-0.01138-0.14662-0.02381-0.2437-0.03696-0.29103-0.01316-0.0473-0.02017-0.0908-0.02099-0.13031 0.0076-0.0507 0.0029-0.10938-0.01432-0.17589-0.07489-0.22535-0.26461-0.0626-0.56966 0.47709-0.07431 0.17343-0.24554 0.47953-0.24554 0.47953-0.0031 0.02-0.0661 0.21099-0.18919 0.57117-0.19693 0.57624-0.30045 0.89759-0.31124 0.96752-0.0024 0.0592-0.07183 0.26885-0.20772 0.62914-0.01145 0.0309-0.02559 0.10128-0.04239 0.21125-0.01 0.10924-0.04735 0.26604-0.11192 0.47043-0.05622 0.19355-0.10318 0.41562-0.14096 0.66705l-2.1e-5 2e-5zm-1.0037-0.96262c0.08617-0.35343 0.23648-1.0982 0.23648-1.0982 0.0089-0.0589 0.03604-0.14888 0.08142-0.27021 0.05226-0.1222 0.08411-0.19865 0.09546-0.22901 3e-3 -0.0197 0.01509-0.055 0.03632-0.10592 0.04026-0.26527 0.12691-0.50315 0.26025-0.71516 0.23073-0.52915 0.42417-0.97229 0.53802-1.2286 0.1209-0.27215 0.24187-0.50266 0.3629-0.69025 0.01401-0.0515 0.09805-0.14434 0.25217-0.28063 0.31528-0.27387 0.59684-0.43773 0.84738-0.48539 0.2504-0.0476 0.48296-0.0368 0.69818 0.0345 0.07393 6e-3 0.16491 0.0656 0.27249 0.17778 0.11463 0.11109 0.18126 0.17017 0.20091 0.17688 0.10454 0.0829 0.19637 0.28535 0.27268 0.6063 0.08473 0.30919 0.1178 0.54143 0.10122 0.69486-0.0096 0.15268-0.0057 0.39329 0.01051 0.72262 0.02479 0.31772 0.02334 0.55995-0.0031 0.72452-0.02483 0.15445-0.04561 0.38899-0.06266 0.70439-0.01012 0.31449-0.03483 0.57189-0.0736 0.77007-0.27762 1.468-0.57234 2.5787-0.88106 3.274-0.11484 0.479-0.2403 0.79023-0.37519 0.92798-0.01161 0.0917-0.05627 0.23071-0.05627 0.23071-0.02744 0.13177-0.0912 0.2822-0.19105 0.45031-0.09321 0.1679-0.20026 0.29769-0.32098 0.38894-0.0253 0.0337-0.16647 0.0874-0.42286 0.15883-0.3688 0.11748-0.61124 0.17483-0.72324 0.17675-0.15826 0.0776-0.34075 0.0632-0.55049-0.0386-0.20321-0.0906-0.32484-0.14102-0.3551-0.1504-0.03347 6.2e-4 -0.09767-0.0553-0.19402-0.16643-0.09121-0.10089-0.14905-0.18084-0.17332-0.24144-0.08869-0.11996-0.13803-0.21427-0.14757-0.28483-0.01851-0.12731-0.07808-0.41992-0.07808-0.41992-0.06818-0.12742-0.10154-0.31059-0.10007-0.54895 0.0029-0.24831-0.0076-0.40572-0.03127-0.47322-0.01784-0.10739-0.03163-0.21964-0.04134-0.33677 0.01697-0.0699 0.03851-0.19406 0.06467-0.37225 0.01485-0.0362 0.02179-0.14839 0.02179-0.14839-0.0054-0.14622 0.02244-0.28973 0.08368-0.43141 0.017-0.0697 0.03278-0.15386 0.04736-0.25243 0.02275-0.10858 0.05579-0.26322 0.09861-0.46092 0.01713-0.051 0.02856-0.19188 0.02856-0.19188 0.10546-0.30128 0.16236-0.50089 0.17027-0.59842l-2.5e-5 1.5e-4z" style="font-variant-caps:normal;font-variant-east-asian:normal;font-variant-ligatures:normal;font-variant-numeric:normal"/>
   <path d="m58.665 107.36c0.21291-0.79579 0.36356-1.2719 0.46551-1.4127 0.0015-0.0107 0.01708-0.0495 0.0468-0.11676 0.10746-0.23596 0.1637-0.35595 0.17074-0.35706 7e-3 -1e-3 0.05972-0.0619 0.15749-0.18333 0.07932-0.13972 0.16264-0.2331 0.25101-0.27916 0.23622-0.0694 0.35676-0.093 0.36132-0.0721 0.0058 0.01 0.06863 6e-3 0.18861-0.0122 0.11542-0.0388 0.19307-0.0501 0.233-0.0343 0.0399 0.0159 0.08629 0.0362 0.1391 0.0611 0.06113 0.013 0.13165 0.0356 0.21155 0.0679 0.0799 0.0323 0.13442 0.0737 0.16339 0.12391 0.03029 0.0391 0.04442 0.18868 0.03957 0.44531 0.0023 0.25568 0.01265 0.40719 0.03375 0.45744-0.01824 0.2354-0.02707 0.36546-0.0245 0.3976 0.0025 0.0312 0.0011 0.0891-0.0043 0.17336-0.01555 0.20092-0.04005 0.47952-0.07566 0.8366-0.06073 0.9027-0.12212 1.5012-0.15581 1.6979 0.04777 0.0888 0.06513 0.19137 0.05203 0.30778-0.0191 0.23237-0.05258 0.58657-0.10224 1.0705 7e-3 -6.9e-4 0.0037 0.15896-0.01126 0.48287-0.01309 0.31343-0.02605 0.50604-0.03773 0.57262 0.02436 0.0196 0.03291 0.0898 0.02548 0.21128 0.02318 0.18491 0.06482 0.20377 0.12594 0.0549 0.04603-0.14474 0.18589-0.5588 0.4131-1.2107 0.04625-0.26135 0.08693-0.39263 0.12267-0.39598 0.02142-2e-3 0.03652-0.0673 0.04504-0.19546 0.04853-0.19546 0.11825-0.39202 0.20928-0.58991 0.14931-0.32958 0.28009-0.65548 0.39156-0.97875 0.0054-0.0735 0.02238-0.15329 0.05096-0.23931 0.13069-0.31462 0.22119-0.58805 0.27252-0.82269 0.01124-0.11586 0.03495-0.22257 0.07121-0.32009 0.03787-0.10807 0.05908-0.17834 0.06386-0.21017 0.05059-0.15207 0.12629-0.50108 0.12629-0.50108 0.01982-0.14035 0.06578-0.34352 0.13662-0.61879 0.07212-0.28572 0.12822-0.46932 0.1731-0.55009 0.02691-0.11124 0.04438-0.20595 0.05271-0.28355 0.04286-0.0699 0.07839-0.13925 0.1066-0.20823 0.03535-0.0696 0.06994-0.1339 0.10386-0.19274 0.05946-0.25108 0.22212-0.31265 0.49413-0.17675 0.09998 0.0707 0.1628 0.12205 0.18825 0.15364 0.02547 0.0316 0.04837 0.0914 0.06835 0.17892 0.07792 0.14996 0.10675 0.28573 0.08656 0.4076-0.01799-0.0317-0.02805-3e-3 -0.03051 0.0841-0.0024 0.0221-0.0018 0.0493 0.0017 0.0817 0.02865-2e-3 0.03179 0.0688 8e-3 0.2112-0.02246 0.13131-0.04892 0.23003-0.07858 0.2964-0.02251 0.066-0.04778 0.15334-0.07626 0.26207-0.0028 0.0212-0.02848 0.10911-0.0777 0.26073-0.04788 0.14126-0.08263 0.2864-0.10426 0.43538-0.02004 0.13803-0.13119 0.48303-0.34175 1.031-0.04486 0.0556-0.11988 0.25435-0.22808 0.59738-0.10075 0.34174-0.17419 0.5538-0.21582 0.63 0.01056 0.0622-0.04263 0.18194-0.1598 0.36033-0.0083 0.12726-0.03183 0.21918-0.07035 0.27531-0.03659 0.0453-0.07267 0.12779-0.10843 0.24775-0.02854 0.11939-0.04125 0.18984-0.03794 0.21093 0.01053 0.0206-0.01623 0.12939-0.08061 0.32807-0.05723 0.19829-0.09725 0.32087-0.11963 0.36604-0.02558 0.0238-0.04535 0.0742-0.05939 0.15137-0.01406 0.0773-0.06976 0.26649-0.16781 0.57236-0.09615 0.29509-0.15913 0.4679-0.18886 0.51512 0.0039 0.0556-0.05615 0.24998-0.18086 0.58952-0.12204 0.32645-0.20706 0.56177-0.25112 0.691-0.11513 0.40393-0.19681 0.664-0.24469 0.77447-0.03853 0.0977-0.0915 0.16066-0.15878 0.1886 0.0066-0.0363-0.03801-0.0574-0.13363-0.0633-0.08857-6e-3 -0.15833-2e-3 -0.20923 0.0129-0.04181 3e-3 -0.08598-6.2e-4 -0.13254-0.01-0.03961-9e-3 -0.08268-0.0185-0.1292-0.0274-0.04439-0.0208-0.08532-0.0418-0.1228-0.0628-0.0305-0.0216-0.05861-0.0374-0.08427-0.0474-0.01663-0.0224-0.02044-0.0397-0.01141-0.052-0.02959-0.0107-0.10935-0.0802-0.10935-0.0802-0.01033 0.0589-0.10505 0.0709-0.28368 0.0365-0.08996 6e-3 -0.14914-0.0654-0.1784-0.21269-0.02455-0.0556-0.03032-0.14115-0.01741-0.25598-0.04576 0.0263-0.0771-0.16611-0.09787-0.56742-0.01884-0.41279-0.02513-0.73787-0.01688-0.98977 0.01706-0.2622 0.02246-0.45626 0.01667-0.58413 0.0012-0.12869 0.01341-0.32213 0.03632-0.57856 0.02991-0.25698 0.03426-0.40429 0.01338-0.44398 0.02134-0.0443 0.03577-0.10882 0.04323-0.19339 0.0075-0.0846 0.04795-0.61781 0.11115-1.5829 0.03315-0.19965 0.04593-0.29893 0.03886-0.29805-0.04249 5e-3 -0.05331-0.0551-0.03277-0.18107 0.0152-0.0542 0.02262-0.20337 0.02262-0.20337-0.03313 0.0762-0.07206 0.20961-0.11723 0.40024-0.0538 0.24315-0.12309 0.4932-0.20766 0.75074-0.0828 0.24702-0.11466 0.3748-0.09529 0.38283-0.07792 0.37849-0.25844 1.1058-0.25844 1.1058-0.03948 0.23479-0.09202 0.4251-0.15729 0.56949 7e-3 -7.5e-4 0.0096 4e-3 0.0078 0.015-9e-3 0.0538-0.0286 0.12997-0.05878 0.22871-0.02311 0.0976-0.07621 0.37429-0.15948 0.83513-0.08173 0.4514-0.15727 0.84693-0.22712 1.1865-0.06974 0.339-0.10648 0.53947-0.10914 0.59589-7.71e-4 0.0452-0.02684 0.12038-0.07819 0.22586-0.01916 0.11465-0.07213 0.20924-0.1585 0.28284-0.12733 0.15615-0.24204 0.16186-0.34636 0.0208-0.10574-0.0502-0.17582-0.074-0.20961-0.0719-0.02711 2e-3 -0.05233-8e-3 -0.07571-0.0291-0.04066 3e-3 -0.09388 1.6e-4 -0.15973-7e-3 -0.0037 0.0226-0.02949-4e-3 -0.07762-0.0788-0.01354 8.6e-4 -0.01208-0.0493 0.0043-0.15014 0.01815-0.11203 0.01357-0.16685-0.01356-0.16496-0.02035 1e-3 -0.03661 0.0191-0.04879 0.0531 0.01701-0.0464 0.0296-0.18377 0.0296-0.18377 0.03429-0.0464 0.04506-0.11315 0.03209-0.19971 0.02966-0.1462 0.06657-0.47853 0.06657-0.47853-0.0082-0.075 0.0026-0.2056 0.03213-0.39053 0.02954-0.18485 0.05283-0.2882 0.07002-0.31117 0.02032-0.067 0.03894-0.24298 0.03894-0.24298 0.03104-0.0669 0.08187-0.32123 0.15256-0.75839 0.02751-0.29588 0.09452-0.5835 0.20174-0.86478-0.0035-0.0203 0.02756-0.148 0.09323-0.38219-0.01054-0.0604 0.01266-0.20196 0.06963-0.42404 0.04197-0.15481 0.10322-0.50341 0.10322-0.50341 0.05407-0.16604 0.13941-0.5376 0.13941-0.5376 0.01361-0.0833 0.04092-0.20876 0.08191-0.37708 0.11187-0.3099 0.19709-0.64761 0.25376-1.0126l-4.8e-5 1.2e-4z" style="font-variant-caps:normal;font-variant-east-asian:normal;font-variant-ligatures:normal;font-variant-numeric:normal"/>
   <path d="m66.204 106.31c-0.48268 0.19171-0.96948 0.3429-1.4545 0.45279-0.06589 0.0184-0.22927 0.0127-0.22927 0.0127-0.08002 5e-3 -0.1845-0.0208-0.31328-0.0759-0.05199-0.0388-0.07576-0.14779-0.07262-0.32813 0.05549-0.35319 0.14496-0.6168 0.27245-0.78647 0.12727-0.16939 0.34156-0.32404 0.64221-0.4588 0.1915-0.0528 0.4526-0.1739 0.77792-0.36137 0.22399-0.0914 0.6407-0.31671 0.6407-0.31671 0.16756-0.0318 0.47408-0.14043 0.47408-0.14043 0.06692-0.0342 0.2123-0.0522 0.43533-0.051 0.22328 1e-3 0.38704-0.0246 0.49112-0.0797 0.10469-0.0665 0.23653-0.1096 0.39596-0.12831 0.16001-0.0301 0.31983-0.0594 0.47953-0.0877 0.06685-0.0434 0.20952-0.0205 0.42928 0.0697 0.05787 3e-3 0.17394 0.14599 0.3493 0.42304 0.02387 0.0953 0.0425 0.23459 0.0425 0.23459-0.0041 0.0768 0.0037 0.13182 0.02358 0.16554 0.0015 0.22887-0.02691 0.37746-0.08301 0.44981-0.0562 0.0725-0.16684 0.13683-0.33242 0.19466-0.06304-2e-3 -0.35398 0.0503-0.85962 0.1679-0.06575-1e-3 -0.1558 0.0238-0.27054 0.0755-0.03554-4.6e-4 -0.18207 0.0188-0.43381 0.0601-8.04e-4 0.0737-0.02926 0.17498-0.02926 0.17498 0.0054 0.0468-0.0103 0.0951-0.0103 0.0951-0.0535 0.28648-0.08349 0.46568-0.08662 0.55092-0.0017 0.0688-0.05357 0.38003-0.16783 0.90424 0.0014 0.0612-0.02093 0.13981-0.02093 0.13981-0.02268 0.052-0.04486 0.12465-0.06689 0.21814-0.01298 0.083-0.03281 0.16091-0.05942 0.23383-0.01918 0.0728-0.03566 0.15086-0.04952 0.23411-0.0064 0.0831-0.02794 0.16663-0.06458 0.25061 0.0018 0.0511-0.01891 0.10974-0.01891 0.10974-0.02539 0.14651-0.09213 0.33567-0.20172 0.57024-0.04549 0.2457-0.16544 0.70494-0.16544 0.70494-0.09049 0.47215-0.15599 0.75889-0.18544 0.83469-0.02819 0.0671-0.07983 0.30914-0.15961 0.73907-0.04953 0.29519-0.17616 0.86467-0.17616 0.86467-0.09126 0.44659-0.16055 0.6962-0.2047 0.73401-0.01748 0.1721-0.0744 0.47422-0.0744 0.47422-0.06743 0.33297-0.11615 0.50391-0.14556 0.50524-0.01552 0.14998-0.08146 0.31592-0.19754 0.49867-0.11617 0.1829-0.2412 0.30394-0.37541 0.36129-0.09934 0.042-0.31712 0.072-0.31712 0.072-0.14531 6e-3 -0.23168-0.0476-0.25982-0.16106-0.02816-0.11332-0.04082-0.21387-0.0379-0.30217 0.06462-0.80574 0.12465-1.3824 0.18507-1.7606 0.05023-0.12819 0.12786-0.4269 0.12786-0.4269-0.0054-0.046 0.0012-0.11565 0.01955-0.20858 0.01523-0.0249 0.02405-0.12169 0.02405-0.12169 0.0411-0.20799 0.08751-0.35155 0.13995-0.43326-0.0159-0.0667 0.02787-0.21557 0.13076-0.44316-0.02142-0.0766-0.01868-0.16527 0.0082-0.26575 0.03427-0.10101 0.0821-0.23485 0.14346-0.40141-0.0042-0.0542 0.0064-0.10898 0.0316-0.16441-0.0022-0.0649 0.0082-0.11937 0.03128-0.16365 0.14019-0.54443 0.21082-0.85363 0.21887-0.93814 0.01745-0.096 0.06373-0.25049 0.13793-0.46357-0.0055-0.0952 0.04944-0.34149 0.15933-0.74253 0.01406-0.0222 0.01793-0.11002 0.01793-0.11002 0.0402-0.15764 0.06662-0.32499 0.07899-0.50248 0.07-0.24764 0.17904-0.78902 0.17904-0.78902 0.0014-0.0106 0.02546-0.13154 0.06928-0.36505 0 0-0.03292 1e-3 -0.03293 1e-3z" style="font-variant-caps:normal;font-variant-east-asian:normal;font-variant-ligatures:normal;font-variant-numeric:normal"/>
   <path d="m71.889 107.82c0.0041-0.0699-0.01535-0.25361-0.01535-0.25361 0.07365-0.65521 0.04784-1.1308-0.04385-1.3991-0.01399-0.0112-0.02464-0.0171-0.03196-0.0177-0.0367-3e-3 -0.06603 0.0562-0.08939 0.17621-0.10579 0.23647-0.2129 0.5599-0.33268 0.9734-0.03446 0.0385-0.08301 0.18472-0.15285 0.44145-0.19253 0.64986-0.35975 1.0833-0.44234 1.2344-0.01195 0.09-0.06163 0.2274-0.06163 0.2274-0.09371 0.23272-0.12634 0.3868-0.09425 0.45992 0.0076-0.0412 0.17907-0.10553 0.51323-0.18821 0.33415-0.0826 0.50898-0.12619 0.52584-0.13576 0.01687-0.01 0.02944-0.0598 0.03711-0.15036 0.0153-0.0907 0.06118-0.22931 0.13568-0.4163 0.01659-9e-3 0.0107-0.0445-0.01789-0.10575-0.01958-0.0709-0.01521-0.17531 0.01176-0.3133-0.0067-0.0601-0.0025-0.14419 0.01182-0.25268 0.02176-0.10796 0.03719-0.20139 0.04674-0.28007l-1e-6 4e-5zm1.1504 0.1757c0.0081 0.0877-0.0036 0.21987-0.0036 0.21987 0.04234 0.0224 0.05251 0.0623 0.03016 0.11956-0.02238 0.0573-0.03683 0.13968-0.04407 0.2474-0.03124 0.39305-0.04317 0.69254-0.02551 0.9058-0.02019 0.11934-0.0319 0.2744-0.03673 0.4674 0.0046 0.18319 9.5e-4 0.28089-0.0086 0.29074-0.0095 0.01-0.02106 0.0504-0.03495 0.12203-2e-3 0.066-0.03014 0.15394-0.03014 0.15394-0.01972-0.13983-0.04221-0.0294-0.07382 0.3104 0.01339 0.0845 0.0094 0.21615-0.01319 0.39674-0.01408 0.16948-0.03816 0.51357-0.07243 0.97957-0.0361 0.83511-0.07024 1.3367-0.09028 1.4317-0.01764 0.0836-0.07061 0.22529-0.15936 0.43179-0.0862 0.19423-0.18395 0.33641-0.29401 0.42381-0.1703 0.0371-0.53241 0.06-0.53241 0.06-0.10596-0.049-0.2195-0.19155-0.34038-0.42456-0.06681-0.15929-0.09096-0.33597-0.0729-0.52841 0.0049-0.18999-0.0072-0.60486-0.0072-0.60486 0.0077-0.0703 0.02674-0.17522 0.05705-0.31365-0.0051-0.0116-1.31e-4 -0.0866 0.01462-0.22378 0.02779-0.057 0.03371-0.17105 0.01711-0.33993 0.02971-0.0858 0.06571-0.30113 0.06571-0.30113 0.03493-0.0551 0.04253-0.16034 0.02205-0.31394 0.02632-0.16128 0.05294-0.51918 0.05294-0.51918 0.02416-0.0424-0.0025-0.13396-0.08083-0.27356-0.08693 0.0513-0.19462 0.0921-0.32299 0.12235-0.11412 0.0135-0.36501-5e-3 -0.36501-5e-3 -0.1444-2e-3 -0.26713 3e-3 -0.36806 0.0131-0.05336-3.2e-4 -0.12352 0.21322-0.21797 0.65426-0.01509 0.0341-0.04993 0.10992-0.10719 0.23381-0.01207 0.056-0.04658 0.14558-0.10396 0.27046-0.05737 0.12484-0.09615 0.23371-0.11613 0.32573-0.01749 0.0805-0.03766 0.13854-0.06039 0.17349-0.06181 0.11398-0.17814 0.39784-0.34322 0.85454-0.1644 0.44987-0.28024 0.75711-0.34966 0.91025-0.06143 0.15202-0.08456 0.24798-0.06962 0.28554-1.96e-4 0.0381-0.02448 0.10227-0.07279 0.19319-0.04835 0.091-0.09521 0.15687-0.14077 0.197-0.08329 3e-3 -0.16751-0.027-0.25281-0.0887-0.0852-0.0615-0.1957-0.09-0.33109-0.0855-0.0927-0.0226-0.14537-0.18805-0.15831-0.4896 0.0031-0.088 0.0074-0.16305 0.01283-0.22538 0.02282-0.0382 0.05345-0.13234 0.09197-0.28106-0.03966-0.0602-0.04144-0.17674-0.0055-0.3474 0.02893-0.0689 0.065-0.25473 0.065-0.25473 0.02297-0.10846 0.06334-0.21065 0.12118-0.30666-0.0074 2e-4 0.02899-0.10154 0.10932-0.3021-0.03524-0.0458 0.06831-0.40685 0.30225-1.0498 0.03314-0.157 0.11505-0.38541 0.2437-0.68046 0.07052-0.19621 0.11159-0.32505 0.12454-0.38946 0.02699-0.0966 0.04617-0.15526 0.05795-0.17655 0.01391-0.0321 0.02886-0.0694 0.04477-0.11181 0.14577-0.31859 0.2307-0.53106 0.25948-0.6456 0.03101-0.12622 0.13657-0.37182 0.31159-0.7388 0.03277-0.0608 0.05927-0.15228 0.07869-0.27397 0.01943-0.12177 0.0454-0.21759 0.07859-0.28784 0.03317-0.0702 0.06387-0.15054 0.09185-0.24084 0.03546-0.0901 0.07868-0.18488 0.12948-0.28438-0.01845-0.031 0.0028-0.13111 0.06127-0.30112 0.0075-0.0609 0.05275-0.18471 0.13349-0.37439 0.08144-0.19876 0.12337-0.32503 0.12826-0.37523 0.01332-0.0605 0.02446-0.10075 0.03376-0.12079 0.01758-0.0298 0.03657-0.0749 0.05668-0.13521 0.02013-0.0604 0.04786-0.12557 0.08307-0.1956 0.0352-0.07 0.0546-0.1308 0.05846-0.18224 0.01126-0.0513 0.03958-0.13694 0.08449-0.25947 0.0048-0.0727 0.02178-0.16557 0.05035-0.27955 0.02319-0.0294 0.07732-0.12696 0.15776-0.29083 0.0031-0.0637 0.06959-0.16032 0.19806-0.29044 0.13549-0.12935 0.218-0.22067 0.24842-0.27254 0.19892-0.011 0.56485-0.0791 0.56485-0.0791 0.0092-0.0868 0.0552-0.21392 0.13691-0.38455 0.22527-0.14484 0.44912-0.17615 0.67764-0.0932 0.0071 8.3e-4 0.02135 8e-3 0.04265 0.0218 0.02844 0.0146 0.06044 0.0295 0.09602 0.0449 0.04272 0.0162 0.08893 0.0385 0.13869 0.0667 0.05684 0.029 0.08487 0.11028 0.08358 0.24141-6e-6 0.66634-0.06027 1.8507-0.06027 1.8507 0.0102 0.0782 0.01153 0.29375-0.0049 0.62446-0.0085 0.32545-0.0086 0.55714 0.0068 0.70628-0.02186 0.22183-0.04147 0.35484-0.05299 0.39195l-4e-6 -2.8e-4z" style="font-variant-caps:normal;font-variant-east-asian:normal;font-variant-ligatures:normal;font-variant-numeric:normal"/>
   <path d="m76.246 105.17c0.09793-0.0486 0.30065-0.0415 0.6087 0.0203 0.30737 0.0514 0.52711 0.12119 0.66036 0.20891 0.09788 0.0673 0.26253 0.15397 0.26253 0.15397 0.21852 0.23651 0.34287 0.35386 0.36981 0.35713 0.28888 0.34738 0.46108 0.77175 0.50279 1.2636 0.04159 0.21137 0.04688 0.3987 0.0161 0.56311-9.97e-4 0.0549-0.01712 0.17616-0.05092 0.35761-0.02888 0.1169-0.11768 0.30816-0.11768 0.30816-0.03643 0.0882-0.13915 0.22237-0.13915 0.22237-0.04281 5e-3 -0.06779 6e-3 -0.07484 6e-3 -0.26449 0.0267-0.46829 0.0138-0.60823-0.0388-0.13952-0.062-0.25708-0.17758-0.35473-0.34733-0.01806-0.0581-0.02587-0.11041-0.02336-0.15691 0.0096-0.0457 0.02244-0.0864 0.03847-0.12197 0.0309-0.0583 0.06287-0.21748 0.06287-0.21748 0.10331-0.28733 0.09963-0.54166-0.0039-0.76141 2.59e-4 -0.0284-0.0345-0.0844-0.1045-0.1686-0.07001-0.0843-0.12624-0.14822-0.16842-0.19144-0.03517-0.0424-0.10205-0.0552-0.20098-0.0383-0.17137 0.0762-0.31431 0.34996-0.45482 0.81665-0.15276 0.22863-0.2702 0.53622-0.36175 0.92433-0.14685 0.69471-0.25497 1.0978-0.26842 1.1936-0.0099 0.11913-0.05779 0.31668-0.05779 0.31668 0.0017 0.0581-0.02039 0.13091-0.02039 0.13091-0.01795 0.0182-0.06998 0.42924-0.20954 1.3004-0.0024 0.0517-0.0014 0.12429 0.0027 0.21871 8.2e-5 0.11501-0.0033 0.30357-0.01198 0.57072 0.033 0.13449 0.0758 0.3606 0.0758 0.3606 0.03137 0.0344 0.061 0.13394 0.08851 0.30029 0.03812 2e-3 0.06085 0.0418 0.06812 0.11953 0.03781 0.0795 0.0518 0.12469 0.04193 0.13529 0.03596 0.013 0.08659 0.0491 0.15192 0.10828 0.17587 0.16598 0.36173 0.14169 0.55737-0.0672 0.06827-0.0729 0.1531-0.17166 0.2539-0.29483 0.11073-0.13369 0.1908-0.23392 0.2429-0.30511 0.06135-0.0807 0.14392-0.15383 0.24743-0.21912 0.29422-0.238 0.50449-0.20772 0.63229 0.0863 0.02237 0.0862-0.01008 0.28753-0.09995 0.61361-0.08068 0.31706-0.24808 0.64863-0.50513 1.0054-0.02735 0.0664-0.0967 0.17458-0.2091 0.32929-0.11035 0.1432-0.21969 0.25987-0.32829 0.34859-0.02915 0.0806-0.3333 0.1246-0.91547 0.1423-0.03114-9.7e-4 -0.09136-0.0148-0.18061-0.0414-0.0919 0.0333-0.2056 0.0122-0.34071-0.0635-0.1272-0.0753-0.19831-0.11298-0.21386-0.11337-0.0394-2e-3 -0.14166-0.0573-0.14166-0.0573-0.06218-1e-3 -0.11878-0.0327-0.16966-0.0937-0.05205-0.0624-0.13518-0.16303-0.2556-0.30949-0.10895-0.15627-0.19251-0.28205-0.25049-0.37676-0.17452-0.28511-0.2727-0.60467-0.29811-0.95425-0.0139-0.0792-0.0103-0.18544 0.01042-0.31773 0.02309-0.14317 0.02991-0.24689 0.02091-0.31281-0.04259-0.0892-0.04293-0.23081-0.0025-0.42232 0.04787-0.19052 0.08869-0.42301 0.11951-0.69148 0.02475-0.1236 0.04241-0.19467 0.05397-0.21466-0.02791-0.0531-0.0261-0.14049 0.0044-0.26135 0.03219-0.12993 0.06905-0.30723 0.10672-0.52409 0.03241-0.0571 0.07113-0.23156 0.1074-0.51374 0.04554-0.29329 0.08137-0.50604 0.11507-0.65014-0.01867-0.0887-0.0066-0.21329 0.03385-0.37385 0.02886-0.12882 0.0552-0.42768 0.0552-0.42768 0.02337-0.17066 0.07139-0.34834 0.14297-0.53333 0.01321-0.0852 0.0342-0.18375 0.06246-0.29636 0.02934-0.12457 0.13592-0.35414 0.31192-0.70681 2e-3 -0.0778 0.05824-0.16918 0.16752-0.27434 5.99e-4 -0.0392 0.03011-0.0947 0.08806-0.16693 0.05786-0.0721 0.12285-0.16347 0.19405-0.27431 0.09986-0.15751 0.2087-0.26984 0.32834-0.33548 0.11949-0.0656 0.23131-0.14747 0.3353-0.24629 0 0-1.8e-5 -4.2e-4 -1.8e-5 -4.2e-4z" style="font-variant-caps:normal;font-variant-east-asian:normal;font-variant-ligatures:normal;font-variant-numeric:normal"/>
   <path d="m80.743 109.65c0.01974-0.22569 0.02537-0.36515 0.0209-0.41196 0.01072-0.0281 0.0042-0.0992 0.0042-0.0992 0.02404-0.11219 0.04269-0.37898 0.04269-0.37898 0.0038-0.14133-7.86e-4 -0.25087-0.01269-0.32748 0.0072-0.0369 0.01179-0.1123 0.01291-0.22546 0.01355-0.0364 0.02059-0.0877 0.02094-0.15394 4.01e-4 -0.0756 0.01901-0.34677 0.045-0.82182-0.14484 0.036-0.23804 0.0599-0.28521 0.0751-0.12204 0.0118-0.39848-9e-3 -0.39848-9e-3 -0.17935 0.0581-0.3111 0.0822-0.39176 0.0739-0.18842 0.0558-0.30088 0.0764-0.3349 0.0634-0.17004 5.7e-4 -0.28308-0.0306-0.33785-0.0929-0.07546-0.13025-0.11381-0.30809-0.117-0.53599-0.03019-0.20275-0.03654-0.33732-0.01744-0.40263 0.07218-0.13637 0.11722-0.21339 0.1374-0.2308 0.02651-0.0262 0.08695-0.0487 0.18116-0.0677 0.09412-0.0191 0.1837-0.0778 0.26837-0.17676 0.18909-0.0745 0.53474-0.27366 0.53474-0.27366 0.03562 0.0108 0.22842-0.0396 0.22842-0.0396 0.15828-0.0363 0.27615-0.0824 0.35398-0.13679 0.03285 2e-3 0.10562-7e-3 0.21668-0.0301 0.11134-0.0228 0.17979-0.029 0.20634-0.0173 0.0262 2e-3 0.0715-0.026 0.1357-0.0832 0.21932-4e-3 0.62264-0.0665 0.62264-0.0665 0.0066 0.0104 0.04231 0.0215 0.10688 0.033 0.09683 0.0223 0.21549-1e-3 0.35533-0.0726 0.10252 0.0205 0.18852 0.0249 0.25829 0.0137 0.03167 0.0199 0.12717-0.0116 0.28445-0.0989 0.03788-1e-3 0.07253-8e-3 0.10399-0.0192 0.03185-0.0222 0.1034-0.0554 0.2167-0.10319 0.06897-4e-3 0.12511 0.0183 0.16861 0.0671 0.0312-0.0125 0.06536 0.0161 0.10231 0.0859 0.04315 0.0693 0.08605 0.16431 0.12847 0.28518 0.09788 0.24264 0.15266 0.37977 0.17135 0.42167 0.07715 0.21184 0.12557 0.43179 0.14682 0.65993 0.02285 0.0819 0.02804 0.13909 0.01586 0.17111-0.01218 0.032-0.05391 0.0608-0.12534 0.0853-0.02938-0.04-0.06502-0.0537-0.10694-0.0414-0.04407 2e-3 -0.16822 0.034-0.38868 0.0897-0.04282 0.0101-0.15522-0.0129-0.15522-0.0129-0.14642 0.0625-0.33334 0.0923-0.56378 0.0877-0.18256 0.0203-0.58466 0.0107-0.58466 0.0107-0.0096 0.0282-0.05655 0.0416-0.05655 0.0416-0.02729 0.71763-0.04187 1.1859-0.03089 1.3961 0.02906 0.3698 0.03381 0.56426 0.02071 0.58235 0.0068 0.1113-0.0068 0.29015-0.0068 0.29015 0.01693 1.7485-0.05037 2.6985-0.0494 2.7698 0.0077 0.0721 3e-3 0.21421-0.01526 0.4264-3e-3 0.42487-0.03779 1.257-0.03779 1.257 0.03586 0.0793 0.05025 0.20285 0.04308 0.37128-0.01166 0.22104-0.0618 0.34687-0.15247 0.37647-0.15842 0.0517-0.289 0.10359-0.39041 0.15472-0.1004 0.0405-0.25211 0.0261-0.45472-0.0425 0.0034-0.0322-0.07594-0.0965-0.23752-0.19207 0.0012-0.0108-0.0378-0.0969-0.11569-0.25782-0.02305-0.0568-0.0286-0.13305-0.01677-0.22834-0.01257-0.26124 0.0092-0.59606 0.06154-1.0082-0.0064-0.29233 0.01342-0.50593 0.05857-0.64261-0.0058-0.011-0.0089-0.18641-0.01303-0.51912 0.0296-0.16943 0.05968-0.54616 0.05968-0.54616 8e-3 -0.0782-0.0013-0.15847-0.02794-0.24064 0.01981-0.13686 0.03097-0.45079 0.03097-0.45079 0.02378-0.27961 0.04361-0.55513 0.05955-0.83101z" style="font-variant-caps:normal;font-variant-east-asian:normal;font-variant-ligatures:normal;font-variant-numeric:normal"/>
  </g>
 </g>
</svg>
