<?xml version="1.0" encoding="UTF-8"?>
<svg width="27.263mm" height="82.752mm" version="1.1" viewBox="0 0 27.263 82.752" xmlns="http://www.w3.org/2000/svg" xmlns:cc="http://creativecommons.org/ns#" xmlns:dc="http://purl.org/dc/elements/1.1/" xmlns:rdf="http://www.w3.org/1999/02/22-rdf-syntax-ns#">
 <metadata>
  <rdf:RDF>
   <cc:Work rdf:about="">
    <dc:format>image/svg+xml</dc:format>
    <dc:type rdf:resource="http://purl.org/dc/dcmitype/StillImage"/>
    <dc:title/>
   </cc:Work>
  </rdf:RDF>
 </metadata>
 <g transform="translate(-312.95 -348.85)" display="none">
  <g fill-rule="evenodd" stroke-linejoin="round" stroke-width=".2">
   <path d="m381.99 412.84 12.886-5.0176v73.235l-12.886-6.2254z" points="394.87258,407.82227 394.87258,481.05714 381.98695,474.83172 381.98695,412.8399 " fill="#e9e9ff"/>
   <path d="m367.61 409.81v68.678l14.377-3.6586v-61.992z" points="367.60977,478.49027 381.98695,474.83172 381.98695,412.8399 367.60977,409.81261 " fill="#353564"/>
   <path d="m367.61 478.49 11.614 7.7842 15.649-5.2173-12.886-6.2254z" points="379.22358,486.27444 394.87258,481.05714 381.98695,474.83172 367.60977,478.49027 " fill="#afafde"/>
   <path d="m367.61 409.81 11.614-6.2901 15.649 4.2997-12.886 5.0176z" points="379.22358,403.52254 394.87258,407.82227 381.98695,412.8399 367.60977,409.81261 " fill="#4d4d9f"/>
   <path d="m379.22 403.52v82.752l15.649-5.2173v-73.235z" points="379.22358,486.27444 394.87258,481.05714 394.87258,407.82227 379.22358,403.52254 " fill="#d7d7ff"/>
   <path d="m367.61 409.81 11.614-6.2901v82.752l-11.614-7.7842z" points="379.22358,403.52254 379.22358,486.27444 367.60977,478.49027 367.60977,409.81261 " fill="#8686bf"/>
  </g>
 </g>
 <g fill-rule="evenodd" stroke-linejoin="round" stroke-width=".2">
  <path d="m14.717 12.073 11.389-4.5889v66.977l-11.389-5.6935z" points="26.106247,7.4842979 26.106247,74.461417 14.716994,68.767949 14.716994,12.073189 " fill="#e9e9ff"/>
  <path d="m2.0094 9.3046v62.809l12.708-3.3459v-56.695z" points="2.0094077,72.113881 14.716994,68.767949 14.716994,12.073189 2.0094077,9.304574 " fill="#353564"/>
  <path d="m2.0094 72.114 10.265 7.119 13.832-4.7715-11.389-5.6935z" points="12.274528,79.232916 26.106247,74.461417 14.716994,68.767949 2.0094077,72.113881 " fill="#afafde"/>
  <path d="m2.0094 9.3046 10.265-5.7526 13.832 3.9323-11.389 4.5889z" points="12.274528,3.5519684 26.106247,7.4842979 14.716994,12.073189 2.0094077,9.304574 " fill="#4d4d9f"/>
  <path d="m12.275 3.552v75.681l13.832-4.7715v-66.977z" points="12.274528,79.232916 26.106247,74.461417 26.106247,7.4842979 12.274528,3.5519684 " fill="#d7d7ff"/>
  <path d="m2.0094 9.3046 10.265-5.7526v75.681l-10.265-7.119z" points="12.274528,3.5519684 12.274528,79.232916 2.0094077,72.113881 2.0094077,9.304574 " fill="#8686bf"/>
 </g>
 <g transform="translate(-312.95 -348.85)" display="none">
  <g fill-rule="evenodd" stroke-linejoin="round" stroke-width=".2">
   <path d="m427.33 521.1 12.225 8.4649v-58.055l-12.225-2.9469z" points="439.55444,529.56596 439.55444,471.51073 427.32985,468.56383 427.32985,521.10107 " fill="#e9e9ff"/>
   <path d="m415.04 532.3v-59.877l12.29-3.8637v52.537z" points="415.04021,472.42751 427.32985,468.56383 427.32985,521.10107 415.04021,532.30485 " fill="#353564"/>
   <path d="m415.04 532.3 12.647 11.152 11.867-13.891-12.225-8.4649z" points="427.68719,543.45717 439.55444,529.56596 427.32985,521.10107 415.04021,532.30485 " fill="#4d4d9f"/>
   <path d="m415.04 472.43 12.647 3.878 11.867-4.7948-12.225-2.9469z" points="427.68719,476.30553 439.55444,471.51073 427.32985,468.56383 415.04021,472.42751 " fill="#afafde"/>
   <path d="m427.69 543.46v-67.152l11.867-4.7948v58.055z" points="427.68719,476.30553 439.55444,471.51073 439.55444,529.56596 427.68719,543.45717 " fill="#d7d7ff"/>
   <path d="m415.04 532.3 12.647 11.152v-67.152l-12.647-3.878z" points="427.68719,543.45717 427.68719,476.30553 415.04021,472.42751 415.04021,532.30485 " fill="#8686bf"/>
  </g>
 </g>
 <g transform="translate(-108.78 -109.43)" display="none">
  <g display="inline" fill-rule="evenodd" stroke-linejoin="round" stroke-width=".2">
   <path d="m120.18 162.95 11.819 7.9067v-59.027l-11.819-2.2964z" points="132.00318,170.85638 132.00318,111.82967 120.18389,109.53326 120.18389,162.94966 " fill="#e9e9ff"/>
   <path d="m108.78 174.24v-60.879l11.402-3.8224v53.416z" points="108.78198,113.35571 120.18389,109.53326 120.18389,162.94966 108.78198,174.23503 " fill="#353564"/>
   <path d="m108.78 174.24 12.286 10.517 10.935-13.895-11.819-7.9067z" points="121.068,184.75164 132.00318,170.85638 120.18389,162.94966 108.78198,174.23503 " fill="#4d4d9f"/>
   <path d="m108.78 113.36 12.286 3.1206 10.935-4.6466-11.819-2.2964z" points="121.068,116.47631 132.00318,111.82967 120.18389,109.53326 108.78198,113.35571 " fill="#afafde"/>
   <path d="m121.07 184.75v-68.275l10.935-4.6466v59.027z" points="121.068,116.47631 132.00318,111.82967 132.00318,170.85638 121.068,184.75164 " fill="#d7d7ff"/>
   <path d="m108.78 174.24 12.286 10.517v-68.275l-12.286-3.1206z" points="121.068,184.75164 121.068,116.47631 108.78198,113.35571 108.78198,174.23503 " fill="#8686bf"/>
  </g>
 </g>
 <g transform="translate(-312.95 -348.85)" display="none">
  <g display="inline" fill-rule="evenodd" stroke-linejoin="round" stroke-width=".2">
   <path d="m340.56 413.57 12.695 8.727v-65.15l-12.695-2.5346z" points="353.25293,422.29767 353.25293,357.14743 340.55802,354.61278 340.55802,413.57069 " fill="#e9e9ff"/>
   <path d="m328.31 426.03v-67.195l12.247-4.219v58.958z" points="328.3114,358.83177 340.55802,354.61278 340.55802,413.57069 328.3114,426.02682 " fill="#353564"/>
   <path d="m328.31 426.03 13.196 11.608 11.745-15.337-12.695-8.727z" points="341.50762,437.63445 353.25293,422.29767 340.55802,413.57069 328.3114,426.02682 " fill="#4d4d9f"/>
   <path d="m328.31 358.83 13.196 3.4443 11.745-5.1287-12.695-2.5346z" points="341.50762,362.27611 353.25293,357.14743 340.55802,354.61278 328.3114,358.83177 " fill="#afafde"/>
   <path d="m341.51 437.63v-75.358l11.745-5.1287v65.15z" points="341.50762,362.27611 353.25293,357.14743 353.25293,422.29767 341.50762,437.63445 " fill="#d7d7ff"/>
   <path d="m328.31 426.03 13.196 11.608v-75.358l-13.196-3.4443z" points="341.50762,437.63445 341.50762,362.27611 328.3114,358.83177 328.3114,426.02682 " fill="#8686bf"/>
  </g>
 </g>
 <g transform="translate(-312.95 -348.85)" display="none">
  <g display="inline" fill-rule="evenodd" stroke-linejoin="round" stroke-width=".2">
   <path d="m356.28 425.56 12.38 8.8899v-72.509l-12.38-1.9981z" points="368.66354,434.4536 368.66354,361.94448 356.28357,359.9464 356.28357,425.56373 " fill="#e9e9ff"/>
   <path d="m344.34 439.54v-74.785l11.939-4.8045v65.617z" points="344.34449,364.7509 356.28357,359.9464 356.28357,425.56373 344.34449,439.53578 " fill="#353564"/>
   <path d="m344.34 439.54 12.869 11.98 11.45-17.062-12.38-8.8899z" points="357.21379,451.51598 368.66354,434.4536 356.28357,425.56373 344.34449,439.53578 " fill="#4d4d9f"/>
   <path d="m344.34 364.75 12.869 2.8948 11.45-5.7012-12.38-1.9981z" points="357.21379,367.64573 368.66354,361.94448 356.28357,359.9464 344.34449,364.7509 " fill="#afafde"/>
   <path d="m357.21 451.52v-83.87l11.45-5.7012v72.509z" points="357.21379,367.64573 368.66354,361.94448 368.66354,434.4536 357.21379,451.51598 " fill="#d7d7ff"/>
   <path d="m344.34 439.54 12.869 11.98v-83.87l-12.869-2.8948z" points="357.21379,451.51598 357.21379,367.64573 344.34449,364.7509 344.34449,439.53578 " fill="#8686bf"/>
  </g>
 </g>
</svg>
