<?xml version="1.0" encoding="UTF-8"?>
<svg width="82.147mm" height="43.379mm" version="1.1" viewBox="0 0 82.147 43.379" xmlns="http://www.w3.org/2000/svg" xmlns:cc="http://creativecommons.org/ns#" xmlns:dc="http://purl.org/dc/elements/1.1/" xmlns:rdf="http://www.w3.org/1999/02/22-rdf-syntax-ns#">
 <metadata>
  <rdf:RDF>
   <cc:Work rdf:about="">
    <dc:format>image/svg+xml</dc:format>
    <dc:type rdf:resource="http://purl.org/dc/dcmitype/StillImage"/>
    <dc:title/>
   </cc:Work>
  </rdf:RDF>
 </metadata>
 <g transform="translate(-42.827 -33.49)">
  <g transform="translate(-.66917 -6.6917)" style="shape-inside:url(#rect12);white-space:pre" aria-label="MARINE ' s">
   <path d="m54.038 50.386c-0.06332 0.26058-0.23851 1.059-0.57242 2.3051-0.53407 1.9345-1.3238 4.3932-1.374 4.5488-0.13372 0.57197-0.41897 1.6904-0.41897 1.6904-0.1505 0.5879-0.45752 1.7104-0.45752 1.7104 0.70107-1.0734 1.0763-1.7158 1.1243-1.8872 0.06494-0.17993 0.41119-0.80986 1.0422-1.9383 0.70507-1.078 1.2313-2.0237 1.5824-2.8074 0.06176-0.14581 0.24678-0.48896 0.55167-1.0392-0.01874-0.0622 0.0849-0.2832 0.30347-0.65956 0.22502-0.39786 0.42357-0.80722 0.59272-1.2213 0.18244-0.41676 0.26944-0.62695 0.27504-0.64749 6e-6 -7e-6 0.05637-0.07014 0.05638-0.07015 0.05628-0.07009 0.15976-0.26718 0.30094-0.58001 0.10963-0.28636 0.17944-0.50313 0.21432-0.65415 0.0776-0.29362 0.18047-0.84742 0.18047-0.84742 0.01088-0.05648 0.07806-0.24182 0.19196-0.56266 0.03287-0.18579 0.05618-0.54163 0.05618-0.54163 0.04257-0.37001 0.22414-0.84934 0.48522-1.411 0.13337-0.14524 0.34704-0.43264 0.34704-0.43264-0.01551-0.09798 0.06605-0.19102 0.25027-0.28586 0.19583-0.09928 0.37367-0.1582 0.5316-0.17226 0.15891-0.01414 0.26031-0.02821 0.31068-0.04736 0.05827 0.02684 0.24653 0.01611 0.56424-0.02223 0.15362-0.0045 0.2582 0.05669 0.30596 0.19144 0.05983 0.1301 0.09498 0.33215 0.08984 0.62041-0.04456 0.61586-0.33785 2.0532-0.33785 2.0532-0.02211 0.13376-0.17963 1.0221-0.77882 3.0931-0.0795 0.37332-0.2743 1.1172-0.2743 1.1172-0.02589 0.04987-0.13871 0.45083-0.36188 1.2411-0.17379 0.6488-0.5687 1.9691-0.5687 1.9691-0.095 0.35697-0.21743 0.73764-0.21743 0.73764-0.12079 0.50784-0.38205 1.491-0.38205 1.491-0.05481 0.0048-0.34253 1.1745-0.78138 3.5533-0.09771 0.35021-0.2704 1.2166-0.43672 2.4383-0.1482 1.2185-0.32285 2.2216-0.55841 3.0015-0.08264 0.40498-0.37061 0.75321-0.87426 1.0305-0.31756-0.1259-0.49128-0.2995-0.52059-0.52358-0.1105-0.13189-0.17202-0.23521-0.18588-0.31027-0.02588-0.10675-0.09692-0.37818-0.09692-0.37818-0.16585-0.33384-0.2654-0.72472-0.29569-1.1778-0.05781-0.17835-0.06489-0.42935-0.01843-0.7563-0.04934-0.3557-0.01044-0.7965 0.1193-1.3308 0.12996-0.53521 0.18688-0.90608 0.16427-1.1109-2.94e-4 -0.22995 0.01101-0.44728 0.0332-0.65175-0.06757-0.27986-0.0065-0.77571 0.18669-1.4931 0.20497-0.75569 0.36882-1.3673 0.508-1.9113 0.10132-0.30507 0.18413-0.53417 0.24813-0.68696 0.0257-0.19859 0.04838-0.34729 0.06798-0.4464 0.03337-0.10057 0.06394-0.21287 0.09167-0.3366-0.10188 0.25802-0.32062 0.72385-0.32062 0.72385-0.08415 0.13084-0.33642 0.6282-0.76795 1.5011-0.4251 0.86104-1.2766 2.484-1.2766 2.484-0.39784 0.82941-1.1613 2.3338-1.1613 2.3338-0.09586 0.0703-0.27834 0.35921-0.53934 0.85194-0.30393 0.53613-0.47374 0.81688-0.51716 0.86051 0.02337-0.03624-0.15332 0.23745-0.12996 0.2012-0.23036 0.35606-0.44996 0.63246-0.66363 0.83647-0.55898 0.5027-1.0216 0.58878-1.3788 0.30956-0.3492-0.25702-0.51989-0.70403-0.48762-1.3617 0.02385-0.37572 0.03061-0.61872 0.01135-0.73422 0.04845-0.17668 0.07866-0.48809 0.10011-0.94348 0.05663-0.43048 0.18196-0.9728 0.38205-1.6399 8e-3 -0.2081 0.09597-0.56389 0.26744-1.0728 0.01021-0.20827 0.07884-0.50801 0.20663-0.90139 0.12774-0.39323 0.23717-0.77426 0.32742-1.141 0.08541-0.39016 0.22359-0.85656 0.4124-1.401 0.1286-0.38993 0.33152-1.166 0.54547-2.1648-0.01769-0.06006 0.0097-0.26733 0.07575-0.61552-0.15848 0.34238-0.24602 0.53179-0.26365 0.57703-0.0083 0.02137-0.26413 0.54647-0.80619 1.6189 0.01069 0.0419-0.1293 0.3742-0.42798 1.0057-0.25923 0.43183-0.49442 0.88493-0.70339 1.3596-0.62061 1.2336-1.0358 2.1198-1.2665 2.7243-0.03744 0.20002-0.13539 0.44281-0.29239 0.72358-0.13367 0.25943-0.27057 0.52769-0.40896 0.80178-0.11566 0.25416-0.23525 0.48266-0.3596 0.68603-0.02358 0.08952-0.08439 0.21671-0.08439 0.21671-0.28936 0.6301-0.42292 0.96981-0.42314 1.0511-0.08009 0.21468-0.24142 0.46758-0.47834 0.74442-0.22138 0.27767-0.44629 0.35156-0.68051 0.23761-0.41-0.21796-0.63575-0.36712-0.68084-0.44948-0.03819-0.3443-3e-3 -0.64838 0.10014-0.9097 0.17639-0.41872 0.56475-1.3948 0.56475-1.3948 0.09244-0.16058 0.27005-0.54161 0.27005-0.54161 0.01116-0.0623 0.11619-0.29581 0.32091-0.70977-0.0056-0.02162 0.05739-0.1884 0.1917-0.50357 0.14358-0.33694 0.23132-0.5928 0.26108-0.76429 0.04966-0.08969 0.13752-0.31956 0.13752-0.31956 0.28367-0.72627 0.45883-1.1462 0.51976-1.2537 0.08464-0.12896 0.20097-0.39807 0.34785-0.80444 0.05801-0.0016 0.16391-0.16393 0.31638-0.48536 0.16189-0.34329 0.33839-0.70547 0.52914-1.0875 0.06849-0.01981 0.19262-0.10552 0.19262-0.10552-0.0204-0.01942 0.09925-0.31513 0.34796-0.8765 0.05723-0.11142 0.28512-0.55677 0.56219-1.1097 0.29269-0.58413 0.46078-0.96156 0.5196-1.147 0.08154-0.20889 0.28418-0.53719 0.59658-0.97878 0.71379-1.1707 1.0511-1.8195 1.1345-2.0639 0.1006-0.25579 0.19737-0.4723 0.29609-0.65873 0.16106-0.4478 0.34415-0.79027 0.58111-1.0826 0.11944-0.25089 0.30281-0.4254 0.57544-0.55752 0.09741-0.06779 0.25206-0.2069 0.25206-0.2069 0.01854-3.7e-4 0.02148-0.0079 0.02148-0.0079 0.25078-0.20465 0.75348-0.41962 1.4351-0.58239 0.59749-0.04815 0.91081 0.09293 0.92719 0.42768-0.07367 0.19395-0.09653 0.75748-0.40703 2.207-0.02203 0.07985-0.04468 0.1606-0.06794 0.24224z" style="font-variant-caps:normal;font-variant-east-asian:normal;font-variant-ligatures:normal;font-variant-numeric:normal"/>
   <path d="m63.558 54.981c0.03861-0.05808 0.2027-0.13037 0.49108-0.21706 0.3076-0.11583 0.6955-0.40284 1.1559-0.86013 0.01302-0.0015 0.07366-0.33372 0.17576-0.97811 0.18717-1.1411 0.29528-1.8829 0.35479-2.3515 0.08511-0.60602 0.13041-1.0247 0.14578-1.2639 0.06929-0.42304 0.14842-1.4593 0.09981-2.6935-0.41538 1.6832-1.7127 5.5266-1.7127 5.5266-0.52878 1.6801-0.83518 2.693-0.8847 3.0993 6.5e-5 -9.7e-5 0.17424-0.26155 0.1743-0.26164zm-2.9902 1.4828c0.20277-0.5907 0.57815-1.7925 0.57815-1.7925 0.08832-0.34622 0.20188-0.69277 0.33928-1.0399 0.1123-0.44906 0.38657-1.1177 0.80335-2.0097 0.01274-0.05516 0.1445-0.38137 0.388-0.99264 0.01058-0.04876 0.3088-0.8133 0.76564-2.1453 0.14039-0.33452 0.37265-1.0045 0.37265-1.0045 0.01238-0.08682 0.06543-0.25287 0.15502-0.49777 0.09183-0.26487 0.15932-0.51008 0.20372-0.73598 0.05823-0.24866 0.11659-0.48329 0.1756-0.70455 0.19412-0.55434 0.33868-1.0041 0.45136-1.3619 0.20849-0.73328 0.5927-1.145 1.2535-1.2679 0.19646-0.01885 0.55515-0.08041 0.55515-0.08041 0.35954 0.03691 0.64002 0.11443 0.83939 0.22658 0.27848 0.09269 0.47276 0.2327 0.57924 0.41639 0.10433 0.16403 0.16782 0.47808 0.1617 0.9598 0.01064 0.17901 0.07791 1.3129-0.10625 3.4243-0.19114 2.1916-0.4061 3.4919-0.4104 3.5184-0.05406 0.57799-0.19543 1.7357-0.19543 1.7357-0.02805 0.16543-0.2864 2.0934-0.56932 6.1843 0.01113 1.0541 0.07879 3.135 0.07879 3.135 0.11879 1.6884 0.2481 2.5963 0.25852 2.6881 0.02909 0.06519 0.07569 0.37701 0.16647 0.96454 0.13929 1.0171 0.0077 1.6905-0.46681 2.0177-0.42504 0.11278-0.7444 0.02726-0.94524-0.24711-0.07818-0.0017-0.25889-0.14121-0.53222-0.41541-0.02684-0.14987-0.11514-0.30081-0.26367-0.45193-0.13428-0.12107-0.22158-0.22622-0.26297-0.31584-0.16314-0.09006-0.29631-0.55318-0.35813-1.3823-0.03935-0.05808-0.103-0.29708-0.17868-0.70955-0.06081-0.41304-0.04891-0.7539 0.02802-1.0216-0.07022-0.26392-0.052-0.81127 0.07023-1.64-0.06434-0.43928-0.02024-1.1282 0.14131-2.0692 0.1616-0.9413 0.22669-1.6606 0.18876-2.1703-0.82296 0.72576-1.6472 1.1407-2.465 1.2562-0.15226 0.01103-0.24107 0.07349-0.26588 0.18736-0.0561 0.25755-0.19617 0.71458-0.4192 1.3777-0.44352 1.5992-1.2446 4.691-1.2446 4.691-0.17361 2.0701-0.37205 3.1034-0.82099 3.1782-0.12614-9e-3 -0.34128 0.02911-0.65034 0.11027-0.29172 0.08193-0.52089-0.02933-0.67369-0.32732-0.31835-0.36349-0.52311-0.72913-0.61863-1.1021-0.08438-0.34637-0.07732-0.74022 0.0214-1.1895 0.07979-0.35147 0.27612-1.183 0.60833-2.4201 0.04135-0.05468 0.11404-0.35477 0.22722-0.9039 0.13356-0.57492 0.26393-1.0213 0.38003-1.3248 0.32858-0.84024 0.9817-2.5938 0.9817-2.5938 0.0557-0.05846 0.21656-0.4778 0.48271-1.2545 4.89e-4 -0.0538 0.02901-0.19053 0.08551-0.40967 0.0044-0.0202 0.10227-0.46946 0.10666-0.48966z" style="font-variant-caps:normal;font-variant-east-asian:normal;font-variant-ligatures:normal;font-variant-numeric:normal"/>
   <path d="m73.821 47.449c-0.11955 0.85617-0.21276 1.5987-0.26316 2.2648-0.05243 0.36934-0.10478 0.62655-0.15312 0.76295-0.03605 0.13578-0.07446 0.44438-0.11836 0.93489-0.04403 0.49198-0.0018 0.77725 0.13152 0.84868 0.14047-0.0121 0.35968-0.1965 0.65278-0.5484 0.16368-0.25436 0.4563-0.80797 0.4563-0.80797 0.1558-0.2544 0.506-0.72247 1.0317-1.3848 0.1807-0.30944 0.49765-0.95836 0.49765-0.95836 0.07557-0.15194 0.19559-0.50405 0.19559-0.50405 0.03574-0.09658 0.0788-0.34156 0.0788-0.34156 0.10143-0.32877 0.1326-0.6614 0.09475-0.99764-0.0041-0.1887-0.04378-0.60812-0.04378-0.60812-0.09686-0.72078-0.1852-1.1389-0.22395-1.2434-0.03113-0.13491-0.08048-0.26788-0.14781-0.39875-0.06891-0.15315-0.14305-0.28236-0.22127-0.38816-0.07832-0.10594-0.12538-0.17954-0.14099-0.2225-0.18339-0.13709-0.57905-0.44856-0.57905-0.44856-0.01372-0.02045-0.08532-0.04741-0.21458-0.07996-0.209-0.13298-0.48279-0.13056-0.82061 0.0076 0.01188 0.34873-0.02086 1.0441-0.02086 1.0441 0.0071 0.13128-0.0155 0.36912-0.0764 0.71471-0.04974 0.34709-0.06149 0.60236-0.02638 0.7638-0.01188 0.07175-0.01788 0.2116-0.02076 0.42568-0.0025 0.18923-0.01925 0.45456-0.05434 0.79713-0.0041 0.12189-0.0086 0.2445-0.01369 0.36781zm-0.99765 7.9198c-0.1169 0.12609-0.189 0.19052-0.21566 0.19278-0.02135 0.0889-0.043 0.25146-0.06415 0.48748-0.0077 0.19842-0.047 0.53372-0.047 0.53372-0.01924 0.22259-0.13326 0.83824-0.34096 1.9575-0.0023 0.1744-0.03258 0.45805-0.03258 0.45805-0.03164 0.45964-0.08883 0.83195-0.17598 1.1158-0.05852 0.70561-0.18016 2.066-0.18016 2.066-0.046 0.4187-0.16078 1.1921-0.16078 1.1921-0.03263 0.19178-0.04213 0.36676-0.02837 0.52517 0.03254 0.17883 0.04112 0.72378 0.08376 1.7723 0.05672 1.0031 0.08866 1.7184 0.05687 2.1797-0.02346 0.17091-0.11018 0.43797-0.11018 0.43797-0.30266 0.1947-0.50734 0.24129-0.60981 0.14468-0.1027-0.09685-0.26583-0.16124-0.49019-0.19396-0.22427-0.03271-0.353-0.0652-0.38639-0.09709-0.01586-6.7e-5 -0.09891-0.06412-0.24707-0.19134-0.13085-0.09546-0.2207-0.17468-0.27029-0.2379-0.03397-0.06343-0.09222-0.15779-0.17438-0.28398-0.21149-0.28274-0.32745-0.89611-0.31471-1.8351-0.02797-0.18739-0.01608-0.40647 0.03566-0.65812-0.08823-0.09123-0.11171-0.34051-0.06561-0.74693 0.05254-0.18948 0.08676-0.4853 0.10841-0.89049 0.02157-0.40362 0.06489-0.7317 0.12503-0.98107 0.02615-0.22534 0.05356-0.7419 0.05356-0.7419 0.02132-0.27615 0.11727-0.8524 0.29701-1.7125 0.02323-0.2439 0.06557-0.45844 0.12577-0.64352-0.02179-0.05861 0.03925-0.31931 0.18412-0.77927-0.01795-0.088 0.06311-0.52904 0.24698-1.311-0.03051-0.0858-0.0063-0.35287 0.07343-0.79729 0.08299-0.47233 0.16158-0.84177 0.23303-1.1055 0.06752-0.55015 0.12898-0.88225 0.18199-0.99955-0.0024-0.08515 0.0118-0.35397 0.0425-0.80383 0.04145-0.15087 0.10164-0.50931 0.10164-0.50931 0.04195-0.33817 0.16304-0.85322 0.35599-1.5463 0.27718-1.5389 0.39575-2.3493 0.40639-2.4665 0.30185-1.4849 0.41229-2.3566 0.42262-2.6752 0.03598-0.02748 0.0803-0.25646 0.1194-0.6716 0.03922-0.43664 0.02101-0.73505-0.04028-0.9025-0.5069 0.43633-0.94611 0.94269-1.3205 1.5204-0.25306 0.42657-0.42487 0.60094-0.50113 0.51892-0.15381-0.16542-0.21878-0.42035-0.2042-0.76091-0.0076-0.16431-0.05174-0.52659-0.05174-0.52659-0.01167-0.02141-0.03629-0.1366-0.08046-0.34752-0.05522-0.22942-0.07945-0.39411-0.06918-0.5017-0.0012-0.10482-0.0094-0.24091-0.02615-0.40298-0.02892-0.18124-0.03541-0.30126-0.0159-0.36588 0.08348-0.35944 0.19446-0.62533 0.34564-0.80979 0.12894-0.17813 0.33722-0.55561 0.33722-0.55561 0.09161-0.09907 0.23498-0.32856 0.23498-0.32856 0.02209-4e-3 0.20282-0.23827 0.50196-0.67964 0.0039-0.0745 0.06938-0.15061 0.19629-0.22818 0.1269-0.07757 0.40054-0.29168 0.79639-0.62752 0.30413-0.10402 0.48551-0.15844 0.53805-0.16639 0.31786-0.1201 0.62969-0.11047 0.9294 0.03663 0.18755 0.05077 0.29049 0.0764 0.31278 0.07385 0.02632-0.02161 0.06417-0.02593 0.11364-0.01281 0.06034 0.01192 0.10123 0.01684 0.12294 0.0145 0.01234 0.03602 0.06707 0.04878 0.16472 0.03874 0.13708 0.06556 0.3727 0.16167 0.3727 0.16167 0.05418-5e-3 0.1403 0.03456 0.25622 0.1203 0.0594-0.02401 0.16192 0.01488 0.30494 0.11964 0.14676 0.08418 0.36156 0.2163 0.6321 0.39643 0.28325 0.18059 0.44109 0.34416 0.47317 0.48401 0.07552 0.0366 0.17423 0.14367 0.2905 0.323 0.10436 0.13433 0.27511 0.36145 0.27511 0.36145 0.16691 0.27023 0.45405 0.77895 0.45405 0.77895 0.02541 0.02034 0.09365 0.12657 0.19934 0.31889 0.16112 0.36041 0.25103 0.59279 0.26802 0.65338 0.01859 0.06632 0.03696 0.13286 0.05512 0.19965 0.01102 0.03063 0.08629 0.24674 0.1904 0.5724 0.21363 0.63382 0.30717 1.2113 0.28736 1.7156 7.68e-4 0.02402-0.04335 0.39215-0.15949 1.1409-0.20866 1.3192-0.58719 2.455-1.0847 3.3153-0.10739 0.16796-0.24954 0.39341-0.42776 0.67835-0.17715 0.25773-0.32286 0.48849-0.43581 0.69062-0.52287 0.67556-0.84324 1.1133-0.94506 1.2914-0.08894 0.17748-0.17002 0.32669-0.243 0.44704-0.06815 0.09859-0.23114 0.23342-0.23114 0.23342 0.01619 0.10685 0.02303 0.25783 0.02303 0.25783 0.0073-0.11659 0.03661-0.06034 0.08862 0.1668 0.06727 0.19784 0.11139 0.35467 0.13151 0.47011-0.0083 0.14671 0.04872 0.31828 0.17278 0.51496 0.02841-0.03168 0.0605-0.0047 0.0966 0.08105 0.07223 0.17159 0.09984 0.45047 0.08402 0.84048 0.09053 0.11272 0.2182 0.46092 0.39666 1.0558 0.18625 0.29044 0.34481 0.70574 0.48335 1.2539 0.09746 0.24072 0.17633 0.40716 0.23339 0.4965 0.05758 0.1829 0.17353 0.42595 0.35136 0.72872 0.17906 0.30487 0.30012 0.51618 0.36301 0.64104 0.0611 0.09157 0.13013 0.19834 0.20805 0.32132 0.28088 0.43127 0.48287 0.75498 0.6013 0.97668 0.10902 0.14716 0.29238 0.37224 0.29238 0.37224 0.63387 1.1373 1.0193 1.7781 1.0616 1.8768 0.01271 0.23575-0.05013 0.59549-0.18607 1.0823 0.05761 0.54389-0.22648 1.0284-0.87544 1.4373-0.23429 0.01057-0.59363-0.21582-1.0556-0.67144-0.45729-0.42129-0.81205-0.87512-1.0666-1.3618-0.75393-1.021-1.2144-1.8148-1.4321-2.3763-0.6335-1.2802-1.0252-2.4944-1.2246-3.6444-0.0518-0.08811-0.11473-0.23694-0.18694-0.44486-0.05833-0.20909-0.11779-0.37124-0.17958-0.48763-0.05835-0.35424-0.19153-1.1115-0.19153-1.1115-0.14969-0.58652-0.27574-1.0856-0.27574-1.0856-0.02381-0.18849-0.04707-0.37617-0.06985-0.56302z" style="font-variant-caps:normal;font-variant-east-asian:normal;font-variant-ligatures:normal;font-variant-numeric:normal"/>
   <path d="m84.812 42.614c0.11504 0.2645 0.13542 0.44425 0.06783 0.53593-0.05585 0.09317-0.13819 0.13482-0.24531 0.1243-0.10391-0.0102-0.37301-0.01676-0.78584-0.01198-0.24016 0.06035-0.47706 0.18389-0.71622 0.37487 0.0064 0.01621-0.01774-0.0012-0.01774-0.0012 0.0703 0.33263 0.13178 0.93058 0.13072 1.808 0.03554 0.2645 0.05869 0.72572 0.04818 1.3913 0.0152 0.16204 0.01339 0.34776-0.0065 0.55843-0.01985 0.21073-0.01405 0.52962 0.01372 0.96399-0.02295 1.0312-0.03312 1.6495 0.0048 1.8927-0.05639 1.083-0.08041 1.9043-0.05739 2.5134 0.02137 0.56568 0.0089 1.077-0.03887 1.5262 0.01761 0.17368 0.02052 0.46281 0.02052 0.46281 0.07614 1.0708 0.10585 1.8663 0.06807 2.3441-0.02397 0.4776-0.02182 0.8856 0.0048 1.2196 0.02713 0.33982 0.03418 0.84872 0.03444 1.579 2.56e-4 0.71996 0.07477 1.6058 0.25104 2.648 0.05912 0.02055 0.13308-0.01047 0.13308-0.01047 0.36021-0.09468 0.55694-0.12704 0.59136-0.09665 0.02957-0.0024 0.12564-0.05977 0.28794-0.17192 0.13535 0.03073 0.36131 0.02041 0.36131 0.02041 0.08882 0.0179 0.22117-0.01797 0.22117-0.01797 0.04443-0.0036 0.16004 0.11886 0.35188 0.36911 0.42524 0.56499 0.65801 1.0198 0.67912 1.3613 0.01444 0.30692-0.07648 0.72864-0.27159 1.2707-0.10569 0.14049-0.36933 0.34664-0.36933 0.34664-0.01639 0.14227-0.10127 0.2907-0.25572 0.44474-0.13914 0.15291-0.27042 0.23419-0.39411 0.24361-0.31703 0.20171-0.47556 0.49814-0.46606 0.89275 0.02484 0.32234-0.31301 0.47338-1.0219 0.44626-0.2495 0.04316-0.80234 0.04931-0.80234 0.04931-0.10959 0.14113-0.38233 0.34444-0.38233 0.34444-0.32034 0.37643-0.65157 0.48256-0.99105 0.31985-0.3382-0.16211-0.57148-0.29291-0.70211-0.39266-0.10826-0.06554-0.26026-0.23518-0.45049-0.50623-0.1842-0.23636-0.29845-0.5444-0.34123-0.92301-0.02178-0.34274-0.03869-0.82928-0.04089-1.4395 0.21306-0.48863 0.36138-0.7867 0.43913-0.8922 0.07438-0.13983 0.21667-0.28398 0.42579-0.43284 0.2096-0.1492 0.47815-0.41926 0.80729-0.80967-0.13841-1.1775-0.19385-1.7761-0.24547-1.9922 0.04075-0.0352 0.02154-0.76918 4.45e-4 -2.1292 0.0071-0.12551-0.04611-0.42868-0.1518-0.90982 0.0076-0.06897-0.01173-0.27237-0.01173-0.27237 0.0041-0.91073-0.02373-1.6986-0.09107-2.3906-5.5e-4 -0.02888 0.01535-0.57231 0.05697-1.5815 0.06425-0.17114 0.05826-0.64644-0.01297-1.4049 0.04704-0.56861 0.08859-0.98684 0.12347-1.2486 0.01413-0.17958 0.01144-0.58954 0.01144-0.58954-0.0025-0.17204 0.02975-0.63613 0.08328-1.4573 0.01596-0.22158 0.01416-0.70811 0.01416-0.70811 0.14345-1.8455 0.1482-3.0659 0.09833-3.9664-0.08774 0.04075-0.14337 0.06101-0.16697 0.06033-0.17286 0.07688-0.55552 0.18463-0.55552 0.18463-0.4228 0.2395-0.82861 0.02889-1.253-0.60752-0.39996-0.80771-0.52542-1.4563-0.36848-1.9612 0.08795-0.28294 0.23202-0.44 0.44624-0.4759 0.20762-0.05564 0.4217-0.20911 0.62888-0.45368 0.0878 3e-3 0.28449-0.2144 0.54584-0.63333 0.35647-0.09372 0.57712-0.13418 0.65474-0.12903 0.26147-0.02409 0.73957-0.10956 0.73957-0.10956 0.09344-0.01036 0.2387 0.02026 0.43556 0.09299 0.18824 0.05374 0.31744 0.12118 0.38538 0.20078 0.20527 0.09309 0.44448 0.23668 0.71289 0.43121 0.24564 0.25229 0.68038 0.7168 0.68038 0.7168 0.31688 0.44275 0.53784 0.78899 0.65419 0.989l2.7e-5 1e-5z" style="font-variant-caps:normal;font-variant-east-asian:normal;font-variant-ligatures:normal;font-variant-numeric:normal"/>
   <path d="m94.007 56.371c-0.0972-0.28887-0.18349-0.9377-0.23493-1.8866-0.10133-0.59286-0.16245-1.0566-0.18879-1.3857-0.0255-0.2221-0.11311-0.70524-0.11311-0.70524-0.24102-1.8722-0.34165-2.6143-0.42982-3.1148-0.20938-1.1887-0.32879-2.0471-0.3307-2.5678-0.02723-0.17995-0.12673-0.58138-0.12673-0.58138-0.07071-0.27061-0.13881-0.53826-0.20484-0.80221-0.05863-0.27986-0.11469-0.45089-0.15784-0.51089-0.03584-0.38424-0.19035-1.1833-0.19035-1.1833-0.01944-0.10147-0.10791-0.35096-0.10791-0.35096 0.0025-0.05185 0.03897-0.18387 0.10238-0.4036 0.01346-0.04664 0.15159-0.03426 0.41639 0.03802 0.25626 0.05415 0.47561 0.12559 0.65531 0.21251 0.10318 0.0221 0.19557 0.08232 0.27507 0.18002 0.07037 0.0787 0.18216 0.25787 0.32082 0.53093 0.14746 0.20983 0.28311 0.50961 0.38983 0.8989 0.04624 0.09293 0.08533 0.1847 0.1173 0.27543 0.02556 0.07257 0.04743 0.15315 0.06525 0.24185 0.13107 0.3144 0.23802 0.68715 0.31312 1.125 0.0802 0.24748 0.19131 0.70304 0.19131 0.70304 0.07348 0.28344 0.12937 0.61283 0.16504 0.99446 0.06174 0.25596 0.14156 0.73308 0.14156 0.73308 0.05868 0.27733 0.08096 0.51588 0.06783 0.7136 0.04432 0.22308 0.08589 0.63458 0.12244 1.2641 0.06261 0.33857 0.0884 0.55427 0.07707 0.63936-0.0017 0.06364 0.06066 0.33507 0.19006 0.82368 0.08083 0.66799 0.17326 1.2073 0.27706 1.6092 0.05771 0.25021 0.13702 0.71301 0.13702 0.71301 0.22118 1.1325 0.37237 1.9514 0.40895 2.3711 0.03247 0.09751 0.05289 0.23602 0.05289 0.23602 0.11314 0.50121 0.18575 0.89447 0.20955 1.172 0.18139 0.62927 0.34321 1.3178 0.4953 2.0862 0.09786 0.36866 0.26093 1.0774 0.26093 1.0774 0.43021 2.1953 0.44494 3.6177-0.26338 4.0045-0.84716 0.43582-1.8642-0.1458-2.9004-1.6901-0.11148-0.22663-0.2181-0.46873-0.31922-0.72551-0.08278-0.02459-0.16421-0.09963-0.2433-0.22429-0.36596-0.62643-1.0373-2.0717-1.7929-4.1156-0.17801-0.39987-0.27932-0.68461-0.30976-0.85476-0.19426-0.44816-0.30832-0.79617-0.34886-1.045-0.18381-0.43718-0.28873-0.76309-0.32089-0.97858-0.01888-0.1982-0.09376-0.64324-0.09376-0.64324-0.09325-0.28702-0.30941-0.9012-0.30941-0.9012-0.02404-0.18183-0.08001-0.45244-0.16548-0.80784-0.28291-1.1804-0.49206-2.2549-0.64304-3.1772-0.15222-0.92979-0.25024-1.4552-0.28444-1.6116 0.01347 0.2586 0.0011 0.73891 0.0011 0.73891 0.05998 0.87363 0.08472 1.6397 0.0819 2.1842 0.0098 1.0271 0.0606 1.9596 0.1653 2.8099 0.03116 0.47563 0.0712 0.89226 0.11888 1.2474-0.0057 0.16444 0.0084 0.37103 0.04345 0.62034 0.12531 0.96439 0.40492 2.9427 0.40492 2.9427 0.11734 1.1312 0.37091 2.5405 0.83068 4.2126 0.22448 0.96762 0.31878 1.6275 0.23815 1.96-0.07029 0.36452-0.2473 0.56431-0.53814 0.59394-0.29341-0.1506-0.6611-0.40203-1.0931-0.74996-0.11755-0.09467-0.25292-0.34793-0.39696-0.75225-0.13747-0.44069-0.24593-0.75261-0.33614-0.94996-0.31385-0.44805-0.54232-0.96467-0.68408-1.544-0.26126-1.1023-0.71639-3.2593-0.71639-3.2593-0.03735-0.26669-0.09222-0.77008-0.14836-1.466-0.04621-0.73341-0.09128-1.2873-0.14851-1.7099-0.05677-0.41919-0.06893-1.04-0.03266-1.843 0.05367-0.45432 0.06018-0.91167 0.02056-1.373-0.03104-1.0193-0.12951-2.9895-0.12951-2.9895-0.03946-0.40167-0.04595-0.70267-0.01803-0.9075-0.02807-0.25409-0.04183-0.53789-0.04376-0.85132-0.03666-0.09187-0.03883-0.25907-0.0097-0.49936 0.01413-0.14856 0.0035-0.49045 0.0035-0.49045-0.02352-0.15564-0.03639-0.39985-0.04669-0.7411 0.0022-0.33654-0.029-0.72568-0.10028-1.1582-0.10299-0.73963-0.05738-1.4207 0.12597-2.0268 0.06234-0.08286 0.08358-0.31521 0.0403-0.68235 0.02051-0.17751 0.10505-0.32496 0.2558-0.44092 0.11116-0.22447 0.36542-0.1597 0.76551 0.20881 0.59652 0.36409 1.1127 0.93826 1.461 1.7173 0.11547 0.25982 0.28969 0.73482 0.28969 0.73482 0.03068 0.10156 0.15773 0.36408 0.37565 0.8172 0.04366 0.16469 0.13394 0.44156 0.27134 0.8758 0.05558 0.24157 0.15816 0.5411 0.30539 0.89895 0.2408 0.75158 0.65423 2.3061 0.65423 2.3061 0.05611 0.11138 0.13454 0.32219 0.23373 0.63441 0.10282 0.31618 0.27301 0.91361 0.27301 0.91361 0.0997 0.50137 0.19865 0.91721 0.30054 1.2488 0.11489 0.33051 0.22751 0.68702 0.33984 1.0744 0.1357 0.41763 0.27408 0.85815 0.48275 1.5173 0.19682 0.62174 0.39075 1.2438 0.56694 1.8184 0.1877 0.55541 0.39568 1.0674 0.62248 1.5319 0.0051-0.11471-0.05427-0.45893-0.16564-1.0265-0.01322-0.17571-0.02564-0.34986-0.03733-0.52246z" style="font-variant-caps:normal;font-variant-east-asian:normal;font-variant-ligatures:normal;font-variant-numeric:normal"/>
   <path d="m100.44 53.537c0.17786 0.77321 0.54213 2.3845 0.54213 2.3845 0.23239 0.79036 0.39775 1.247 0.45921 1.3167 0.12365 0.30512 0.33943 0.88894 0.33943 0.88894 0.0512 0.1753 0.19824 0.50462 0.45051 0.9917 0.0321 0.10366 0.32493 0.41714 0.89358 0.94101 0.1894-0.01999 0.52443-0.30977 1.0415-0.83579 0.24271-0.18825 0.67488-0.6012 0.67488-0.6012 0.21757-0.39514 0.49682-0.54485 0.82117-0.47307 0.33369 0.04768 0.6394 0.44064 0.95598 1.2206 0.14399 0.36932 0.22857 0.66335 0.24735 0.87607 0.0328 0.21087 5e-3 0.47248-0.0815 0.79388-0.0717 0.31779-0.11446 0.56077-0.13142 0.70781-0.0172 0.14895-0.0755 0.30616-0.17502 0.47244-0.0855 0.1641-0.19972 0.35009-0.34233 0.56021-0.12783 0.20661-0.20907 0.3498-0.24136 0.41763-0.39448 0.6102-0.74352 0.88045-1.0795 0.77125-0.15654 0.02732-0.37138-0.03499-0.64356-0.18751-0.25973-0.12134-0.39054-0.16599-0.393-0.13267-0.0453 0.0402-0.17764 0.01248-0.39653-0.08405-0.20478-0.0989-0.52003-0.21255-0.94745-0.34425-0.045-0.12321-0.19564-0.24606-0.45147-0.37024-0.29302-0.30297-0.92026-0.96422-0.92026-0.96422-0.13983-0.10579-0.36678-0.46694-0.65743-1.0606-0.57512-0.88732-0.96254-1.6598-1.1858-2.3218-0.15801-0.31485-0.29435-0.72151-0.40286-1.2079-0.08754-0.12312-0.2873-0.6502-0.55841-1.5225-0.3059-1.1489-0.45821-2.0026-0.49318-2.5623-0.07745-0.37435-0.10368-0.77209-0.08027-1.1868-0.01849-0.35442-0.04742-0.69043-0.08785-1.0119 0.01545-0.11782 1e-3 -0.34771-0.04406-0.67992-0.11313-0.26934-0.13507-0.89497-0.11227-1.85-0.02843-0.11264-0.03642-0.35108-0.03331-0.71652 0.02589-0.18614 0.0061-0.43821-0.06423-0.75164 0.01952-0.13642 0.01089-0.44698 0.01089-0.44698-0.0057-0.01748-0.04006-0.51802-0.21848-1.4596-0.0053-0.28019-0.02956-0.45578-0.05936-0.52235 2.41e-4 -0.38621-0.10438-1.1927-0.10438-1.1927 0.03021-0.09245 0.03322-0.32055 0.03322-0.32055 0.0591-0.10168 0.15436-0.15708 0.28916-0.16642 0.03236-0.06377 0.26181 0.0088 0.69118 0.21599 0.28062 0.1556 0.48412 0.29103 0.61005 0.40716 0.13487 0.08997 0.27118 0.15162 0.41056 0.18577 0.13026 0.01776 0.34828 0.06428 0.6573 0.13995 0.42199 0.01957 0.975 0.17798 1.6552 0.46454 0.22606 0.09524 0.48678 0.2803 0.76875 0.54921 0.27994 0.24154 0.43891 0.4395 0.48033 0.59843 0.0413 0.15869 0.0324 0.27308-0.0234 0.34328-0.0489 0.05803-0.11605 0.10567-0.2009 0.14296-0.1702 0.07479-0.29329 0.12563-0.37158 0.15163-0.0978 0.0073-0.30127 0.08438-0.60609 0.23806-0.31958 0.14162-0.51267 0.22927-0.61917 0.27205-0.14065 0.07269-0.46943 0.1803-0.46943 0.1803-0.1755 0.14901-0.24984 0.32166-0.22367 0.51369-3e-3 0.03082-2e-3 0.06997 6.6e-4 0.11761 3e-3 0.04753 4e-3 0.1109 4e-3 0.18992 0.0133 0.08127 0.0235 0.19442 0.0295 0.33974 0.0101 0.24979 0.0158 0.36469 0.0259 0.61448 0.0483 1.3146 0.0482 2.0196 0.10427 2.2542 0.14706 0.0088 0.4001-0.01836 0.4001-0.01836 0.56022-0.1831 0.9086-0.20401 1.0311-0.08882 0.0555 0.0055 0.12708-5e-3 0.21511-0.03093 0.5577-0.13424 1.0016-0.15919 1.3158-0.09274 0.0465-0.02811 0.12811 0.022 0.24445 0.15001 0.13041 0.12955 0.20955 0.2454 0.23741 0.34867 0.11631 0.22904 0.18616 0.43889 0.20965 0.63055 0.0328 0.17511-0.0369 0.327-0.20897 0.45792-0.0575 0.0805-0.21586 0.20172-0.21586 0.20172-0.37615 0.23536-1.1666 0.701-1.1666 0.701-0.13572 0.07717-0.45065 0.18946-0.45065 0.18946-0.38777 0.28612-0.71079 0.45647-0.9812 0.49276-0.13608-0.07627-0.27186-0.15275-0.40735-0.22943z" style="font-variant-caps:normal;font-variant-east-asian:normal;font-variant-ligatures:normal;font-variant-numeric:normal"/>
   <path d="m108.44 46.891c-0.0802-0.14658-0.30122-0.48636-0.30122-0.48636-0.11209-0.22073-0.14716-0.41456-0.10088-0.57864 0.0464-0.16437 0.17035-0.25595 0.37916-0.27446 0.33973-0.02827 0.68393-0.0065 1.0298 0.06315 0.53489 0.10773 0.91011 0.34532 1.0976 0.70606 0.0617 0.11873 0.14456 0.34777 0.23109 0.67331 0.20223 0.59004 0.46502 1.697 0.46502 1.697 0.38409 1.7631 0.30196 2.7059-0.0458 2.6724-0.42063-0.53826-0.70805-0.96741-0.85651-1.2833-0.58407-0.77547-0.9141-1.2188-0.96169-1.3428-0.0618-0.16091-0.13409-0.27307-0.21436-0.33635-0.20847-0.38496-0.38594-0.735-0.52646-1.0457-0.063-0.1543-0.12812-0.30901-0.19575-0.46438z" style="font-variant-caps:normal;font-variant-east-asian:normal;font-variant-ligatures:normal;font-variant-numeric:normal"/>
   <path d="m119.74 51.86c0.30375-0.36037 0.813-0.52639 1.5211-0.52163 1.1614 0.01089 2.0783 0.23292 2.7153 0.68342 0.65333 0.45152 1.016 0.88681 1.1154 1.3225 0.11341 0.43348 7e-3 0.67338-0.31352 0.71555-0.46762 0.02442-0.783-0.01888-0.94813-0.12843-0.12657 0.01357-0.30522-0.0564-0.5396-0.21266-0.0936-0.03312-0.23559-0.16216-0.42931-0.38841-0.097-0.13237-0.33214-0.4244-0.33214-0.4244-0.16149-0.2039-0.33437-0.31855-0.51697-0.34446-0.20692 0.06348-0.27806 0.2306-0.21436 0.50572 0.18283 0.53823 0.63391 1.0696 1.3208 1.5519 0.0162 0.01423 0.0326 0.05165 0.0326 0.05165 0.0346 0.02329 0.15764 0.11114 0.37476 0.26657 1.3173 0.96191 1.9525 1.6459 2.0853 2.2169 0.0618 0.3708 0.02 0.6421-0.11757 0.81116-0.379 0.6981-0.90852 1.3258-1.6413 1.6444-0.75716 0.32918-1.4919 0.24907-2.308-0.34216-0.21328-0.15451-0.35287-0.32285-0.41319-0.49706-0.17895-0.28465-0.2702-0.47413-0.27588-0.57131-0.1837-0.42487-0.28518-0.7381-0.3113-0.94835-0.0714-0.48125 0.17741-0.73435 0.72425-0.79805 0.20137-0.01833 0.36292 0.09075 0.48564 0.3273 0.37241 0.67275 0.66714 1.1175 0.87098 1.3136 0.21815 0.19525 0.47802 0.24357 0.78921 0.15513 0.38919-0.1212 0.51318-0.41092 0.37896-0.84212-0.12315-0.4379-0.42867-0.80502-0.95142-1.1408-0.17145-0.13766-0.33517-0.23966-0.48997-0.30494-0.14442-0.07886-0.24312-0.1369-0.29372-0.17197-0.0236-0.03705-0.0676-0.07271-0.13231-0.1073-0.32768-0.18611-0.76708-0.50398-1.3308-0.96314-0.5489-0.45883-0.89703-0.89431-1.0305-1.2849-0.24443-0.69706-0.18757-1.2164 0.1756-1.5738l-4e-5 -5e-6z" style="font-variant-caps:normal;font-variant-east-asian:normal;font-variant-ligatures:normal;font-variant-numeric:normal"/>
  </g>
  <g transform="translate(-2.8333 3.8583)" style="shape-inside:url(#rect18);white-space:pre" aria-label="portfolio">
   <path d="m64.336 64.901c-0.08049-0.38442-0.13267-0.59299-0.15788-0.62592-0.03384 0.01301-0.06495 0.05985-0.09297 0.1407-0.05844 0.17848-0.22029 0.49446-0.22029 0.49446-0.20689 0.59134-0.28182 0.95884-0.24232 1.0793 0.0066 0.02008 0.0054 0.09725-3e-3 0.23195 0.04615 0.09615 0.09107 0.24219 0.09107 0.24219 0.07901 0.2304 0.19019 0.645 0.19019 0.645 0.03379 0.07062 0.05463 0.16564 0.05463 0.16564 0.14225 0.43134 0.25655 0.74444 0.34172 0.93741-0.0024-0.02926 0.03997-0.08756 0.1276-0.17273 0.04169-0.09191 0.08008-0.32089 0.08008-0.32089 0.09312-0.29465 0.14576-0.50373 0.15494-0.63655-0.04395-0.64799-0.07425-1.0092-0.10296-1.1021-0.04335-0.14034-0.07451-0.33612-0.09197-0.58588-0.02773-0.0903-0.05227-0.19434-0.07344-0.31197l-0.0554-0.18064zm-2.6722-0.48431c-0.04868-0.21626-0.19571-0.6912-0.19571-0.6912-0.0033-0.08002-0.03639-0.18533-0.09937-0.31557-0.02646-0.19117-0.1293-0.6158-0.1293-0.6158-0.03183-0.09018-0.06968-0.18544-0.1136-0.28569-0.04747-0.11031-0.06977-0.18538-0.06679-0.2254 0.0059-0.0798 0.0713-0.14972 0.19594-0.20606-4.4e-5 0.01402-0.05138-0.0013-0.05138-0.0013 0.06468-0.05822 0.1831-0.05985 0.35371-0.0022 0.16995 0.05741 0.31367 0.1117 0.42797 0.15923 0.08963 0.09493 0.19881 0.20113 0.32776 0.3201 0.07402 0.17633 0.17214 0.483 0.17214 0.483 0.08314 0.25105 0.18198 0.51302 0.29615 0.78654 0.0283 0.10961 0.05158 0.17992 0.06967 0.21081 0.05577-0.06827 0.11909-0.24928 0.11909-0.24928 0.0016-0.01918 0.05515-0.12022 0.16256-0.29912 0.11433-0.17593 0.19239-0.28801 0.22447-0.32924-0.0158-0.05011 0.02078-0.08331 0.10996-0.09817 0.19459-0.02715 0.37516 0.0044 0.54007 0.09147 0.16198 0.07708 0.2505 0.1183 0.26675 0.12147 0.19001 0.12611 0.51928 0.33294 0.51928 0.33294 0.01164 0.04015 0.062 0.08374 0.15084 0.13155 0.05874 0.04975 0.12963 0.0993 0.12963 0.0993 0.03996 9e-3 0.10198 0.05591 0.18553 0.1408 0.10134 0.04225 0.16079 0.136 0.1792 0.2805 0.01125 0.04006 0.03437 0.0829 0.06929 0.12861 0.04883 0.13701 0.10098 0.36044 0.10098 0.36044 0.04507 0.16088 0.08529 0.43542 0.12407 0.82837 0.04369 0.38483 0.06511 0.60824 0.06218 0.6737 0.0047 0.06664 0.0076 0.15135 0.0088 0.25462 0.0088 0.10495 0.01248 0.20408 0.01113 0.29739 0.01132 0.16216 0.0038 0.37966-0.02023 0.65617-0.02698 0.26613-0.06978 0.47311-0.12968 0.62091-0.11175 0.43846-0.2765 0.77607-0.49862 1.0175-0.29013 0.12812-0.46445 0.20684-0.54654 0.2279-0.02205-0.0025 0.03783 0.17818 0.1789 0.54209 0.13428 0.37684 0.3578 1.0842 0.3578 1.0842 0.09833 0.2376 0.25017 0.6664 0.25017 0.6664 0.09251 0.24179 0.23351 0.67893 0.23351 0.67893 0.12282 0.33303 0.17695 0.51785 0.16292 0.55456-0.01 0.06028-0.07281 0.13563-0.07281 0.13563-0.07188 0.03981-0.14856 0.03655-0.23062-0.01031-0.15796-0.07392-0.25531-0.12438-0.29385-0.15706-0.02771-0.0021-0.08631-0.0456-0.17673-0.12988-0.03036-0.0076-0.13594-0.06695-0.13594-0.06695-0.09084 0.01479-0.16275-0.02234-0.21573-0.11341-0.09875-0.08289-0.15902-0.15356-0.18042-0.21384-0.07727-0.09724-0.27836-0.33359-0.27836-0.33359-0.09694-0.15078-0.16906-0.29072-0.21596-0.421-0.1229-0.22065-0.19899-0.39011-0.22776-0.51057-0.06048-0.17603-0.22819-0.57044-0.22819-0.57044-0.08023-0.25116-0.28759-0.79571-0.28759-0.79571-0.0977-0.2704-0.16849-0.44523-0.21277-0.52521-0.03697-0.05985-0.22198-0.5903-0.55232-1.5917-0.04884-0.20073-0.08197-0.32564-0.10009-0.37588-0.14663-0.60291-0.48261-1.8489-0.48261-1.8489-0.03199-0.15618-0.14546-0.51092-0.14546-0.51092 0.0024-0.0259-0.04285-0.1202-0.04285-0.1202-0.01815-0.12028-0.03779-0.21037-0.05919-0.2705h1.3e-5z" style="font-variant-caps:normal;font-variant-east-asian:normal;font-variant-ligatures:normal;font-variant-numeric:normal"/>
   <path d="m68.675 65.999c-0.14264-0.41295-0.33466-0.64155-0.57432-0.68466-0.1364-0.03109-0.22798 0.0531-0.27276 0.25277-0.05459 0.30844-0.0042 0.74283 0.14659 1.3054 0.15561 0.55389 0.28187 0.96152 0.37836 1.2209 0.10148 0.25188 0.22432 0.48274 0.36749 0.69218 0.09061 0.15667 0.19164 0.2474 0.30383 0.27246 0.19998 0.06113 0.29338-0.1269 0.28328-0.5645 0.01577-0.09301 0.0077-0.33047 0.0077-0.33047 0.02547-0.03846 0.02186-0.08581-0.01107-0.14209 0.01822-0.22548-0.0052-0.50593-0.07168-0.84059-0.08964-0.09194-0.14872-0.16994-0.17687-0.23398-0.08231-0.18233-0.1303-0.30293-0.1436-0.3626-0.0637-0.06544-0.11509-0.16886-0.15388-0.31004-0.03879-0.14121-0.06649-0.23281-0.08304-0.27479 0 0-3e-6 -1e-6 -3e-6 -1e-6zm-1.7292 0.8038c-0.03797-0.23374-0.1563-0.75197-0.1563-0.75197-0.12839-0.6755-0.12096-1.2201 0.02972-1.6333 0.16295-0.33501 0.49235-0.43625 0.97948-0.30291 0.03811 0.02428 0.07093 0.02079 0.07093 0.02079 0.45704 0.13406 0.81447 0.35632 1.0702 0.66406 0.26493 0.28265 0.47275 0.56701 0.62559 0.85371 0.16022 0.28843 0.26718 0.49752 0.32136 0.62459 0.05444 0.12768 0.10818 0.30605 0.16157 0.53567 0.1007 0.42927 0.08577 0.65284-0.04257 0.66988 0.29597 0.96866 0.38261 1.6995 0.27854 2.1844-0.0235 0.2059-0.07384 0.4216-0.14934 0.64788-0.05967 0.14797-0.21195 0.19272-0.45784 0.1346-0.25029-0.07793-0.47478-0.16592-0.67267-0.26332-0.19132-0.09548-0.42383-0.28121-0.70264-0.5574-0.28074-0.28558-0.5334-0.68642-0.75503-1.2018-0.2237-0.49745-0.42542-1.0397-0.60099-1.625l-2e-6 -5e-6z" style="font-variant-caps:normal;font-variant-east-asian:normal;font-variant-ligatures:normal;font-variant-numeric:normal"/>
   <path d="m70.852 65.674c-0.11879-0.36997-0.10637-0.59949 0.04087-0.69078 0.07529-0.03573 0.13746-0.04249 0.18609-0.02011 0.05533 0.0148 0.23184 0.11373 0.53132 0.29412 0.03898 0.01 0.06789 0.02673 0.08674 0.05034 0.01558 4e-3 0.04059 0.01971 0.07498 0.04722 0.0701 0.01767 0.10832 0.04596 0.11475 0.08529 0.09412 0.16489 0.16438 0.34712 0.21149 0.54744 0.09573 0.41016 0.18676 0.74893 0.27289 1.0153-0.0016-0.0098-1.2e-4 -0.02362 0.0043-0.0414 0.1069-0.20066 0.16218-0.31945 0.16374-0.35718-0.01834-0.02326-2.2e-5 -0.07088 0.05537-0.14297 0.02044-0.2032 0.03898-0.32702 0.05464-0.37063-0.0075-0.04905 0.01533-0.11956 0.06887-0.21166 0.03363-0.12507 0.06726-0.20298 0.10039-0.2336 0.04265-0.02139 0.07625-0.09719 0.07625-0.09719 0.09555-0.12166 0.24471-0.14217 0.44611-0.06361 0.02344 0.0047 0.06598 0.0085 0.12727 0.01096 0.12281 5e-3 0.19925 0.03349 0.22934 0.08697 0.24435 0.0459 0.38423 0.43263 0.42644 1.1683 0.01217 0.32752-0.0089 0.51031-0.06346 0.54788-0.05449 0.03751-0.16588 0.06943-0.33255 0.09319-0.15949 0.02534-0.26942 0.04921-0.3323 0.07398-0.2443 0.0905-0.37966 0.27619-0.40844 0.5633 0.0089 0.10619 0.0035 0.2138-0.01568 0.3228 0.0091 0.15353 0.01224 0.24405 0.0093 0.27177 0.01861 0.05565 0.02702 0.17664 0.02702 0.17664 0.03002 0.19624 0.03644 0.37748 0.01989 0.54356 0.0069 0.18145 0.04228 0.47761 0.10608 0.89011 0.06937 0.40386 0.10621 0.68734 0.11087 0.84865 0.01174 0.16336 0.01419 0.24416 0.0072 0.24241 0.01467 0.05083 0.02352 0.08607 0.02657 0.10569 0.01669 0.04584 0.01373 0.08834 0.01373 0.08834-0.0088 0.07334-0.05704 0.17441-0.14336 0.30299-0.03935 8e-3 -0.15399-0.0259-0.15399-0.0259-0.15958-0.04187-0.24891-0.08047-0.26762-0.11355-0.07594-0.05805-0.13802-0.13134-0.18615-0.21952-0.0434-0.02126-0.07103-0.06641-0.0828-0.13524-0.06608-0.03694-0.11467-0.10672-0.14568-0.20895-0.0974-0.13951-0.14985-0.22904-0.15676-0.26844-0.14288-0.39583-0.22931-0.72841-0.25663-0.99818-0.0318-0.23423-0.1332-0.75299-0.1332-0.75299 0.0041-0.05504 0.0053-0.08743 0.0035-0.09729 0.0049-0.02749-0.02345-0.13287-0.02345-0.13287 0.03331-0.04697 0.03374-0.0843 0.0011-0.11206 0.0059-0.02257-0.0208-0.11811-0.0208-0.11811 0.0056-0.0078 0.0032-0.04126-0.0072-0.1003-0.0031-0.05703-0.01388-0.15835-0.0324-0.30394-0.0076-0.12229-0.10916-0.56549-0.30727-1.3206-0.03734-0.04783-0.1255-0.26361-0.26737-0.64914-0.01062-0.05908-0.03826-0.13221-0.08312-0.21943 0.0054-0.02738-0.02399-0.13295-0.02399-0.13295-0.05204-0.12663-0.08976-0.19317-0.11288-0.19956-0.0249-0.01623-0.03826-0.02929-0.04006-0.03915l2e-6 1.7e-5z" style="font-variant-caps:normal;font-variant-east-asian:normal;font-variant-ligatures:normal;font-variant-numeric:normal"/>
   <path d="m74.502 66.096c-0.04132-0.15061-0.06725-0.23648-0.07746-0.25728-0.0512-0.10424-0.08176-0.19562-0.09143-0.27397-0.0097-0.07837-0.01845-0.11819-0.02633-0.11947-0.01209-0.22288 0.03853-0.37753 0.15278-0.46593 0.11307-0.09819 0.28911-0.1011 0.52707-0.01222 0.14752 0.09101 0.40182 0.22304 0.40182 0.22304 0.20247 0.0903 0.56619 0.21789 0.56619 0.21789 0.07207-0.29968 0.18261-0.94781 0.18261-0.94781 0.05786-0.15152 0.08435-0.25682 0.07884-0.31573 0.0026-0.05829 0.0129-0.12092 0.03095-0.18794 0.01981-0.13515 0.043-0.23606 0.06944-0.30271 0.02204-0.06286 0.02767-0.2325 0.02767-0.2325 0.0459-0.12428 0.1535-0.20077 0.32339-0.23258 0.09473-0.04482 0.18154-0.04175 0.25992 0.0097 0.2239 0.01687 0.40105 0.11721 0.53082 0.30532 0.0038 0.04921-0.0026 0.12773-0.01895 0.23566-0.01634 0.10791-0.02581 0.25018-0.0284 0.42694-0.05142 0.5055-0.18578 1.467-0.18578 1.467 0.04449 0.01539 0.09605 3e-3 0.09605 3e-3 0.11211 0.01228 0.29938-8e-3 0.29938-8e-3 0.04086 0.01045 0.08536 0.01595 0.13352 0.01641 0.17326-0.04762 0.30745-0.07782 0.40376-0.08862 0.09502-0.02056 0.15919-0.0367 0.19051-0.04706 0.02474 0.0094 0.09359 0.0082 0.20595-0.0048 0.11251-0.01301 0.23273 0.02724 0.35995 0.12077 0.12669 0.08369 0.19375 0.19385 0.20173 0.33241 0.0074 0.12833-0.06266 0.24638-0.20905 0.35107-0.02033 0.07437-0.09721 0.18163-0.09721 0.18163-0.12426 0.06351-0.2314 0.13512-0.32165 0.21568-0.09954 0.0758-0.56179 0.23007-1.332 0.37869 6e-3 0.26378-0.01812 0.74725-0.01812 0.74725 0.0197 0.04991 0.03078 0.0896 0.03329 0.11906-0.01828 0.41971-0.01901 0.94188-0.0022 1.5681 0.02719 0.22611 0.04419 0.37888 0.051 0.45724 0.02338 0.14716 0.03454 0.39762 0.03454 0.39762-0.0058 0.01916-0.0039 0.08271 0.0055 0.19071 0.02137 0.24555 0.06892 0.53645 0.14185 0.87332 0.07171 0.32536 0.11452 0.52655 0.12736 0.59419 0.01314 0.06922 0.02344 0.148 0.03093 0.2364 0.0069 0.16642-0.03485 0.27137-0.12458 0.31361-0.23134-0.01681-0.4308-0.08877-0.59955-0.21247-0.1325-0.04243-0.19393-0.08823-0.18436-0.1357-0.05528-0.05449-0.12214-0.15401-0.20106-0.29876-0.0079-0.07842-0.01603-0.12294-0.02427-0.13358-0.0536-0.03524-0.08703-0.11678-0.10012-0.24415-0.0083-0.01066-0.01905-0.04583-0.03238-0.1055-0.02632-0.11037-0.1146-0.37673-0.1146-0.37673-0.07795-0.12552-0.11667-0.28536-0.11525-0.47847-0.0041-0.0392-0.02031-0.08955-0.04864-0.1511 0.0083-0.01912-0.01089-0.10289-0.01089-0.10289-0.0083-0.0784-0.01083-0.13672-0.0076-0.17501-0.06594-0.27872-0.09702-0.60208-0.09123-0.96876 0.0048-0.37827 0.0066-0.64619 0.0045-0.81256-0.02032-0.05073-0.01939-0.11357 3e-3 -0.18852-0.0091-0.0881-0.0082-0.22379 0.0034-0.40654 0.01809-0.26044 0.01864-0.82699 0.01864-0.82699-0.04868-0.02438-0.09638-0.0391-0.14306-0.04416-0.42445-0.1623-0.64668-0.26741-0.66556-0.29891-0.03784-0.02517-0.15181-0.1223-0.15181-0.1223-0.05449-0.0077-0.13626-0.05321-0.24564-0.13707-0.11052-0.09365-0.18642-0.18269-0.22717-0.26594l-4e-6 -6e-6z" style="font-variant-caps:normal;font-variant-east-asian:normal;font-variant-ligatures:normal;font-variant-numeric:normal"/>
   <path d="m79.303 67.019c-0.02809 0.01058-0.12031-0.0089-0.12031-0.0089-0.03577 0.01576-0.14323 0.0063-0.14323 0.0063-0.22238 9e-3 -0.35579-0.02332-0.39974-0.09117-0.09941-0.18546-0.11994-0.37277-0.06016-0.56171 0.03841-0.14913 0.11324-0.23501 0.22453-0.25875 0.11057-0.03358 0.20553-0.06754 0.28433-0.10109 0.0398-0.0019 0.13662-0.02152 0.28798-0.06056 0.15987-0.03964 0.25181-0.07678 0.27448-0.10812 0.01018-0.02646-0.0061-0.11889-0.0061-0.11889-3e-3 -0.05929 0.02584-0.21087 0.08745-0.45448-0.0025-0.04955 0.01016-0.12523 0.03804-0.22709 0.01971-0.10125 0.04162-0.24243 0.06598-0.42393 0.05845-0.22984 0.14009-0.7307 0.14009-0.7307-0.0018-0.03969 0.02381-0.117 0.07722-0.23222-0.01801-0.02806-0.01634-0.08311 0.0051-0.16514 0.02984-0.08295 0.04373-0.14932 0.04153-0.19898 0.03407-0.06933 0.06501-0.24667 0.06501-0.24667 0.04745-0.05597 0.10526-0.20675 0.10526-0.20675-0.0034-0.07953 0.01771-0.18188 0.0635-0.30732 0.04827-0.0658 0.07995-0.12478 0.0949-0.17666 0.42048-0.39429 0.66154-0.60839 0.7223-0.62815 0.13233-0.0066 0.36006-0.05899 0.36006-0.05899 0.1967-0.03356 0.33566-0.06438 0.41217-0.08857 0.28479-0.03275 0.51869-0.01999 0.70187 0.04284 0.0559 0.01779 0.13024 0.01796 0.13024 0.01796 0.35934 0.26709 0.52162 0.57348 0.49088 0.92485 7.34e-4 0.07072-0.04557 0.16736-0.1384 0.28898-0.08425 0.11971-0.18146 0.20132-0.29179 0.24458-0.22977 0.048-0.45131 0.03606-0.66581-0.03475-0.21457-0.07083-0.3813-0.09715-0.4999-0.07705-0.11009 0.01866-0.20091 0.11383-0.27196 0.28576-0.07733 0.24309-0.15549 0.72217-0.23174 1.4349-0.0872 0.63417-0.12051 0.95881-0.10344 0.97658 0.04896 0.0077 0.11063-0.01495 0.11063-0.01495 0.08265 0.0087 0.1691 0.0065 0.25944-0.0068 0.15654 0.01625 0.43383 0.0079 0.43383 0.0079 0.14823-0.02424 0.33929-0.0014 0.57269 0.06683 0.24156 0.05663 0.34311 0.19214 0.30528 0.4122-0.02963 0.20762-0.13875 0.33992-0.32649 0.39366-0.53286 0.065-0.95783 0.17666-1.2769 0.3484-0.06364 0.03831-0.08725 0.28659-0.07101 0.74526 0.01173 0.46367 3.63e-4 1.3516 3.63e-4 1.3516 0.0054 0.14953 3.81e-4 0.23018-0.01498 0.24193-0.03784 0.04431-0.03132 0.11358 0.01934 0.20799-0.0071 0.02082-0.01207 0.10145-0.01482 0.24185 0.0047 0.12955 0.01188 0.21885 0.02148 0.26781-0.01417 0.04166-0.01127 0.2263 0.0084 0.55444 0.01935 0.3181 0.03444 0.52162 0.04537 0.61052-0.01538 0.0016-0.01282 0.07138 0.0076 0.20933 0.01408 0.08777 0.0081 0.22428 0.0081 0.22428 0.01511 0.41853 0.02031 0.66836 0.01563 0.74874-0.01691 0.37126-0.18266 0.60937-0.49325 0.70245-0.15557 0.04159-0.28691 0.02492-0.39489-0.04835-0.10748-0.06333-0.18219-0.13921-0.2239-0.22647-0.05868-0.12629-0.12916-0.33631-0.21234-0.6304 0.0085-0.04091-0.0086-0.16335-0.0086-0.16335-5.81e-4 -0.07028-0.03596-0.25143-0.03596-0.25143-0.0037-0.06928-6.35e-4 -0.15378 0.0092-0.25348-0.02036-0.09832-0.03137-0.16226-0.03295-0.19198 0.0046-0.1152-0.02054-0.38606-0.02054-0.38606-8.18e-4 -0.15872-0.01432-0.34175-0.04073-0.54882 0.0055-0.10038-0.01822-0.34151-0.01822-0.34151-0.0037-0.06892-0.0063-0.26307-0.0076-0.58032-0.01511-0.13817-0.02638-0.27655-0.03375-0.41514-0.0088-0.60581-0.02546-1.0008-0.05135-1.1886 0.01267-0.06035 0.01694-0.13015 0.01276-0.20935 0.0083-0.05599-0.01097-0.20791-0.01097-0.20791 0.01277-0.06041 0.01789-0.11538 0.01529-0.16489s-0.01368-0.10841-0.03331-0.17669c-0.11286-0.01266-0.20054-0.0078-0.2632 0.01529l1e-5 -1e-6z" style="font-variant-caps:normal;font-variant-east-asian:normal;font-variant-ligatures:normal;font-variant-numeric:normal"/>
   <path d="m85.723 67.506c-0.0071-0.11679-0.05615-0.38447-0.05615-0.38447 4.48e-4 -0.03083-0.0073-0.0646-0.02335-0.1013-0.0077-0.03894-0.01907-0.11262-0.03415-0.22125-0.06571-0.04401-0.1109-0.07818-0.13548-0.10241-0.0087-0.02414-0.06095-0.10675-0.06095-0.10675-3.17e-4 -0.03146-0.03589-0.12864-0.03589-0.12864-0.04134-0.01986-0.06592-0.05437-0.07371-0.10343 6.56e-4 -0.06151-0.01555-0.10325-0.04865-0.1253-0.02464-0.03447-0.04519-0.06489-0.06161-0.09128-0.01633-0.03663-0.03282-0.0579-0.04944-0.06382-0.07471-0.04199-0.17507-0.02126-0.30053 0.0613-0.12544 0.08255-0.20052 0.17221-0.22578 0.27015-0.14243 0.42164-0.21253 0.68816-0.21268 0.79985-0.11572 0.51545-0.14768 0.86927-0.09905 1.0613-0.01639 0.32983 0.01628 0.76922 0.09579 1.3219 0.01127 0.06791-2.3e-4 0.16805-2.3e-4 0.16805 0.07191 0.10606 0.13952 0.25368 0.20264 0.44316 0.0793 0.11441 0.13062 0.19954 0.15419 0.25528 0.0316 0.04374 0.0513 0.06976 0.05922 0.07814 0.0792 0.0531 0.12656 0.09301 0.14226 0.11999 0.06395-0.05579 0.10812-0.09695 0.1322-0.12308 0.0115-0.02402 9.52e-4 -0.10748 9.52e-4 -0.10748 0.04029-0.05045 0.07656-0.08981 0.10876-0.11802-8e-3 0.0019 0.02033-0.04064 0.08519-0.12797 0.0315-0.01874 0.06101-0.09161 0.06101-0.09161 0.12417-0.3577 0.18742-0.54273 0.18756-0.553 2.77e-4 -0.02054-0.0033-0.05547-0.01067-0.10476-0.03113-0.08429-0.01001-0.16114 0.06371-0.23105 0.02808-0.05191 0.15451-0.57724 0.15451-0.57724 0.01184-0.01929 0.0014-0.09255 0.0014-0.09255 0.01732-0.06597 0.0099-0.1101-0.02241-0.13244 0.01194-0.02445 0.0017-0.10796 0.0017-0.10796 0.01703-0.0454 0.02588-0.08868 0.02652-0.12983 0.03541-0.17319 0.04937-0.27411 0.04162-0.30284 4.93e-4 -0.03086 0.0052-0.06795 0.01409-0.11127 0.0091-0.05362 0.02204-0.09291 0.0389-0.11787 0.02549-0.0478-0.015-0.08814-0.12148-0.12148l-2e-6 -1.4e-5zm-1.7567-2.4523c0.07552-0.01769 0.13015-0.04087 0.16373-0.06923 0.04204-0.04058 0.11341-0.09323 0.21465-0.15876 0.11017-0.06791 0.36228-0.12952 0.76116-0.19372 0.22006-0.0069 0.46541 0.0597 0.73391 0.20043 0.27806 0.08704 0.49879 0.24958 0.66203 0.4908 0.22008 0.69685 0.33167 1.3291 0.34136 1.8918-0.0067 0.86528-0.09304 1.6059-0.25334 2.2139-0.21975 0.70791-0.35834 1.1213-0.42537 1.2526-0.01877 0.13833-0.08638 0.33019-0.2017 0.57475-0.03975 0.01002-0.07162 0.02314-0.09563 0.0394-1.79e-4 0.01029-0.02457 0.04718-0.073 0.11045-0.04068 0.07159-0.10056 0.11714-0.17966 0.13646-0.10332 0.05597-0.16672 0.09668-0.19069 0.12293-0.01617 0.03457-0.05581 0.05942-0.11885 0.07435-0.0879 0.04561-0.29542 0.09958-0.29542 0.09958-0.09534 0.03641-0.31784 0.07172-0.31784 0.07172-0.2115 0.04686-0.37948 0.04666-0.50445 0.0015-0.10587-0.06501-0.35238-0.23306-0.35238-0.23306-0.02818-0.04087-0.11823-0.15931-0.11823-0.15931-0.02345 0.0046-0.03915-0.0025-0.0471-0.02122-2.03e-4 -0.0304-0.0043-0.05496-0.01224-0.0737-0.07088-0.05715-0.10678-0.13146-0.1075-0.22252-0.0876-0.15549-0.13199-0.2686-0.13266-0.33942-6.69e-4 -0.07081-0.01294-0.1191-0.03685-0.14495-0.0015-0.15155-0.03906-0.3675-0.11353-0.64685 0.0027-0.05706-0.02615-0.20765-0.02615-0.20765 0.01078-0.04341-0.0019-0.16669-0.0019-0.16669-0.0097-0.15001-0.04349-0.32072-0.10191-0.51198 0.01573-0.02323 0.01507-0.07879-0.0021-0.16658-0.0029-0.23225-7.92e-4 -0.38941 0.0063-0.4718-0.0013-0.05121-0.03868-0.18985-0.03868-0.18985 0.02342-0.06525 0.03083-0.12236 0.02213-0.17127-6.23e-4 -0.05046 0.01055-0.12858 0.03364-0.23432 0.01123-0.02331-0.0013-0.10603-0.0013-0.10603 0.02576-0.16788 0.0426-0.53999 0.0426-0.53999-8.08e-4 -0.07071 0.0067-0.12791 0.02262-0.17165 0.01136-0.02341-0.0012-0.10608-0.0012-0.10608 0.01637-0.0033 0.02809-0.05636 0.0352-0.1591 0.03183-0.03269 0.06029-0.13401 0.06029-0.13401 0.01549-0.0294 0.01111-0.1239 0.01111-0.1239-3.02e-4 -0.03033-0.0047-0.0598-0.01325-0.08842 0.03162-0.06821 0.05962-0.24052 0.05962-0.24052-1.9e-4 -0.02022 0.02811-0.08701 0.08517-0.20063-4.32e-4 -0.0506 0.02788-0.13271 0.08522-0.24665-3.86e-4 -0.05063 0.01991-0.11591 0.06104-0.19602-6.34e-4 -0.09117 0.04431-0.21773 0.1355-0.38051 0.08309-0.12039 0.15842-0.18865 0.22557-0.20438z" style="font-variant-caps:normal;font-variant-east-asian:normal;font-variant-ligatures:normal;font-variant-numeric:normal"/>
   <path d="m88.429 62.399c0.03042-0.10238 0.04303-0.1941 0.0377-0.27512-0.0053-0.08085 0.0078-0.29187 0.03974-0.63225 0.0485-0.10802 0.06096-0.29291 0.0366-0.55383 0.0066-0.15701 0.06727-0.33622 0.1829-0.53795 0.11611-0.21226 0.23994-0.3806 0.37118-0.50475 0.01193 0.01608-7.48e-4 0.01575-7.48e-4 0.01575 0.03833-0.05345 0.1217-0.11082 0.25037-0.17199 0.31288-0.15022 0.53168-0.10953 0.65313 0.12273-0.04081 0.08532-0.07237 0.3283-0.09501 0.72956-0.01837 0.54961-0.0911 1.6152-0.0911 1.6152-6e-3 0.26143-0.02186 0.61866-0.04754 1.0729 2.78e-4 0.21188-0.03403 0.60181-0.03403 0.60181 0.0096 0.34918-0.0064 1.014-0.0064 1.014-0.01569 0.27459-0.01841 0.54535-0.0085 0.81245-0.02917 0.50687-0.0383 0.8111-0.02749 0.91164 0.01083 0.10069 0.01497 0.17226 0.01251 0.2145 0.0062 0.09606-0.01474 0.25361-0.01474 0.25361-0.01351 0.23241-0.01493 0.39917-0.0044 0.49997-0.0062 0.10569 0.0083 0.21061 0.0431 0.31493-0.0511 0.1706-0.06145 0.35016-0.0319 0.53921 0.03395 0.11508 0.03645 0.27542 8e-3 0.48109 0.04189 0.1129 0.048 0.27745 0.01888 0.49371 0.02108 0.03998 0.03108 0.08481 0.03108 0.08481 0.01598 0.05704 0.01584 0.13594 0.01584 0.13594 0.02429 0.12842-0.0022 0.29704-0.07867 0.50574-0.06766 0.19578-0.19628 0.35142-0.3854 0.46686-0.18169 0.12376-0.37651 0.06936-0.58851-0.1611-0.0065-0.02925-0.0487-0.06402-0.12666-0.10417-0.09359-0.04606-0.1632-0.26996-0.20973-0.67076-0.0361-0.09325-0.05172-0.19749-0.04666-0.31276-0.08583-0.06862-0.12498-0.1972-0.11699-0.38562 0.0159-0.10371 0.01465-0.34554 0.01465-0.34554-0.0016-0.15471-0.01369-0.25461-0.03634-0.2998-0.02307-0.0347-0.03921-0.13864-0.04849-0.31169 0.0339-0.34155 0.06851-1.0589 0.06851-1.0589 0.01432-0.34546 0.01695-0.60957 0.0077-0.79301 0.02606-0.34459 0.04394-1.0672 0.04394-1.0672-0.01151-0.33778-0.01385-0.5949-0.0066-0.77294 0.0076-0.18746 0.05301-0.56951 0.1373-1.1421 0.0017-0.04186-9e-3 -0.09542-0.03226-0.16059 0.03278-0.16496 0.05453-0.37324 0.06501-0.62438l-5e-6 7e-6z" style="font-variant-caps:normal;font-variant-east-asian:normal;font-variant-ligatures:normal;font-variant-numeric:normal"/>
   <path d="m93.248 60.33c0.02551 0.0088 0.0416-0.0098 0.0416-0.0098 0.32175-0.05488 0.51918 0.01359 0.59019 0.19768 0.0815 0.17168 0.09802 0.35222 0.05108 0.54061-0.03788 0.18705-0.18559 0.43736-0.43981 0.75681-0.24494 0.31717-0.4547 0.49249-0.63364 0.5256-0.05411 0.01318-0.15865 0.0073-0.31481-0.01601-0.14703-0.02556-0.22469-0.04177-0.23276-0.05012-0.0053-0.04043-0.02952-0.06552-0.07266-0.07513-0.22466-0.04569-0.33302-0.2821-0.32513-0.71225 0.0034-0.04268 0.03316-0.08212 0.08934-0.11819-0.03629 0.0098-0.03571-0.05298 2e-3 -0.18847 0.08262-0.25192 0.23691-0.44542 0.46366-0.57763 0.29013-0.13827 0.55088-0.22896 0.781-0.27306l-1e-5 3e-6zm-0.41641 4.0754c-0.14907 0.92621-0.47114 2.7375-0.47114 2.7375 0.0046 0.07657-0.01784 0.19284-0.01784 0.19284-5e-3 0.05357-0.0052 0.10076-8.23e-4 0.14156-0.01234 0.0449-0.02147 0.09948-0.02742 0.16376-0.02525 0.39809-0.10704 1.157-0.10704 1.157-8.39e-4 0.35608-0.02108 0.57078-0.05947 0.64279-0.0508 0.03333-0.11072 0.07944-0.17959 0.13838-0.06985 0.06966-0.19654 0.11159-0.38073 0.12744-0.17704 0.02446-0.30394 0.02135-0.38118-0.01055-0.03717 0.0089-0.14278-0.0091-0.14278-0.0091-0.08141 0.02169-0.1307-0.01202-0.14794-0.10132-0.09963-0.05669-0.14869-0.15283-0.14675-0.28896-0.02066-0.0465 0.01336-0.12886 0.10266-0.24696-0.0043-0.05098-0.01517-0.12112-0.03282-0.21016-0.01688-0.09973-0.01815-0.19322-0.0036-0.28064 0.02871-0.05997 0.02226-0.1365-0.01976-0.22926 0.0085-0.11703 0.03069-0.25352 0.06664-0.40937 0.03643-0.05165 0.05633-0.20845 0.05917-0.46993 0.06657-0.12254 0.10726-0.27977 0.1216-0.47144-0.02101-0.16112 0.0042-0.33496 0.0765-0.5217 0.07234-0.18675 0.11958-0.36655 0.14121-0.53943 0.03753-0.27109 0.09623-0.54282 0.17675-0.81518 0.0083-0.10644 0.06052-0.28802 0.15753-0.54373 0.10567-0.25796 0.17435-0.41257 0.20396-0.462 0.08823-0.09224 0.23216-0.31214 0.23216-0.31214 0.09356-0.04627 0.24775-0.17396 0.24775-0.17396 0.01561 0.01083 0.01324-0.0034 0.01324-0.0034 0.10973-0.06989 0.21551-0.09128 0.31675-0.06394 0.24547 0.05443 0.39168 0.11023 0.43814 0.16201-0.03953 0.05113-0.06782 0.12066-0.08495 0.20853-0.01712 0.08787-0.03318 0.16501-0.04817 0.23142-0.04029 0.06191-0.07429 0.14856-0.10202 0.25994l1.2e-5 -1.1e-5z" style="font-variant-caps:normal;font-variant-east-asian:normal;font-variant-ligatures:normal;font-variant-numeric:normal"/>
   <path d="m96.552 64.097c0.0059-0.42553-0.13645-0.61627-0.4259-0.55843-0.16131 0.02505-0.3175 0.16876-0.46652 0.42948-0.21132 0.39541-0.34614 0.89424-0.41086 1.495-0.05463 0.58839-0.07969 1.0152-0.07483 1.2786 0.01473 0.25188 0.06669 0.46726 0.15486 0.64741 0.04473 0.14302 0.13329 0.20153 0.2664 0.17768 0.23025-0.02293 0.43674-0.28772 0.62503-0.79953 0.06313-0.11656 0.162-0.39264 0.162-0.39264 0.05056-0.05598 0.06773-0.11003 0.05113-0.16245 0.12733-0.2727 0.22625-0.59141 0.29468-0.9566-0.07346-0.07188-0.11384-0.139-0.12071-0.20269-0.02234-0.18024-0.0288-0.30205-0.01851-0.36668-0.0522-0.05055-0.07093-0.15053-0.05602-0.30047 0.01492-0.14994 0.02131-0.24615 0.01926-0.28862h-4e-6zm-2.5813 1.8266c0.05897-0.26466 0.14653-0.83273 0.14653-0.83273 0.14641-0.75313 0.40422-1.4237 0.78269-2.0012 0.35871-0.48976 0.82401-0.77994 1.3886-0.83974 0.03786 0.01175 0.08173-0.0069 0.08173-0.0069 0.52697-0.04329 0.88925 0.08484 1.0785 0.3506 0.21326 0.23412 0.35154 0.49617 0.41685 0.77773 0.07411 0.28144 0.11564 0.48964 0.1268 0.61882 0.01122 0.13-0.0021 0.31783-0.03969 0.56399-0.06916 0.46008-0.19157 0.7172-0.36559 0.77673-0.06657 1.0181-0.294 1.8234-0.65019 2.4204-0.12498 0.24658-0.28857 0.51495-0.4895 0.80976-0.1447 0.19703-0.36041 0.31185-0.65057 0.35584-0.28777 0.02258-0.53488 0.029-0.74655 0.01313-0.20281-0.01682-0.4176-0.1183-0.64881-0.30232-0.2298-0.19476-0.3681-0.54275-0.41365-1.05-0.05637-0.48394-0.06318-1.0354-0.01709-1.6541l-1e-6 -4e-6z" style="font-variant-caps:normal;font-variant-east-asian:normal;font-variant-ligatures:normal;font-variant-numeric:normal"/>
  </g>
 </g>
</svg>
