<?xml version="1.0" encoding="UTF-8"?>
<svg width="35.296mm" height="13.422mm" version="1.1" viewBox="0 0 35.296 13.422" xmlns="http://www.w3.org/2000/svg" xmlns:cc="http://creativecommons.org/ns#" xmlns:dc="http://purl.org/dc/elements/1.1/" xmlns:rdf="http://www.w3.org/1999/02/22-rdf-syntax-ns#">
 <metadata>
  <rdf:RDF>
   <cc:Work rdf:about="">
    <dc:format>image/svg+xml</dc:format>
    <dc:type rdf:resource="http://purl.org/dc/dcmitype/StillImage"/>
    <dc:title/>
   </cc:Work>
  </rdf:RDF>
 </metadata>
 <g transform="translate(-99.513 -107.22)">
  <g transform="matrix(.89194 0 0 .85791 12.66 16.293)" stroke-width=".26458" aria-label="PROJECTS">
   <path d="m103.5 109.74c-0.0857-0.14216-0.33099-0.19206-0.73758-0.14559-0.11073 0.33513-0.3025 0.95305-0.3025 0.95305-0.23693 0.91431-0.31555 1.1915-0.71468 3.0483 0.0629-0.0253 0.10747-0.0539 0.13387-0.086 0.0657-0.0653 0.12717-0.10036 0.18505-0.1052 0.0906-0.0376 0.19134-0.13555 0.30059-0.29394 0.24505-0.26836 0.43394-0.4943 0.5677-0.67317 0.14792-0.18706 0.42135-0.59975 0.42135-0.59975 0.0204-0.0116 0.0727-0.1248 0.15992-0.33982 0.0889-0.22401 0.15823-0.41016 0.20406-0.55187 0.0715-0.29437 0.10373-0.46043 0.0806-0.4989 6e-3 -0.0205 6e-3 -0.14474 0.0153-0.37621-0.0132-0.0307-0.0544-0.0985-0.1229-0.21417-0.0645-0.039-0.12788-0.0779-0.19069-0.11675zm-0.92542-1.6058c0.18137-0.054 0.55338-0.20662 0.55338-0.20662 0.22426-0.0461 0.68031-0.18143 0.68031-0.18143 0.0965 0.0255 0.28754 0.0344 0.28754 0.0344-2e-3 0.0417 0.0375 0.062 0.11814 0.061 0.17494-0.0352 0.28592 0.12333 0.36246 0.47246 0.0444 0.037 0.0594 0.1089 0.049 0.21533-0.0203 0.25886-0.0185 0.72042-0.0185 0.72042 3e-3 0.0209-4e-3 0.0772-0.0176 0.17135-9e-3 0.0828-0.0148 0.18085-0.0138 0.29244-0.0114 1e-3 -0.0174 0.0423-0.0156 0.12334 6e-4 0.22558 2e-3 0.35064-0.0159 0.39507 0.0183 0.0396 0.01 0.16909-0.0115 0.39154-0.0216 0.22383-0.0395 0.36943-0.0677 0.45371 4e-3 0.01-0.0246 0.12625-0.0801 0.34922-0.12528 0.49236-0.24499 0.8445-0.39859 1.0926-0.052 0.13813-0.17948 0.37549-0.17948 0.37549-0.0882 0.18125-0.29263 0.50743-0.29263 0.50743-0.0458 0.0786-0.16059 0.1945-0.16059 0.1945-0.31074 0.43076-0.67323 0.77218-1.0817 1.0245-0.016 0.0113-0.0389 0.023-0.0687 0.0351-0.0851 0.061-0.27568 0.14037-0.27568 0.14037-0.13965 0.0745-0.43929 0.18127-0.43929 0.18127-0.0759 0.30256-0.21177 0.99131-0.5317 2.1577-0.0994 0.4046-0.15722 0.62557-0.15874 0.67543-0.129 0.3744-0.24123 0.63286-0.31688 0.75754-0.081 0.13793-0.16559 0.23411-0.25149 0.28764-0.0907 0.0654-0.21493 0.0973-0.37332 0.0973-0.05127 0.02-0.11487-9e-3 -0.19327-0.084-0.08253-0.0637-0.13158-0.15861-0.14838-0.28377 0.05118-0.16503 0.13252-0.53141 0.13252-0.53141 0.02211-0.0217 0.03879-0.12663 0.0467-0.31074-0.01929-0.0869-0.0054-0.2373 0.03886-0.45023 0.15524-0.49976 0.41098-1.4934 0.41098-1.4934 0.0534-0.15222 0.14166-0.49443 0.14166-0.49443-0.40694 0.072-0.58525-0.0708-0.53997-0.42782 1.62e-4 -0.18591 0.03175-0.3119 0.09002-0.37632 0.04232-0.0542 0.11384-0.20248 0.11384-0.20248 0.13965-0.20018 0.31309-0.3118 0.52517-0.33316 0.0701 7e-3 0.19801-0.0196 0.19801-0.0196-7e-3 -0.0191 8e-3 -0.0893 0.0444-0.21067 0.0554-0.19768 0.15479-0.6323 0.15479-0.6323 0.0317-0.0773 0.0832-0.27214 0.0832-0.27214 0.0211-0.0517 0.0519-0.19554 0.0519-0.19554 0.0339-0.0913 0.0623-0.19159 0.0858-0.30133 0.0131-0.0168 0.0286-0.0907 0.0286-0.0907 0.0376-0.11166 0.10441-0.37623 0.10441-0.37623 0.0343-0.0822 0.0943-0.28767 0.0943-0.28767 0.0169-0.0367 0.0423-0.1508 0.0423-0.1508 0.24112-0.71911 0.3929-1.174 0.42471-1.365-0.2469 0.21544-0.39972 0.33585-0.46416 0.36317-0.0608 0.0172-0.12784-0.0474-0.20007-0.19269-0.0221-0.0839-0.0148-0.18143 0.0218-0.29225 3e-3 -0.24051 0.048-0.44423 0.13952-0.61025 0.0403-0.0818 0.13029-0.21615 0.27178-0.39979 0.0207-0.0409 0.12107-0.14346 0.30631-0.30654 0.17468-0.20055 0.41226-0.36466 0.71287-0.49114h1e-5z" style="font-variant-caps:normal;font-variant-east-asian:normal;font-variant-ligatures:normal;font-variant-numeric:normal"/>
   <path d="m106.5 111.1c-0.0681 0.34238-0.1031 0.64925-0.11194 0.90107-0.0184 0.14402-0.0383 0.24218-0.0604 0.29503-0.0154 0.0526-0.0261 0.17056-0.0334 0.35845-7e-3 0.18783 0.0252 0.29703 0.10012 0.32537 0.076-3e-3 0.18975-0.0721 0.33792-0.20539 0.0851-0.0897 0.22187-0.30906 0.22187-0.30906 0.0768-0.0981 0.2516-0.27713 0.51891-0.5381 0.093-0.1141 0.2458-0.38111 0.2458-0.38111 0.0419-0.054 0.0965-0.20348 0.0965-0.20348 0.0221-0.0325 0.038-0.13911 0.038-0.13911 0.0515-0.13465 0.0672-0.2719 0.0506-0.41272 4e-3 -0.0717-0.0109-0.25749-0.0109-0.25749-0.03-0.31238-0.0362-0.49645-0.0484-0.54701-5e-3 -0.0612-0.0177-0.12217-0.0386-0.18286-0.0192-0.0711-0.0414-0.132-0.0677-0.18241-0.0262-0.0503-0.0394-0.0863-0.0409-0.10699-0.0726-0.0606-0.22004-0.22254-0.22004-0.22254-3e-3 -0.0104-0.0343-0.0242-0.0934-0.0415-0.0794-0.0689-0.21605-0.0704-0.41517-4e-3 -0.0663 0.18858-0.18617 0.51308-0.18617 0.51308-0.0139 0.0632-0.055 0.17306-0.11862 0.33052-0.0572 0.15615-0.0791 0.26946-0.0701 0.33924-0.0101 0.0307-0.0214 0.0926-0.0317 0.18364-9e-3 0.0811-0.0269 0.19318-0.0511 0.33527-4e-3 0.0506-8e-3 0.10117-0.0113 0.15173zm-0.3547 3.0609c-0.0613 0.0462-0.0993 0.0695-0.11352 0.0699-0.0107 0.034-0.0207 0.0955-0.0312 0.18609 3.9e-4 0.0836-0.0249 0.20482-0.0249 0.20482-9e-3 0.0729-0.0737 0.33338-0.21015 0.75242-3e-3 0.0761-0.0321 0.1789-0.0321 0.1789-0.0332 0.17969-0.0812 0.32578-0.14046 0.435-0.0637 0.28142-0.23731 0.82092-0.23731 0.82092-0.0569 0.17484-0.19594 0.47691-0.19594 0.47691-0.0366 0.0767-0.0611 0.14783-0.0734 0.21351-5e-3 0.0614-0.0655 0.3123-0.20003 0.73666-0.12414 0.41536-0.24767 0.7289-0.34697 0.91615-0.0417 0.0802-0.13401 0.1783-0.13401 0.1783-0.17301 0.0647-0.27281 0.0729-0.29925 0.0264-0.0265-0.0468-0.0866-0.0831-0.18033-0.1091-0.0937-0.0261-0.14498-0.0466-0.15393-0.0619-7e-3 -8.7e-4 -0.032-0.0324-0.0752-0.0937-0.0413-0.047-0.0676-0.0849-0.0788-0.11407-4e-3 -0.0282-0.0139-0.0713-0.0296-0.12802-0.0482-0.13033 2e-3 -0.39001 0.13108-0.77648 0.0115-0.0782 0.0446-0.1673 0.0988-0.26753-0.0307-0.0414-0.0121-0.14355 0.0522-0.30589 0.0444-0.0738 0.0915-0.19268 0.13763-0.35346 0.0462-0.16108 0.0917-0.28868 0.13935-0.38567 0.0319-0.0809 0.0749-0.29071 0.0749-0.29071 0.028-0.11222 0.10629-0.32588 0.22787-0.65783 0.0199-0.0937 0.0473-0.175 0.0827-0.24456-0.01-0.0234 0.0281-0.12147 0.10964-0.29401-8e-3 -0.0353 0.041-0.19957 0.13651-0.4933-0.0163-0.0334-4e-3 -0.13356 0.0337-0.29983 0.0392-0.17755 0.0735-0.31304 0.10656-0.41205 0.025-0.20604 0.0482-0.32885 0.0737-0.37251-4e-3 -0.0321-3e-3 -0.13223-3.6e-4 -0.30079 0.0215-0.0495 0.0387-0.19015 0.0387-0.19015 0.0117-0.12547 0.06-0.32023 0.1417-0.58075 0.1023-0.58917 0.15644-0.9005 0.16141-0.95096 0.14267-0.5717 0.25175-0.97646 0.27312-1.1004 0.0201-0.0115 0.0535-0.10907 0.10888-0.29492 0.0575-0.19632 0.0862-0.3358 0.0781-0.41713-0.31095 0.19707-0.58288 0.4206-0.81217 0.66887-0.15618 0.18213-0.25035 0.25491-0.28425 0.21739-0.0673-0.0744-0.0832-0.188-0.0455-0.34132 0.013-0.0665 0.0289-0.24356 0.0289-0.24356-3e-3 -9e-3 -2e-3 -0.0659 5e-3 -0.16695 5e-3 -0.11138 0.0205-0.19463 0.0432-0.24724 0.0173-0.0532 0.0367-0.11958 0.061-0.20451 0.0221-0.094 0.0465-0.15852 0.0697-0.1913 0.11933-0.18596 0.24487-0.32884 0.36705-0.42418 0.107-0.0829 0.33069-0.30162 0.33069-0.30162 0.0739-0.0448 0.22625-0.18311 0.22625-0.18311 0.0114-1e-3 0.17285-0.12824 0.51552-0.39634 0.0375-0.0482 0.10397-0.0942 0.19899-0.1376 0.0957-0.0437 0.32165-0.16722 0.69905-0.38086 0.19689-0.0554 0.31025-0.0847 0.33913-0.0877 0.2191-0.0699 0.34685-0.0463 0.39453 0.0687 0.0548 0.0426 0.0885 0.0634 0.10005 0.0623 0.025-0.0142 0.0452-0.016 0.0605-5e-3 0.0211 0.0101 0.0374 0.0146 0.049 0.0136-0.0153 0.0252 3e-3 0.0355 0.055 0.0311 0.0258 0.0564 0.0872 0.11759 0.0872 0.11759 0.029-2e-3 0.0481 0.0258 0.0602 0.0839 0.0414-0.0151 0.0698 0.0124 0.0885 0.0814 0.031 0.0564 0.0729 0.14114 0.13293 0.25245 0.0659 0.11099 0.0855 0.20639 0.053 0.28757 0.0261 0.0212 0.0379 0.0821 0.0427 0.1823 0.0136 0.0819 0.0388 0.19656 0.0388 0.19656 0.0167 0.1517 0.0623 0.40194 0.0623 0.40194 0.0102 0.0106 0.0244 0.0622 0.0497 0.15656 0.0279 0.17814 0.0514 0.28045 0.0539 0.31151 2e-3 0.0311 5e-3 0.0621 8e-3 0.0929 8e-4 4e-3 0.0229 0.12441 0.0546 0.26 0.0729 0.28624 0.11424 0.52711 0.10259 0.74397 3.9e-4 0.0102-0.0267 0.16824-0.0745 0.47706-0.0875 0.55099-0.23899 0.98743-0.49017 1.3349-0.0568 0.0702-0.12103 0.15066-0.21357 0.266-0.0895 0.1005-0.16296 0.19004-0.21962 0.26857-0.27023 0.26217-0.43431 0.42518-0.48807 0.49517-0.0454 0.0682-0.0874 0.12537-0.12548 0.17125-0.0315 0.0448-0.12231 0.0873-0.12231 0.0873 0.014 0.0495 0.0146 0.10154 0.0146 0.10154 3e-3 -0.0447 0.0194-0.0239 0.0485 0.0673 0.0369 0.0792 0.0603 0.14234 0.0707 0.18838-5e-3 0.0579 0.0246 0.12706 0.0883 0.20872 0.0155-0.0119 0.0323-3.3e-4 0.0502 0.0349 0.0359 0.0702 0.0461 0.18307 0.027 0.33947 0.0433 0.047 0.10359 0.19388 0.16619 0.44216 0.0816 0.12529 0.14043 0.30343 0.16896 0.53707 0.0312 0.10498 0.056 0.17745 0.0771 0.21797 0.013 0.0798 0.0487 0.1864 0.10545 0.32396 0.0562 0.13634 0.0917 0.23643 0.10713 0.29124 0.0189 0.0423 0.0396 0.0919 0.0619 0.14871 0.0811 0.19835 0.13171 0.35386 0.15479 0.45464 0.0323 0.0798 0.0816 0.17898 0.0816 0.17898 0.1212 0.53113 0.16348 0.83748 0.1638 0.8831-0.0391 0.10242-0.13749 0.25348-0.29697 0.45177-0.085 0.23739-0.31537 0.42211-0.68892 0.54736-0.10625-0.0129-0.2131-0.13485-0.32699-0.36146-0.11863-0.21147-0.19255-0.42908-0.22321-0.65272-0.16597-0.48826-0.2751-0.84152-0.3092-1.0926-0.14224-0.5721-0.24161-1.0855-0.28535-1.555-0.0221-0.0376-0.0468-0.0993-0.0754-0.18498-0.0213-0.0854-0.0466-0.15198-0.0748-0.20001-0.0155-0.13521-0.0749-0.44324-0.0749-0.44324-0.0672-0.22595-0.14056-0.42851-0.14056-0.42851-0.0134-0.0733-0.0273-0.14601-0.0416-0.21823z" style="font-variant-caps:normal;font-variant-east-asian:normal;font-variant-ligatures:normal;font-variant-numeric:normal"/>
   <path d="m110.98 114.33c-0.0158 0.58227-0.20772 1.7918-0.20772 1.7918-0.0457 0.81533-0.0567 1.4057 0.0636 1.7821 0.0132 0.0785 0.0693 0.16852 0.1678 0.27085 0.0771 0.0757 0.22024 0.16023 0.22024 0.16023 0.0348 3e-3 0.0823-0.0247 0.14222-0.0829 0.0578-0.0269 0.10389-0.0626 0.13817-0.10708 0.089-0.13467 0.17245-0.25364 0.25089-0.35716 0.0785-0.10348 0.11363-0.15528 0.10667-0.15577 0.0443-0.0588 0.0816-0.15726 0.10998-0.29354 0.0324-0.0436 0.0862-0.14061 0.15765-0.2877 0.28648-0.84395 0.42843-1.318 0.54524-1.551 0.11623-0.59075 0.15366-0.9919 0.16156-1.1284 0.032-0.55352-0.051-1.1725-0.28382-1.8649-0.0891-0.13845-0.21364-0.67389-0.34705-1.43-0.0675-0.1544-0.11402-0.2916-0.14028-0.41458-0.0279-0.13317-0.0712-0.26989-0.12761-0.41233-0.0514-0.15348-0.0848-0.25384-0.10848-0.30571-0.0233-0.0509-0.039-0.0971-0.0476-0.1384-3e-3 -0.0519-0.0184-0.1136-0.0452-0.18611-0.0982-0.22891-0.26465-0.12473-0.44943 0.41916-0.0341 0.17069-0.12241 0.46567-0.12241 0.46567 2e-3 0.0204-9e-3 0.2089-0.0249 0.57054-0.0242 0.55866-0.0334 0.93947-0.0267 0.99467 0.0135 0.0591 6e-3 0.28974-0.0479 0.6771-5e-3 0.0346-2e-3 0.11165 5e-3 0.2377 0.0137 0.12437 8e-3 0.30496-0.0251 0.54105-0.0267 0.22818-0.0447 0.48849-0.0645 0.80467l-1.6e-4 3e-5zm-1.1923-1.2896c0.0226-0.41214-9e-3 -1.2027-9e-3 -1.2027-6e-3 -0.0627-1e-3 -0.15728 0.0136-0.28234 0.0214-0.12447 0.0341-0.20389 0.0377-0.23411-2e-3 -0.0206 1e-3 -0.0568 0.01-0.10843-0.0266-0.27664 4e-3 -0.51596 0.0901-0.72394 0.12196-0.56104 0.24425-0.94338 0.36054-1.2435 0.10946-0.28252 0.24242-0.52554 0.38176-0.72502 0.0222-0.0576 0.11219-0.15289 0.27565-0.28854 0.33507-0.27333 0.62702-0.42314 0.83769-0.43198 0.21381-9e-3 0.38466 0.0526 0.53445 0.1808 0.0582 0.0227 0.10921 0.11087 0.17605 0.2623 0.0725 0.15042 0.12564 0.22822 0.14157 0.23919 0.0821 0.11489 0.13952 0.35247 0.24758 0.70724 0.1204 0.3614 0.20601 0.5597 0.23607 0.73612 0.0341 0.16077 0.10755 0.39406 0.24401 0.73794 0.14178 0.33503 0.23 0.57174 0.26634 0.74854 0.0374 0.18195 0.0947 0.38068 0.18962 0.74745 0.0964 0.34597 0.14452 0.63424 0.15571 0.86152 0.0926 1.6812-0.37244 3.2186-0.81497 4.1603-0.20723 0.66592-0.42507 1.1107-0.59363 1.2862-0.0359 0.13244-0.11907 0.32946-0.11907 0.32946-0.0639 0.18908-0.17056 0.39988-0.32027 0.6313-0.14278 0.23202-0.28996 0.40632-0.44077 0.52234-0.0356 0.0454-0.19728 0.10388-0.48517 0.17202-0.41916 0.11984-0.69164 0.17041-0.81003 0.15721-0.18971 0.0923-0.37913 0.0459-0.56629-0.13753-0.18551-0.16723-0.29207-0.25965-0.32237-0.27939-0.0352-4e-3 -0.0835-0.0983-0.14613-0.28146-0.0607-0.1667-0.0936-0.29746-0.0984-0.39284-0.0517-0.19554-0.0717-0.34631-0.0589-0.45411 0.0221-0.19674 0.0482-0.64271 0.0482-0.64271-0.0337-0.20188-0.0166-0.47706 0.04-0.82538 0.0599-0.35909 0.0754-0.588 0.0625-0.68536-2.9e-4 -0.15503 2e-3 -0.31466 6e-3 -0.47869 0.0255-0.0921 0.064-0.26624 0.10342-0.50166 0.0183-0.0477 0.0316-0.19701 0.0316-0.19701 2e-3 -0.19665 0.033-0.38205 0.0957-0.55843 0.017-0.0882 0.0316-0.19515 0.0423-0.31881 0.0185-0.13313 0.0444-0.32935 0.0681-0.56518 0.0127-0.0615 7e-3 -0.23064 7e-3 -0.23064 0.0709-0.34895 0.0915-0.58143 0.0813-0.69016h-1.6e-4z" style="font-variant-caps:normal;font-variant-east-asian:normal;font-variant-ligatures:normal;font-variant-numeric:normal"/>
   <path d="m116.26 111.03c-0.061-0.58334-0.22708-0.92204-0.44059-1.7595-0.4282 0.0994-0.65188 0.14964-0.67099 0.14984-0.0191 2e-4 -0.0625 0.0113-0.13005 0.0333-0.0625 0.0113-0.15425 0.0177-0.27534 0.0192-0.12227-9e-3 -0.19331-0.0186-0.21348-0.0289-0.0534-0.0306-0.0901-0.12606-0.0964-0.28695-6e-3 -0.16171 0.0218-0.31059 0.0802-0.44611 0.0583-0.13526 0.11956-0.22322 0.17269-0.25827 0.10686-0.11675 0.26246-0.21937 0.46194-0.30549 2e-3 -0.012 0.10217-0.0728 0.30398-0.1849 0.36259-0.19989 0.70928-0.34412 1.0237-0.42319 0.0282-0.0131 0.0484-0.0197 0.0605-0.0197 0.0582 5e-3 0.16665-0.0397 0.16665-0.0397 0.0883 0.0248 0.25729 0.0191 0.25729 0.0191 0.0566 0.0703 0.16623 0.1545 0.16623 0.1545 0.0657 0.0557 0.12489 0.23828 0.2701 0.55285 7e-3 0.0525-9e-5 0.1061-9e-5 0.1061 0.0448 0.0706 0.0681 0.11631 0.0672 0.13968-8.7e-4 0.0228 8.6e-4 0.0638 7e-3 0.1204-2e-3 0.27339-0.0296 0.42973-0.11949 0.48408-0.0243 0.0109-0.0979 5e-3 -0.22055-0.0167-0.22025-0.0546-0.35303-0.0547-0.39945 1.9e-4 0.0107 0.13012 0.0335 0.228 0.0613 0.29147 0.0279 0.0557 0.0686 0.22225 0.15077 0.50737 0.0852 0.29537 0.19785 0.59727 0.35204 0.99003 0.15445 0.37688 0.30087 0.81612 0.39586 1.3151 0.0933 0.19643 0.33417 1.0577 0.20685 2.51 1e-3 0.0823-4e-3 0.20149-0.019 0.35584-0.038 0.11456-0.0708 0.32122-0.1176 0.64489-0.0453 0.17537-0.0794 0.32222-0.10022 0.4423-0.18595 0.72974-0.34753 1.1658-0.40939 1.2583-0.0619 0.0926-0.12382 0.24053-0.1885 0.44592-0.0647 0.20531-0.14949 0.40354-0.25354 0.59357-0.10409 0.19006-0.18381 0.30912-0.23692 0.3557-0.13657 0.25325-0.42298 0.69131-0.42298 0.69131-0.0279 0.0627-0.0939 0.11831-0.0939 0.11831-0.0379 0.0867-0.12389 0.19028-0.12389 0.19028-0.0359 0.0311-0.18333 0.22933-0.43763 0.58939-0.0347 0.079-0.13778 0.15534-0.30997 0.22789-0.36497 0.17547-0.60004 5e-3 -0.67544-0.5207-0.0228 0.0313-0.04 0.0303-0.0515-3e-3 -0.0537-0.232-0.11266-0.39846-0.18093-0.50149-0.0231 0.0314-0.0632-0.11889-0.12018-0.4497-0.018-0.0339-0.0399-0.36615-0.0857-0.97976 0.0144-0.0765 0.0317-0.26629 0.0429-0.54763 4e-3 -0.0156 0.0425-0.24546 0.093-0.67389 7e-3 -0.0322 0.0748-0.33391 0.14216-0.71982 0.0158-0.0307 0.0288-0.15428 0.0288-0.15428 0.02-0.11022 0.10996-0.35647 0.25345-0.76973 0.18465-0.29626 0.35861-0.29724 0.50906 0.0376-8e-3 0.22742-6e-3 0.43018 0.0113 0.6081 0.02 0.16279 0.0185 0.3567-8e-3 0.5834-0.0127 0.22746-0.0219 0.45088-0.0261 0.6698 0.0253 0.24887 0.0525 0.69161 0.0525 0.69161 0.0288 0.1778 0.10195 0.28655 0.22201 0.32495 0.0381-0.0142 0.12162-0.10711 0.24804-0.27749 0.0775-0.0622 0.21847-0.25358 0.21847-0.25358 0.0426-0.0615 0.0975-0.17094 0.16185-0.32574 0.0883-0.16982 0.1545-0.2836 0.20207-0.34418 0.0251-0.11171 0.11236-0.33439 0.25306-0.68137 0.14161-0.35721 0.23435-0.76271 0.26079-1.2003 0.0187-0.1818 0.0175-0.58271 0.0175-0.58271 3e-3 -0.0543 2e-3 -0.10851-2e-3 -0.16253 0.0113-0.0418 6e-3 -0.18041 6e-3 -0.18041-6e-3 -0.0401-9e-3 -0.0664-8e-3 -0.0796 0.0216-0.10839 0.0291-0.37033 0.0291-0.37033-0.0304-0.0835-0.057-0.27797-0.11198-0.60359-0.10867-0.63135-0.1877-0.98185-0.17362-1.2252-2e-3 -0.0108-0.0184-0.0562-0.0486-0.13327-0.0328-0.0885-0.0551-0.17038-0.0666-0.24639-0.0376-0.15801-0.0768-0.3122-0.11674-0.46628z" style="font-variant-caps:normal;font-variant-east-asian:normal;font-variant-ligatures:normal;font-variant-numeric:normal"/>
   <path d="m119.88 107.76c0.069-0.0306 0.19449-0.14786 0.19449-0.14786 0.0187 3.8e-4 0.0502-0.0181 0.0951-0.0557 0.16248-0.12497 0.36379-0.21947 0.5969-0.27946 0.0668-0.10943 0.12385-0.0651 0.19055 0.10439 0.0381 0.0535 0.0644 0.08 0.0769 0.0803 0.0187 5.3e-4 0.0354 0.0534 0.0563 0.15558 0.0294 0.09 0.0481 0.16465 0.0539 0.22681 0.0356 0.074 0.0894 0.16745 0.0894 0.16745 0.0701 0.0867 0.11202 0.15896 0.12348 0.21849 0.0119 0.0483 0.01 0.14111 2e-3 0.27989-2e-3 0.1266-0.0217 0.24456-0.0616 0.35541-0.0346 0.0997-0.0735 0.16462-0.12056 0.1967-0.19851 0.13817-0.33321 0.20553-0.41051 0.20381-0.0769-2e-3 -0.16143 0.0509-0.25002 0.15682-0.0885 0.10582-0.16427 0.16818-0.23029 0.18818-0.066 0.02-0.11475 0.0457-0.1461 0.077-0.0248 0.0314-0.061 0.0841-0.10733 0.15712-0.11836 0.14597-0.24403 0.23821-0.38076 0.27777 0.0129 2.5e-4 0.0201 0.0531 0.023 0.15851 3e-3 0.10653 0.0199 0.24699 0.0513 0.42908 0.0279 0.16849 0.0499 0.37569 0.0606 0.61336 0.0497 0.30443 0.0882 0.90907 0.0882 0.90907 0.0127 0.20822 0.0242 0.31617 0.0433 0.31676 0.0191 5.8e-4 0.0316-0.0227 0.037-0.0696 0.30969-0.24865 0.47843-0.4315 0.51575-0.55448 0.0413-0.13399 0.12988-0.18706 0.26859-0.16005 0.047 6.5e-4 0.10305-0.0468 0.10305-0.0468 0.0115-0.0331 0.0489-0.0486 0.11233-0.0465 0.10146-0.0522 0.28529 0.0842 0.53116 0.42561 0.0145 0.0796 6e-3 0.19031 6e-3 0.19031-0.0113 0.11545-0.0412 0.24338-0.0907 0.38438-0.0496 0.1411-0.0963 0.23062-0.13626 0.26556-0.0337 0.0352-0.0588 0.0648-0.0752 0.0886-0.0177 0.0116-0.0296 0.0173-0.0359 0.017 4e-3 0.0175-0.0189-7.1e-4 -0.0189-7.1e-4 -0.0304 0.0724-0.066 0.13292-0.10603 0.18111-0.0423 0.0978-0.088 0.17181-0.13544 0.22052-0.0475 0.0488-0.0918 0.10425-0.13332 0.16671-0.042 0.0496-0.0756 0.0871-0.10005 0.11207-0.0182 0.0252-0.0426 0.0567-0.0734 0.0945-0.0308 0.0379-0.068 0.0823-0.11195 0.13323-0.0376 0.0512-0.0631 0.0767-0.0757 0.0763-0.0127-4.4e-4 -0.0803 0.11448-0.21542 0.35349-0.0383-1e-3 -0.0909-0.0369-0.15953-0.10636-0.0682-0.0829-0.1183-0.1645-0.15013-0.24485-0.0383-1e-3 -0.0404 0.17378-0.0337 0.54434-3e-3 0.064-0.0251 0.24362-0.0763 0.52044-0.078 0.54579-0.15745 1.0436-0.25082 1.6314-0.0913 0.57524-0.14589 0.90892-0.13464 1.0447 0.0104 0.12591 0.038 0.1893 0.0838 0.18989 0.10887-0.0459 0.1982-0.10762 0.26783-0.18492 0.0732-0.0929 0.13376-0.14662 0.18256-0.1616 0.0488-0.0149 0.11116-0.0765 0.18595-0.18395 0.0812-0.10726 0.134-0.16036 0.15983-0.16 0.0313 4.4e-4 0.16598-0.18342 0.38637-0.54341 0.033-0.075 0.0879-0.14927 0.16445-0.22276 0.0854-0.0882 0.13125-0.15431 0.13845-0.19878 0.0223-0.059 0.0796-0.13922 0.17067-0.24013 0.0995-0.11533 0.20369-0.18545 0.31455-0.21179 0.11882-0.0406 0.20193-0.0241 0.24869 0.0494 0.0827 0.132 0.17338 0.36741 0.26169 0.7087 0.0118 0.11799-0.0346 0.37797-0.15173 0.78451-0.10781 0.39146-0.2255 0.68523-0.3415 0.86886-0.0392 0.0908-0.13199 0.20836-0.13199 0.20836-0.17679 0.30913-0.4119 0.63686-0.70442 0.98213-0.21925 0.2205-0.33264 0.33097-0.33932 0.33114-0.0565 0.0782-0.0898 0.12512-0.0997 0.14071-0.0627 0.13952-0.10378 0.19441-0.12429 0.16419-0.0138-0.0303-0.074-0.0287-0.18123 5e-3 -0.10048 0.0332-0.18464 0.0352-0.25192 6e-3 -0.0304-0.0456-0.0756-0.0679-0.13609-0.0669-0.0774 0.0787-0.24952-0.17789-0.48492-0.79627-0.0301-0.0952-0.0548-0.14293-0.0748-0.14304-0.0199-1e-4 -0.0592-0.0162-0.11771-0.0485-0.0374-0.0638-0.0827-0.13602-0.13575-0.21646-0.14294-0.30366-0.22061-0.51566-0.23268-0.62614-0.0122-0.11188-0.0352-0.20783-0.0688-0.28805-0.0336-0.0802-0.0424-0.16773-0.0267-0.26225 0.0156-0.0945 0.0196-0.19691 0.0115-0.30703 6e-3 -0.0286 0.0201-0.17506 0.0325-0.42041-0.0103-0.20195 1e-3 -0.3467 0.0383-0.43724 0.0238-0.0907 0.0328-0.15869 0.0278-0.2041-2e-3 -0.0605 0.079-0.50835 0.13699-1.2702 0.0592-0.77593 0.043-1.1554 0.0679-1.2197 0.0243-0.063 0.0354-0.2213 0.0196-0.45939-0.028-0.22728-0.0304-0.38985 2e-3 -0.49845 0.0389-0.10753 0.0432-0.24506 0.01-0.40954-0.0354-0.17678-0.0516-0.30697-0.0441-0.3983 0.0167-0.045 4e-3 -0.22231-0.0498-0.51926 2e-3 -0.0839-0.0369-0.29406-0.0369-0.29406 9e-3 -0.25639-1e-3 -0.42896-0.0246-0.51206-0.0266-0.0953-0.0449-0.20645-0.0537-0.33216 6.9e-4 -0.021-0.0135-0.19853-0.0225-0.53553 0.0175-0.058 0.0178-0.22163 0.0178-0.22163 8e-3 -0.048-9e-3 -0.19168-9e-3 -0.19168 0.0601-0.53882 0.17034-0.89073 0.20706-0.97722 4e-4 -0.0289 0.0394-0.27432 0.18471-0.6642 0.0267-0.18707 0.11356-0.32449 0.23868-0.40142 0.1312-0.0918 0.2215-0.0816 0.28031 0.0243 0.0658 0.10746 0.10648 0.17598 0.11778 0.21567 0.0109 0.0384 0.0386 0.0898 0.0846 0.15302 9e-3 0.0626 0.11037 0.0578 0.30243-0.0135l4e-5 3.1e-4z" style="font-variant-caps:normal;font-variant-east-asian:normal;font-variant-ligatures:normal;font-variant-numeric:normal"/>
   <path d="m123.24 107.98c0.0942-0.0691 0.2822-0.0861 0.56457-0.05 0.28342 0.024 0.48489 0.0815 0.60656 0.17022 0.0889 0.0683 0.24287 0.15271 0.24287 0.15271 0.20296 0.25574 0.32846 0.37946 0.35467 0.38064 0.28682 0.37524 0.50172 0.85803 0.63643 1.4266 0.08 0.24434 0.12577 0.46315 0.1361 0.66079 0.0116 0.0647 0.0253 0.21021 0.039 0.42937 3e-3 0.14176-0.0282 0.37982-0.0282 0.37982-0.0101 0.10935-0.0657 0.28103-0.0657 0.28103-0.0354 9e-3 -0.0562 0.0135-0.0624 0.0131-0.21872 0.0543-0.39252 0.0555-0.52402 3e-3 -0.13336-0.064-0.26267-0.19478-0.3926-0.39021-0.0315-0.0682-0.0529-0.12989-0.0639-0.18548-5e-3 -0.0552-5e-3 -0.10454-2e-3 -0.14811 0.01-0.0718-7e-3 -0.2622-7e-3 -0.2622 0.01-0.34674-0.057-0.64244-0.19942-0.88668-6e-3 -0.0329-0.0499-0.0943-0.13057-0.18471-0.0806-0.0904-0.14389-0.15849-0.19017-0.20395-0.0399-0.0452-0.10234-0.0533-0.18728-0.0241-0.13641 0.10344-0.20739 0.42972-0.19053 0.9801-0.0647 0.28261-0.0633 0.63847-0.0191 1.1132 0.0925 0.84079 0.095 1.3641 0.10539 1.4862 0.0184 0.15087 0.0186 0.40696 0.0186 0.40696 0.0124 0.0742 7e-3 0.16936 7e-3 0.16936-0.0113 0.0247 0.0467 0.55302-0.0303 1.7216 1.6e-4 0.0694 4e-3 0.16502 9e-3 0.29107 3e-3 0.15082 3e-3 0.40741-9e-3 0.76121 0.0246 0.17693 0.052 0.47263 0.052 0.47263 0.0245 0.0429 0.0454 0.17249 0.0603 0.38851 0.0314-4.1e-4 0.0484 0.0498 0.0506 0.15084 0.0274 0.10059 0.0366 0.15816 0.0278 0.17281 0.0292 0.0139 0.0693 0.0563 0.12062 0.127 0.13703 0.19791 0.29534 0.14884 0.46711-0.14064 0.0598-0.10073 0.13485-0.23815 0.22221-0.40848 0.0957-0.18464 0.16482-0.32571 0.20874-0.42342 0.0521-0.11205 0.12103-0.21646 0.20664-0.31301 0.24166-0.34034 0.41575-0.3291 0.52247 0.0412 0.0183 0.10863-9e-3 0.3756-0.0914 0.80482-0.0749 0.41665-0.22741 0.8583-0.45803 1.332-0.0255 0.0853-0.0882 0.22778-0.18854 0.4296-0.0982 0.18746-0.19452 0.34055-0.28906 0.45884-0.0267 0.0993-0.28687 0.18975-0.78373 0.26942-0.0264 2e-3 -0.0776-8e-3 -0.15285-0.0311-0.0793 0.0483-0.17597 0.0344-0.28828-0.0437-0.10571-0.0784-0.16438-0.1181-0.17759-0.11726-0.0335 9e-4 -0.11785-0.0577-0.11785-0.0577-0.0528 3e-3 -0.0995-0.0301-0.13944-0.10048-0.0389-0.0686-0.10779-0.19242-0.19783-0.36299-0.0811-0.18596-0.14284-0.34305-0.18374-0.45892-0.12501-0.35414-0.17829-0.76376-0.17489-1.2272-6e-3 -0.10461 4e-3 -0.24536 0.0288-0.42315 0.0271-0.19194 0.0369-0.33162 0.032-0.41928-0.0318-0.11819-0.0268-0.30689 7e-3 -0.5661 0.0401-0.25632 0.0707-0.57218 0.0793-0.92934 0.0126-0.16636 0.0201-0.2589 0.0281-0.28699-0.0272-0.0692-0.0333-0.1843-0.0224-0.34452 0.0111-0.17103 0.0177-0.40613 0.01-0.68601 0.0154-0.072 0.0175-0.30449-0.02-0.65811-0.0327-0.36883-0.0673-0.63326-0.0832-0.80796-0.042-0.10638-0.071-0.25738-0.0909-0.45003-0.019-0.15585-0.10006-0.5049-0.10006-0.5049-0.04-0.19886-0.0633-0.40662-0.067-0.62106-0.0181-0.0968-0.0343-0.21085-0.0474-0.33903-0.0147-0.12994-4e-3 -0.41976 0.0608-0.81706-0.0172-0.0868 0.0105-0.1944 0.0861-0.32317-7e-3 -0.0439 9e-3 -0.10934 0.0483-0.19652 0.0405-0.0888 0.0841-0.19569 0.13825-0.33115 0.0748-0.18981 0.17227-0.33244 0.28103-0.42223 0.10913-0.0901 0.21344-0.19856 0.31701-0.32756l-1.2e-4 -1.9e-4z" style="font-variant-caps:normal;font-variant-east-asian:normal;font-variant-ligatures:normal;font-variant-numeric:normal"/>
   <path d="m128 112.87c-0.0132-0.27563-0.0296-0.4477-0.0404-0.50251 6e-3 -0.0348-0.0112-0.12025-0.0112-0.12025 5e-3 -0.13778-0.0194-0.45826-0.0194-0.45826-0.0186-0.16908-0.0404-0.29934-0.0637-0.38951 9.5e-4 -0.0443-7e-3 -0.13384-0.0233-0.26775 7e-3 -0.0437 6e-3 -0.10467-4e-3 -0.18264-7e-3 -0.054-0.0414-0.44562-0.0701-0.96286-0.13778 0.0466-0.22807 0.0798-0.27086 0.0992-0.11818 0.0195-0.38693 0.01-0.38693 0.01-0.16384 0.0782-0.28336 0.11507-0.36118 0.11057-0.16825 0.0779-0.26817 0.11047-0.30225 0.0975-0.15775 0.0129-0.26744-0.015-0.32985-0.0839-0.0937-0.14596-0.1642-0.35342-0.20107-0.61788-0.0585-0.2338-0.0788-0.39079-0.0672-0.4683 0.0547-0.1642 0.0949-0.25968 0.1125-0.28078 0.0238-0.0328 0.0808-0.064 0.17111-0.0934 0.0905-0.0296 0.17444-0.10463 0.25593-0.22673 0.18163-0.099 0.53166-0.35378 0.53166-0.35378 0.0346 0.0108 0.23003-0.0568 0.23003-0.0568 0.16046-0.0492 0.28168-0.1064 0.36386-0.17233 0.0333 2e-3 0.10712-0.011 0.22184-0.0391 0.11471-0.0281 0.18537-0.0353 0.21169-0.0216 0.0268 2e-3 0.0747-0.0305 0.14467-0.0971 0.22384-3e-3 0.64846-0.0606 0.64846-0.0606 6e-3 0.0123 0.0427 0.0269 0.10952 0.0437 0.10011 0.0311 0.22606 0.0109 0.37803-0.0601 0.10705 0.0319 0.19844 0.0449 0.27338 0.039 0.0331 0.0262 0.13591-1e-3 0.30941-0.0811 0.0408 3e-3 0.0784 5e-4 0.11285-8e-3 0.0348-0.0206 0.11459-0.0494 0.23905-0.0857 0.0749 6e-3 0.13496 0.0409 0.18081 0.10305 0.0346-9e-3 0.0708 0.0294 0.10976 0.11389 0.0458 0.085 0.0916 0.19855 0.13864 0.33985 0.10324 0.27164 0.18153 0.45835 0.19746 0.49358 0.0925 0.24504 0.15639 0.49072 0.19128 0.73984 0.0301 0.0918 0.039 0.15388 0.0264 0.18644-0.0126 0.0326-0.0596 0.057-0.14064 0.0733-0.0358-0.0473-0.0774-0.0671-0.12476-0.0595-0.0478-4e-3 -0.19371 0.0137-0.43529 0.0523-0.0476 7e-3 -0.17367-0.0291-0.17367-0.0291-0.15925 0.0557-0.36304 0.0749-0.61175 0.058-0.19768 0.0136-0.62084-8e-3 -0.62084-8e-3 -8e-3 0.032-0.0562 0.0465-0.0562 0.0465 0.0237 0.77013 0.0809 1.4071 0.10948 1.603 0.0722 0.42772 0.0992 0.65533 0.0884 0.67705 0.0194 0.12959 0.0263 0.34044 0.0263 0.34044 0.21166 2.054 0.15596 3.233 0.159 3.3188 9e-3 0.0853 9e-3 0.25817-4e-3 0.51652 5e-3 0.51622-0.0272 1.5104-0.0272 1.5104 0.0324 0.0862 0.045 0.22891 0.0376 0.42831-0.0116 0.26173-0.0578 0.41952-0.13982 0.47439-0.14327 0.0959-0.26062 0.1852-0.35136 0.26676-0.0897 0.0688-0.2254 0.0855-0.40484 0.0477 3e-3 -0.0385-0.0673-0.0966-0.20953-0.17663 1e-3 -0.0129-0.0332-0.10626-0.10063-0.28254-0.0199-0.0632-0.0243-0.15321-0.0133-0.27-9e-3 -0.3154 0.0124-0.7188 0.0561-1.2407-7e-3 -0.35962 6e-3 -0.62953 0.0417-0.80657-5e-3 -0.0128-0.0108-0.23046-0.0292-0.64561 0.0182-0.21651 0.021-0.69036 0.021-0.69036 2e-3 -0.0986-0.0125-0.19742-0.0425-0.29663 6e-3 -0.17359-0.0142-0.56421-0.0142-0.56421-8e-3 -0.34988-0.0238-0.69016-0.0474-1.029z" style="font-variant-caps:normal;font-variant-east-asian:normal;font-variant-ligatures:normal;font-variant-numeric:normal"/>
   <path d="m133.18 118.9c-0.0755 0.0284-0.2547 0.0389-0.2547 0.0389-0.21507 0.083-0.59894-0.0493-1.1235-0.4121-0.0267 9.3e-4 -0.0402 7e-3 -0.0404 0.0188-0.22838-0.21162-0.3722-0.37754-0.43438-0.49269-0.22864-0.6582-0.33443-1.1958-0.32969-1.5689 2e-3 -0.0589 0.0604-0.20027 0.17423-0.42071 7e-3 -0.035 0.0564-0.0927 0.14753-0.17193 0.0975-0.0791 0.18473-0.12294 0.26197-0.13222 0.10236 0.0263 0.17253 0.0862 0.20983 0.1794 0.0743 0.18025 0.19621 0.48862 0.19621 0.48862 0.0436 0.0862 0.10404 0.20874 0.10404 0.20874 0.0664 0.1035 0.17267 0.26024 0.17267 0.26024 0.0538 0.097 0.13451 0.24133 0.13451 0.24133 0.0738 0.10809 0.19476 0.27444 0.19476 0.27444 0.0263 0.0229 0.0494 0.04 0.0692 0.0514 0.0267 5e-5 0.0732 0.0115 0.13977 0.0344 0.0734 0.0116 0.12712 6e-3 0.16093-0.0163 0.0338-0.0224 0.0777-0.0447 0.13165-0.0667 0.0541-0.0333 0.10156-0.0665 0.14227-0.0998 0.0889-0.14481 0.14378-0.228 0.16411-0.24991 0.0542-0.0729 0.13392-0.26569 0.13392-0.26569 0.0137-0.022 0.0348-0.11657 0.0631-0.28321 0.0105-0.1123 2e-3 -0.28468 2e-3 -0.28468 7e-3 -0.0444 7e-3 -0.0834 8.6e-4 -0.11723-6e-3 -0.0449-0.0129-0.0954-0.0192-0.15152-6e-3 -0.056-0.0128-0.10099-0.0194-0.13481-6e-3 -0.045-0.0564-0.13609-0.14961-0.27445-0.0394-0.13596-0.0956-0.27835-0.16835-0.42753-0.0199-0.0346-0.18346-0.18207-0.48591-0.44598-0.0893-0.0789-0.29505-0.28699-0.29505-0.28699-0.0495-0.0714-0.17662-0.26459-0.17662-0.26459-0.10445-0.0628-0.19556-0.15889-0.27424-0.28845-0.0722-0.12908-0.11497-0.19981-0.12802-0.21199-0.0923-0.0633-0.24383-0.30412-0.46699-0.72739-2.7e-4 -0.0113-0.0622-0.22499-0.19296-0.63888-0.0335-0.20579-0.13306-0.66497-0.13306-0.66497 0.017-0.12825 0.0207-0.4334 0.0207-0.4334-0.0628-0.22755-0.0932-0.44677-0.0891-0.65784 0.024-0.0652 0.0482-0.19638 0.0743-0.39508-0.0175-0.10132-1.1e-4 -0.25644 0.0546-0.46409 0.061-0.21793 0.10343-0.35068 0.12273-0.39323 0.0196-0.0433 0.0359-0.0869 0.0488-0.1308-2e-3 -0.0773 0.14044-0.34951 0.44073-0.80925 0.18078-0.1212 0.51722-0.41288 0.51722-0.41288 0.37831-0.0332 0.62418-0.0433 0.72929-0.0332 0.24688 0.0573 0.41718 0.12966 0.50911 0.21661 0.15647 0.17144 0.27615 0.30924 0.3619 0.41783 0.31264 0.45181 0.48911 0.84204 0.52993 1.178 0.14622 0.63255 0.16222 1.2338 0.0521 1.8112-3.8e-4 0.0554-0.10021 0.14108-0.2972 0.25893-0.078 0.01-0.26188-0.0202-0.26188-0.0202-0.11138-9e-3 -0.21181-0.0496-0.30185-0.12318-0.0901-0.0848-0.20422-0.2323-0.34352-0.44335-0.0555-0.0487-0.10132-0.20245-0.1378-0.46094-9e-3 -0.26742-0.0482-0.43167-0.11836-0.49301-7e-3 -0.0117-0.0357-0.11409-0.0861-0.30727-0.0289-0.0533-0.11695-0.20987-0.11695-0.20987-0.0498-0.10422-0.0957-0.15811-0.13766-0.16154-0.0349-3e-3 -0.0767 0.016-0.12501 0.0566-0.0963 0.1148-0.1809 0.26959-0.2533 0.46432-0.0655 0.19536-0.0984 0.41518-0.0997 0.66001 5e-3 0.24497 0.0199 0.43595 0.0431 0.57111 0.0231 0.1355 0.0807 0.31256 0.17169 0.53146 0.0908 0.20768 0.14557 0.31227 0.16569 0.31379 0.0208 0.0573 0.15463 0.27973 0.39858 0.66559 0.15512 0.19456 0.43599 0.53227 0.43599 0.53227 0.0671 0.10953 0.17251 0.27873 0.17251 0.27873 0.0773 0.0876 0.20351 0.21327 0.20351 0.21327 0.10889 0.0736 0.21806 0.18029 0.32741 0.31989 0.10947 0.12858 0.17796 0.23199 0.20515 0.3111 0.0611 0.10222 0.15424 0.2575 0.15424 0.2575 0.061 0.13516 0.15393 0.3562 0.15393 0.3562 0.0412 0.0795 0.10173 0.37511 0.18112 0.88572 0.0149 0.23124 0.0152 0.64526 0.0152 0.64526-9e-3 0.14189-0.0556 0.3779-0.0556 0.3779-0.0212 0.0323-0.057 0.14669-0.1072 0.34343 7e-3 0.0333-0.0293 0.18077-0.10754 0.44359-0.021 0.0658-0.10473 0.18962-0.2506 0.37507-0.13908 0.17476-0.22118 0.27323-0.24911 0.29546-7e-3 0.0334-0.076 0.0878-0.20639 0.16525-0.0208 0.0334-0.0825 0.0776-0.18527 0.13371-0.0958 0.0449-0.19126 0.0624-0.28635 0.0523-0.0616 0.0398-0.12307 0.0799-0.18458 0.12021z" style="font-variant-caps:normal;font-variant-east-asian:normal;font-variant-ligatures:normal;font-variant-numeric:normal"/>
  </g>
  <text fill="#000000" font-family="'Caveat Brush'" font-size="10.583px" style="font-variant-caps:normal;font-variant-east-asian:normal;font-variant-ligatures:normal;font-variant-numeric:normal;line-height:1.25;shape-inside:url(#rect170);white-space:pre" xml:space="preserve"/>
  <text fill="#000000" font-family="sans-serif" font-size="10.583px" style="line-height:1.25;shape-inside:url(#rect197);white-space:pre" xml:space="preserve"/>
 </g>
</svg>
