<?xml version="1.0" encoding="UTF-8"?>
<svg width="55.709mm" height="102.56mm" version="1.1" viewBox="0 0 55.709 102.56" xmlns="http://www.w3.org/2000/svg" xmlns:cc="http://creativecommons.org/ns#" xmlns:dc="http://purl.org/dc/elements/1.1/" xmlns:rdf="http://www.w3.org/1999/02/22-rdf-syntax-ns#">
 <metadata>
  <rdf:RDF>
   <cc:Work rdf:about="">
    <dc:format>image/svg+xml</dc:format>
    <dc:type rdf:resource="http://purl.org/dc/dcmitype/StillImage"/>
    <dc:title/>
   </cc:Work>
  </rdf:RDF>
 </metadata>
 <g transform="translate(-203.64 -239.52)" display="none">
  <g fill-rule="evenodd" stroke-linejoin="round" stroke-width=".2">
   <path d="m272.68 303.5 12.886-5.0176v73.235l-12.886-6.2254z" points="285.56134,298.48561 285.56134,371.72048 272.67571,365.49507 272.67571,303.50325 " fill="#e9e9ff"/>
   <path d="m258.3 300.48v68.678l14.377-3.6585v-61.992z" points="258.29853,369.15361 272.67571,365.49507 272.67571,303.50325 258.29853,300.47596 " fill="#353564"/>
   <path d="m258.3 369.15 11.614 7.7842 15.649-5.2173-12.886-6.2254z" points="269.91234,376.93779 285.56134,371.72048 272.67571,365.49507 258.29853,369.15361 " fill="#afafde"/>
   <path d="m258.3 300.48 11.614-6.2901 15.649 4.2997-12.886 5.0176z" points="269.91234,294.18588 285.56134,298.48561 272.67571,303.50325 258.29853,300.47596 " fill="#4d4d9f"/>
   <path d="m269.91 294.19v82.752l15.649-5.2173v-73.235z" points="269.91234,376.93779 285.56134,371.72048 285.56134,298.48561 269.91234,294.18588 " fill="#d7d7ff"/>
   <path d="m258.3 300.48 11.614-6.2901v82.752l-11.614-7.7842z" points="269.91234,294.18588 269.91234,376.93779 258.29853,369.15361 258.29853,300.47596 " fill="#8686bf"/>
  </g>
 </g>
 <g transform="translate(-203.64 -239.52)" display="none">
  <g fill-rule="evenodd" stroke-linejoin="round" stroke-width=".2">
   <path d="m318.02 411.76 12.225 8.4649v-58.055l-12.225-2.9469z" points="330.24321,420.22931 330.24321,362.17408 318.01861,359.22718 318.01861,411.76442 " fill="#e9e9ff"/>
   <path d="m305.73 422.97v-59.877l12.29-3.8637v52.537z" points="305.72897,363.09086 318.01861,359.22718 318.01861,411.76442 305.72897,422.9682 " fill="#353564"/>
   <path d="m305.73 422.97 12.647 11.152 11.867-13.891-12.225-8.4649z" points="318.37596,434.12052 330.24321,420.22931 318.01861,411.76442 305.72897,422.9682 " fill="#4d4d9f"/>
   <path d="m305.73 363.09 12.647 3.878 11.867-4.7948-12.225-2.9469z" points="318.37596,366.96888 330.24321,362.17408 318.01861,359.22718 305.72897,363.09086 " fill="#afafde"/>
   <path d="m318.38 434.12v-67.152l11.867-4.7948v58.055z" points="318.37596,366.96888 330.24321,362.17408 330.24321,420.22931 318.37596,434.12052 " fill="#d7d7ff"/>
   <path d="m305.73 422.97 12.647 11.152v-67.152l-12.647-3.878z" points="318.37596,434.12052 318.37596,366.96888 305.72897,363.09086 305.72897,422.9682 " fill="#8686bf"/>
  </g>
 </g>
 <g transform="translate(.52921 -.098307)">
  <g fill-rule="evenodd" stroke-linejoin="round" stroke-width=".2">
   <path d="m10.873 53.613 11.819 7.9067v-59.027l-11.819-2.2964z" points="22.691943,61.519735 22.691943,2.4930251 10.872659,0.19661548 10.872659,53.613008 " fill="#e9e9ff"/>
   <path d="m-0.52925 64.898v-60.879l11.402-3.8224v53.416z" points="-0.52925057,4.0190615 10.872659,0.19661548 10.872659,53.613008 -0.52925057,64.89838 " fill="#353564"/>
   <path d="m-0.52925 64.898 12.286 10.517 10.935-13.895-11.819-7.9067z" points="11.756765,75.414996 22.691943,61.519735 10.872659,53.613008 -0.52925057,64.89838 " fill="#4d4d9f"/>
   <path d="m-0.52925 4.0191 12.286 3.1206 10.935-4.6466-11.819-2.2964z" points="11.756765,7.1396607 22.691943,2.4930251 10.872659,0.19661548 -0.52925057,4.0190615 " fill="#afafde"/>
   <path d="m11.757 75.415v-68.275l10.935-4.6466v59.027z" points="11.756765,7.1396607 22.691943,2.4930251 22.691943,61.519735 11.756765,75.414996 " fill="#d7d7ff"/>
   <path d="m-0.52925 64.898 12.286 10.517v-68.275l-12.286-3.1206z" points="11.756765,75.414996 11.756765,7.1396607 -0.52925057,4.0190615 -0.52925057,64.89838 " fill="#8686bf"/>
  </g>
 </g>
 <g transform="translate(-203.64 -239.52)">
  <g fill-rule="evenodd" stroke-linejoin="round" stroke-width=".2">
   <path d="m231.25 304.23 12.695 8.727v-65.15l-12.695-2.5346z" points="243.94169,312.96103 243.94169,247.81078 231.24678,245.27613 231.24678,304.23404 " fill="#e9e9ff"/>
   <path d="m219 316.69v-67.195l12.247-4.219v58.958z" points="219.00016,249.49513 231.24678,245.27613 231.24678,304.23404 219.00016,316.69018 " fill="#353564"/>
   <path d="m219 316.69 13.196 11.608 11.745-15.337-12.695-8.727z" points="232.19638,328.29781 243.94169,312.96103 231.24678,304.23404 219.00016,316.69018 " fill="#4d4d9f"/>
   <path d="m219 249.5 13.196 3.4443 11.745-5.1287-12.695-2.5346z" points="232.19638,252.93947 243.94169,247.81078 231.24678,245.27613 219.00016,249.49513 " fill="#afafde"/>
   <path d="m232.2 328.3v-75.358l11.745-5.1287v65.15z" points="232.19638,252.93947 243.94169,247.81078 243.94169,312.96103 232.19638,328.29781 " fill="#d7d7ff"/>
   <path d="m219 316.69 13.196 11.608v-75.358l-13.196-3.4443z" points="232.19638,328.29781 232.19638,252.93947 219.00016,249.49513 219.00016,316.69018 " fill="#8686bf"/>
  </g>
 </g>
 <g transform="translate(-203.64 -239.52)">
  <g fill-rule="evenodd" stroke-linejoin="round" stroke-width=".2">
   <path d="m246.97 316.23 12.38 8.8899v-72.509l-12.38-1.9981z" points="259.3523,325.11696 259.3523,252.60784 246.97233,250.60975 246.97233,316.22709 " fill="#e9e9ff"/>
   <path d="m235.03 330.2v-74.785l11.939-4.8045v65.617z" points="235.03326,255.41425 246.97233,250.60975 246.97233,316.22709 235.03326,330.19914 " fill="#353564"/>
   <path d="m235.03 330.2 12.869 11.98 11.45-17.062-12.38-8.8899z" points="247.90256,342.17933 259.3523,325.11696 246.97233,316.22709 235.03326,330.19914 " fill="#4d4d9f"/>
   <path d="m235.03 255.41 12.869 2.8948 11.45-5.7012-12.38-1.9981z" points="247.90256,258.30909 259.3523,252.60784 246.97233,250.60975 235.03326,255.41425 " fill="#afafde"/>
   <path d="m247.9 342.18v-83.87l11.45-5.7012v72.509z" points="247.90256,258.30909 259.3523,252.60784 259.3523,325.11696 247.90256,342.17933 " fill="#d7d7ff"/>
   <path d="m235.03 330.2 12.869 11.98v-83.87l-12.869-2.8948z" points="247.90256,342.17933 247.90256,258.30909 235.03326,255.41425 235.03326,330.19914 " fill="#8686bf"/>
  </g>
 </g>
</svg>
