<?xml version="1.0" encoding="UTF-8"?>
<svg width="210mm" height="297mm" version="1.1" viewBox="0 0 210 297" xmlns="http://www.w3.org/2000/svg" xmlns:cc="http://creativecommons.org/ns#" xmlns:dc="http://purl.org/dc/elements/1.1/" xmlns:rdf="http://www.w3.org/1999/02/22-rdf-syntax-ns#">
 <metadata>
  <rdf:RDF>
   <cc:Work rdf:about="">
    <dc:format>image/svg+xml</dc:format>
    <dc:type rdf:resource="http://purl.org/dc/dcmitype/StillImage"/>
    <dc:title/>
   </cc:Work>
  </rdf:RDF>
 </metadata>
 <g fill-rule="evenodd" stroke-linejoin="round" stroke-width=".2">
  <path d="m104.25 39.272 11.211-4.0964v70.05l-11.211-5.3884z" points="115.45747,35.175626 115.45747,105.22592 104.24651,99.837494 104.24651,39.272018 " fill="#e9e9ff"/>
  <path d="m89.76 36.41v67.097l14.486-3.6698v-60.565z" points="89.76024,103.50728 104.24651,99.837494 104.24651,39.272018 89.76024,36.409802 " fill="#353564"/>
  <path d="m89.76 103.51 10.077 6.7198 15.62-5.0011-11.211-5.3884z" points="99.837224,110.22704 115.45747,105.22592 104.24651,99.837494 89.76024,103.50728 " fill="#afafde"/>
  <path d="m89.76 36.41 10.077-5.1213 15.62 3.8871-11.211 4.0964z" points="99.837224,31.288538 115.45747,35.175626 104.24651,39.272018 89.76024,36.409802 " fill="#4d4d9f"/>
  <path d="m99.837 31.289v78.939l15.62-5.0011v-70.05z" points="99.837224,110.22704 115.45747,105.22592 115.45747,35.175626 99.837224,31.288538 " fill="#d7d7ff"/>
  <path d="m89.76 36.41 10.077-5.1213v78.939l-10.077-6.7198z" points="99.837224,31.288538 99.837224,110.22704 89.76024,103.50728 89.76024,36.409802 " fill="#8686bf"/>
 </g>
 <g>
  <g fill-rule="evenodd" stroke-linejoin="round" stroke-width=".2">
   <path d="m81.934 42.617 11.127-4.3326v74.09l-11.127-5.6992z" points="93.061034,38.284602 93.061034,112.37495 81.934497,106.67576 81.934497,42.617248 " fill="#e9e9ff"/>
   <path d="m67.557 39.59v70.967l14.377-3.8814v-64.059z" points="67.557318,110.5572 81.934497,106.67576 81.934497,42.617248 67.557318,39.589959 " fill="#353564"/>
   <path d="m67.557 110.56 10.001 7.1073 15.503-5.2896-11.127-5.6992z" points="77.558414,117.6645 93.061034,112.37495 81.934497,106.67576 67.557318,110.5572 " fill="#afafde"/>
   <path d="m67.557 39.59 10.001-5.4166 15.503 4.1113-11.127 4.3326z" points="77.558414,34.173332 93.061034,38.284602 81.934497,42.617248 67.557318,39.589959 " fill="#4d4d9f"/>
   <path d="m77.558 34.173v83.491l15.503-5.2896v-74.09z" points="77.558414,117.6645 93.061034,112.37495 93.061034,38.284602 77.558414,34.173332 " fill="#d7d7ff"/>
   <path d="m67.557 39.59 10.001-5.4166v83.491l-10.001-7.1073z" points="77.558414,34.173332 77.558414,117.6645 67.557318,110.5572 67.557318,39.589959 " fill="#8686bf"/>
  </g>
 </g>
</svg>
