<?xml version="1.0" encoding="UTF-8"?>
<svg width="44.972mm" height="84.366mm" version="1.1" viewBox="0 0 44.972 84.366" xmlns="http://www.w3.org/2000/svg" xmlns:cc="http://creativecommons.org/ns#" xmlns:dc="http://purl.org/dc/elements/1.1/" xmlns:rdf="http://www.w3.org/1999/02/22-rdf-syntax-ns#">
 <metadata>
  <rdf:RDF>
   <cc:Work rdf:about="">
    <dc:format>image/svg+xml</dc:format>
    <dc:type rdf:resource="http://purl.org/dc/dcmitype/StillImage"/>
    <dc:title/>
   </cc:Work>
  </rdf:RDF>
 </metadata>
 <g transform="translate(-294.33 -352.41)" display="none">
  <g fill-rule="evenodd" stroke-linejoin="round" stroke-width=".2">
   <path d="m363.36 416.39 12.886-5.0176v73.235l-12.886-6.2254z" points="376.24838,411.37424 376.24838,484.60911 363.36274,478.38369 363.36274,416.39187 " fill="#e9e9ff"/>
   <path d="m348.99 413.36v68.678l14.377-3.6586v-61.992z" points="348.98556,482.04224 363.36274,478.38369 363.36274,416.39187 348.98556,413.36458 " fill="#353564"/>
   <path d="m348.99 482.04 11.614 7.7842 15.649-5.2173-12.886-6.2254z" points="360.59937,489.82641 376.24838,484.60911 363.36274,478.38369 348.98556,482.04224 " fill="#afafde"/>
   <path d="m348.99 413.36 11.614-6.2901 15.649 4.2997-12.886 5.0176z" points="360.59937,407.0745 376.24838,411.37424 363.36274,416.39187 348.98556,413.36458 " fill="#4d4d9f"/>
   <path d="m360.6 407.07v82.752l15.649-5.2173v-73.235z" points="360.59937,489.82641 376.24838,484.60911 376.24838,411.37424 360.59937,407.0745 " fill="#d7d7ff"/>
   <path d="m348.99 413.36 11.614-6.2901v82.752l-11.614-7.7842z" points="360.59937,407.0745 360.59937,489.82641 348.98556,482.04224 348.98556,413.36458 " fill="#8686bf"/>
  </g>
 </g>
 <g transform="translate(18.624 -3.552)" fill="#2f4a2f" fill-rule="evenodd" stroke-linejoin="round" stroke-width=".2">
  <g>
   <path d="m14.906 11.914 11.389-4.5889v66.977l-11.389-5.6935z" points="26.295146,7.3248019 26.295146,74.301921 14.905894,68.608454 14.905894,11.913693 " fill="#e9e9ff"/>
   <path d="m2.1983 9.1451v62.809l12.708-3.3459v-56.695z" points="2.1983071,71.954385 14.905894,68.608454 14.905894,11.913693 2.1983071,9.1450781 " fill="#353564"/>
   <path d="m2.1983 71.954 10.265 7.119 13.832-4.7715-11.389-5.6935z" points="12.463427,79.07342 26.295146,74.301921 14.905894,68.608454 2.1983071,71.954385 " fill="#afafde"/>
   <path d="m2.1983 9.1451 10.265-5.7526 13.832 3.9323-11.389 4.5889z" points="12.463427,3.3924723 26.295146,7.3248019 14.905894,11.913693 2.1983071,9.1450781 " fill="#4d4d9f"/>
   <path d="m12.463 3.3925v75.681l13.832-4.7715v-66.977z" points="12.463427,79.07342 26.295146,74.301921 26.295146,7.3248019 12.463427,3.3924723 " fill="#d7d7ff"/>
   <path d="m2.1983 9.1451 10.265-5.7526v75.681l-10.265-7.119z" points="12.463427,3.3924723 12.463427,79.07342 2.1983071,71.954385 2.1983071,9.1450781 " fill="#8686bf"/>
  </g>
  <g>
   <path d="m-5.7747 18.192 11.563-4.7533v69.377l-11.563-5.8975z" points="5.7886481,13.438461 5.7886481,82.815524 -5.7746813,76.918046 -5.7746813,18.191783 " fill="#e9e9ff"/>
   <path d="m-18.676 15.324v65.06l12.902-3.4658v-58.726z" points="-18.676496,80.38387 -5.7746813,76.918046 -5.7746813,18.191783 -18.676496,15.323962 " fill="#353564"/>
   <path d="m-18.676 80.384 10.422 7.3741 14.043-4.9425-11.563-5.8975z" points="-8.2544816,87.757996 5.7886481,82.815524 -5.7746813,76.918046 -18.676496,80.38387 " fill="#afafde"/>
   <path d="m-18.676 15.324 10.422-5.9587 14.043 4.0732-11.563 4.7533z" points="-8.2544816,9.3652271 5.7886481,13.438461 -5.7746813,18.191783 -18.676496,15.323962 " fill="#4d4d9f"/>
   <path d="m-8.2545 9.3652v78.393l14.043-4.9425v-69.377z" points="-8.2544816,87.757996 5.7886481,82.815524 5.7886481,13.438461 -8.2544816,9.3652271 " fill="#d7d7ff"/>
   <path d="m-18.676 15.324 10.422-5.9587v78.393l-10.422-7.3741z" points="-8.2544816,9.3652271 -8.2544816,87.757996 -18.676496,80.38387 -18.676496,15.323962 " fill="#8686bf"/>
  </g>
 </g>
 <g transform="translate(-294.33 -352.41)" display="none">
  <g fill-rule="evenodd" stroke-linejoin="round" stroke-width=".2">
   <path d="m408.71 524.65 12.225 8.4649v-58.055l-12.225-2.9469z" points="420.93024,533.11793 420.93024,475.0627 408.70564,472.1158 408.70564,524.65305 " fill="#e9e9ff"/>
   <path d="m396.42 535.86v-59.877l12.29-3.8637v52.537z" points="396.416,475.97948 408.70564,472.1158 408.70564,524.65305 396.416,535.85683 " fill="#353564"/>
   <path d="m396.42 535.86 12.647 11.152 11.867-13.891-12.225-8.4649z" points="409.06299,547.00914 420.93024,533.11793 408.70564,524.65305 396.416,535.85683 " fill="#4d4d9f"/>
   <path d="m396.42 475.98 12.647 3.878 11.867-4.7948-12.225-2.9469z" points="409.06299,479.8575 420.93024,475.0627 408.70564,472.1158 396.416,475.97948 " fill="#afafde"/>
   <path d="m409.06 547.01v-67.152l11.867-4.7948v58.055z" points="409.06299,479.8575 420.93024,475.0627 420.93024,533.11793 409.06299,547.00914 " fill="#d7d7ff"/>
   <path d="m396.42 535.86 12.647 11.152v-67.152l-12.647-3.878z" points="409.06299,547.00914 409.06299,479.8575 396.416,475.97948 396.416,535.85683 " fill="#8686bf"/>
  </g>
 </g>
 <g transform="translate(-90.158 -112.99)" display="none">
  <g display="inline" fill-rule="evenodd" stroke-linejoin="round" stroke-width=".2">
   <path d="m101.56 166.5 11.819 7.9067v-59.027l-11.819-2.2964z" points="113.37897,174.40836 113.37897,115.38165 101.55969,113.08524 101.55969,166.50163 " fill="#e9e9ff"/>
   <path d="m90.158 177.79v-60.879l11.402-3.8224v53.416z" points="90.157776,116.90768 101.55969,113.08524 101.55969,166.50163 90.157776,177.787 " fill="#353564"/>
   <path d="m90.158 177.79 12.286 10.517 10.935-13.895-11.819-7.9067z" points="102.44379,188.30362 113.37897,174.40836 101.55969,166.50163 90.157776,177.787 " fill="#4d4d9f"/>
   <path d="m90.158 116.91 12.286 3.1206 10.935-4.6466-11.819-2.2964z" points="102.44379,120.02828 113.37897,115.38165 101.55969,113.08524 90.157776,116.90768 " fill="#afafde"/>
   <path d="m102.44 188.3v-68.275l10.935-4.6466v59.027z" points="102.44379,120.02828 113.37897,115.38165 113.37897,174.40836 102.44379,188.30362 " fill="#d7d7ff"/>
   <path d="m90.158 177.79 12.286 10.517v-68.275l-12.286-3.1206z" points="102.44379,188.30362 102.44379,120.02828 90.157776,116.90768 90.157776,177.787 " fill="#8686bf"/>
  </g>
 </g>
 <g transform="translate(-294.33 -352.41)" display="none">
  <g display="inline" fill-rule="evenodd" stroke-linejoin="round" stroke-width=".2">
   <path d="m321.93 417.12 12.695 8.727v-65.15l-12.695-2.5346z" points="334.62873,425.84965 334.62873,360.6994 321.93382,358.16475 321.93382,417.12266 " fill="#e9e9ff"/>
   <path d="m309.69 429.58v-67.195l12.247-4.219v58.958z" points="309.6872,362.38375 321.93382,358.16475 321.93382,417.12266 309.6872,429.57879 " fill="#353564"/>
   <path d="m309.69 429.58 13.196 11.608 11.745-15.337-12.695-8.727z" points="322.88342,441.18643 334.62873,425.84965 321.93382,417.12266 309.6872,429.57879 " fill="#4d4d9f"/>
   <path d="m309.69 362.38 13.196 3.4443 11.745-5.1287-12.695-2.5346z" points="322.88342,365.82808 334.62873,360.6994 321.93382,358.16475 309.6872,362.38375 " fill="#afafde"/>
   <path d="m322.88 441.19v-75.358l11.745-5.1287v65.15z" points="322.88342,365.82808 334.62873,360.6994 334.62873,425.84965 322.88342,441.18643 " fill="#d7d7ff"/>
   <path d="m309.69 429.58 13.196 11.608v-75.358l-13.196-3.4443z" points="322.88342,441.18643 322.88342,365.82808 309.6872,362.38375 309.6872,429.57879 " fill="#8686bf"/>
  </g>
 </g>
 <g transform="translate(-294.33 -352.41)" display="none">
  <g display="inline" fill-rule="evenodd" stroke-linejoin="round" stroke-width=".2">
   <path d="m337.66 429.12 12.38 8.8899v-72.509l-12.38-1.9981z" points="350.03934,438.00557 350.03934,365.49645 337.65937,363.49837 337.65937,429.11571 " fill="#e9e9ff"/>
   <path d="m325.72 443.09v-74.785l11.939-4.8045v65.617z" points="325.7203,368.30287 337.65937,363.49837 337.65937,429.11571 325.7203,443.08775 " fill="#353564"/>
   <path d="m325.72 443.09 12.869 11.98 11.45-17.062-12.38-8.8899z" points="338.58959,455.06795 350.03934,438.00557 337.65937,429.11571 325.7203,443.08775 " fill="#4d4d9f"/>
   <path d="m325.72 368.3 12.869 2.8948 11.45-5.7013-12.38-1.9981z" points="338.58959,371.19771 350.03934,365.49645 337.65937,363.49837 325.7203,368.30287 " fill="#afafde"/>
   <path d="m338.59 455.07v-83.87l11.45-5.7013v72.509z" points="338.58959,371.19771 350.03934,365.49645 350.03934,438.00557 338.58959,455.06795 " fill="#d7d7ff"/>
   <path d="m325.72 443.09 12.869 11.98v-83.87l-12.869-2.8948z" points="338.58959,455.06795 338.58959,371.19771 325.7203,368.30287 325.7203,443.08775 " fill="#8686bf"/>
  </g>
 </g>
</svg>
